<svg width="20" height="18" viewBox="0 0 20 18" fill="none" xmlns="http://www.w3.org/2000/svg">
<path d="M8.42105 18C8.41825 18 8.41499 18 8.41219 18C8.29652 17.9977 8.18738 17.948 8.10903 17.8627L0.112044 9.12347C-0.0250791 8.97347 -0.037672 8.74754 0.0821942 8.58301C0.20206 8.41895 0.420338 8.3627 0.604102 8.44895L7.9234 11.8933C7.98496 11.9223 8.05772 11.9083 8.10483 11.859L19.2696 0.131621C19.4208 -0.0272819 19.6679 -0.0446253 19.8396 0.0922468C20.0112 0.229119 20.0509 0.474739 19.931 0.658954L8.82496 17.7577C8.8091 17.7825 8.79045 17.805 8.76993 17.8261L8.72095 17.8753C8.6412 17.955 8.53299 18 8.42105 18Z" fill="#2F80ED"/>
</svg>
