<svg width="45" height="45" viewBox="0 0 45 45" fill="none" xmlns="http://www.w3.org/2000/svg">
<path d="M22.5 41.25H9.375C6.27375 41.25 3.75 38.7262 3.75 35.625V9.375C3.75 6.27375 6.27375 3.75 9.375 3.75H17.8406C18.1462 3.75 18.45 3.765 18.75 3.79312V13.125C18.75 16.2262 21.2738 18.75 24.375 18.75H35.2744C36.4613 18.7819 37.4156 17.5519 37.0912 16.41C36.5081 14.1281 35.3194 12.0431 33.6544 10.3781L27.12 3.84375C24.6412 1.365 21.345 0 17.8387 0H9.375C4.20563 0 0 4.20563 0 9.375V35.625C0 40.7944 4.20563 45 9.375 45H22.5C23.535 45 24.375 44.16 24.375 43.125C24.375 42.09 23.535 41.25 22.5 41.25ZM22.5 4.98562C23.2106 5.39437 23.8725 5.90062 24.4688 6.49687L31.0031 13.0312C31.5919 13.62 32.0962 14.2837 32.5087 15H24.375C23.3419 15 22.5 14.1581 22.5 13.125V4.98562ZM44.4506 41.7994L37.0312 34.38L40.005 31.4062C40.7363 32.3737 42.1331 32.7244 43.0444 31.7944C43.7775 31.0613 43.7775 29.8763 43.0444 29.1431L34.6069 20.7056C33.8738 19.9725 32.6887 19.9725 31.9556 20.7056C31.2225 21.4388 31.2225 22.6237 31.9556 23.3569L32.0606 23.4619L23.4619 32.0606L23.3569 31.9556C22.6237 31.2225 21.4388 31.2225 20.7056 31.9556C19.9725 32.6887 19.9725 33.8738 20.7056 34.6069L29.1431 43.0444C29.5088 43.41 29.9888 43.5938 30.4688 43.5938C32.4056 43.605 32.9719 41.0306 31.4062 40.005L34.38 37.0312L41.7994 44.4506C43.4944 46.1963 46.1963 43.4925 44.4506 41.7994ZM26.1131 34.7119L34.7119 26.1131L37.3556 28.7569L28.7569 37.3556L26.1131 34.7119ZM7.5 15C7.5 13.965 8.34 13.125 9.375 13.125H13.125C14.16 13.125 15 13.965 15 15C15 16.035 14.16 16.875 13.125 16.875H9.375C8.34 16.875 7.5 16.035 7.5 15ZM24.375 24.375H9.375C8.34 24.375 7.5 23.535 7.5 22.5C7.5 21.465 8.34 20.625 9.375 20.625H24.375C25.41 20.625 26.25 21.465 26.25 22.5C26.25 23.535 25.41 24.375 24.375 24.375ZM15 28.125C16.035 28.125 16.875 28.965 16.875 30C16.875 31.035 16.035 31.875 15 31.875H9.375C8.34 31.875 7.5 31.035 7.5 30C7.5 28.965 8.34 28.125 9.375 28.125H15Z" fill="white"/>
</svg>
