<svg width="18" height="18" viewBox="0 0 18 18" fill="none" xmlns="http://www.w3.org/2000/svg">
<path d="M14.25 0.74971H3.75C2.7558 0.750901 1.80267 1.14637 1.09966 1.84938C0.396661 2.55238 0.00119089 3.50551 0 4.49971L0 13.4997C0.00119089 14.4939 0.396661 15.447 1.09966 16.15C1.80267 16.8531 2.7558 17.2485 3.75 17.2497H14.25C15.2442 17.2485 16.1973 16.8531 16.9003 16.15C17.6033 15.447 17.9988 14.4939 18 13.4997V4.49971C17.9988 3.50551 17.6033 2.55238 16.9003 1.84938C16.1973 1.14637 15.2442 0.750901 14.25 0.74971V0.74971ZM3.75 2.24971H14.25C14.6991 2.25059 15.1376 2.38585 15.5092 2.63806C15.8808 2.89028 16.1684 3.24792 16.335 3.66496L10.5915 9.40921C10.1688 9.8302 9.59656 10.0666 9 10.0666C8.40344 10.0666 7.83118 9.8302 7.4085 9.40921L1.665 3.66496C1.83161 3.24792 2.11921 2.89028 2.49079 2.63806C2.86236 2.38585 3.30091 2.25059 3.75 2.24971V2.24971ZM14.25 15.7497H3.75C3.15326 15.7497 2.58097 15.5127 2.15901 15.0907C1.73705 14.6687 1.5 14.0964 1.5 13.4997V5.62471L6.348 10.4697C7.05197 11.1719 8.00569 11.5662 9 11.5662C9.99431 11.5662 10.948 11.1719 11.652 10.4697L16.5 5.62471V13.4997C16.5 14.0964 16.2629 14.6687 15.841 15.0907C15.419 15.5127 14.8467 15.7497 14.25 15.7497Z" fill="#357CDB"/>
</svg>
