<svg width="61" height="60" viewBox="0 0 61 60" fill="none" xmlns="http://www.w3.org/2000/svg">
<g clip-path="url(#clip0_2002_267)">
<path d="M59.4971 1.9998H33.4997C33.0469 1.99992 32.6507 2.30427 32.5338 2.74173L26.5004 25.3675V0.9999C26.5004 0.447705 26.0527 0 25.5005 0H21.5009C20.9487 0 20.501 0.447705 20.501 0.9999V1.9998H5.50249C4.9503 1.9998 4.50259 2.44751 4.50259 2.9997V29.997H1.50289C0.950696 29.997 0.502991 30.4447 0.502991 30.9969V34.9965C0.502991 35.5487 0.950696 35.9964 1.50289 35.9964H20.501V54.9945C20.501 55.5467 20.9487 55.9944 21.5009 55.9944H26.6004C27.1498 58.7004 29.7888 60.4485 32.4948 59.899C34.4622 59.4995 35.9999 57.9618 36.3994 55.9944H46.5984C47.1478 58.7004 49.7868 60.4485 52.4928 59.899C54.4602 59.4995 55.9979 57.9618 56.3974 55.9944H59.4971C60.0493 55.9944 60.497 55.5467 60.497 54.9945V2.9997C60.497 2.44751 60.0493 1.9998 59.4971 1.9998ZM12.5018 3.9996H14.5016V8.38116L13.9486 8.10419C13.6673 7.96358 13.3361 7.96358 13.0547 8.10419L12.5018 8.38116V3.9996ZM20.501 33.9966H2.50279V31.9968H20.501V33.9966ZM20.501 29.997H6.50239V17.9982H10.502V23.9976C10.5017 24.5498 10.9492 24.9977 11.5014 24.998C11.6567 24.9981 11.8099 24.962 11.9488 24.8925L13.5017 24.1156L15.0545 24.8925C15.5485 25.1394 16.1491 24.939 16.3959 24.4451C16.4653 24.3061 16.5014 24.153 16.5014 23.9976V17.9982H20.501V29.997ZM12.5018 22.3798V17.9982H14.5016V22.3798L13.9486 22.1028C13.6673 21.9622 13.3361 21.9622 13.0547 22.1028L12.5018 22.3798ZM20.501 15.9984H6.50239V3.9996H10.502V9.999C10.5017 10.5512 10.9492 10.9991 11.5014 10.9994C11.6567 10.9995 11.8099 10.9634 11.9488 10.8939L13.5017 10.117L15.0545 10.8939C15.5485 11.1408 16.1491 10.9404 16.3959 10.4465C16.4653 10.3075 16.5014 10.1544 16.5014 9.999V3.9996H20.501V15.9984ZM31.4999 57.9942C30.229 57.9927 29.0965 57.192 28.6712 55.9944H34.3286C33.9033 57.192 32.7708 57.9927 31.4999 57.9942ZM51.4979 57.9942C50.227 57.9927 49.0945 57.192 48.6692 55.9944H54.3266C53.9013 57.192 52.7688 57.9927 51.4979 57.9942ZM58.4972 53.9946H22.5008V1.9998H24.5006V48.9951C24.5006 49.5473 24.9483 49.995 25.5005 49.995H58.4972V53.9946ZM58.4972 47.9952H26.5004V33.1277L34.2686 3.9996H58.4972V47.9952Z" fill="#357CDB"/>
<path d="M31.2582 27.9676C31.3373 27.9873 31.4184 27.9973 31.4999 27.9973H55.4975C56.0497 27.9973 56.4974 27.5496 56.4974 26.9974V6.99941C56.4974 6.44722 56.0497 5.99951 55.4975 5.99951H36.4994C36.0404 5.99964 35.6406 6.31211 35.5295 6.75744L30.53 26.7554C30.3964 27.2913 30.7223 27.834 31.2582 27.9676ZM37.2803 7.99931H54.4976V25.9975H36.9763L38.0762 23.2448L40.176 23.9447L40.808 22.0449L34.8086 20.0451L34.1766 21.9449L36.1704 22.6098L34.8226 25.9975H32.7808L37.2803 7.99931Z" fill="#357CDB"/>
<path d="M55.4975 29.9971H48.4982V31.9969H55.4975V29.9971Z" fill="#357CDB"/>
</g>
<defs>
<clipPath id="clip0_2002_267">
<rect width="60" height="60" fill="white" transform="translate(0.5)"/>
</clipPath>
</defs>
</svg>
