<svg width="60" height="60" viewBox="0 0 60 60" fill="none" xmlns="http://www.w3.org/2000/svg">
<path d="M14.0625 16.875C13.8139 16.875 13.5754 16.9738 13.3996 17.1496C13.2238 17.3254 13.125 17.5639 13.125 17.8125V20.625C13.125 22.6141 13.9152 24.5218 15.3217 25.9283C16.7282 27.3348 18.6359 28.125 20.625 28.125C22.6141 28.125 24.5218 27.3348 25.9283 25.9283C27.3348 24.5218 28.125 22.6141 28.125 20.625V17.8125C28.125 17.5639 28.0262 17.3254 27.8504 17.1496C27.6746 16.9738 27.4361 16.875 27.1875 16.875C26.9389 16.875 26.7004 16.9738 26.5246 17.1496C26.3488 17.3254 26.25 17.5639 26.25 17.8125V20.625C26.25 22.1168 25.6574 23.5476 24.6025 24.6025C23.5476 25.6574 22.1168 26.25 20.625 26.25C19.1332 26.25 17.7024 25.6574 16.6475 24.6025C15.5926 23.5476 15 22.1168 15 20.625V17.8125C15 17.5639 14.9012 17.3254 14.7254 17.1496C14.5496 16.9738 14.3111 16.875 14.0625 16.875Z" fill="#357CDB"/>
<path d="M10.3125 15H27.1875C27.4361 15 27.6746 14.9012 27.8504 14.7254C28.0262 14.5496 28.125 14.3111 28.125 14.0625V8.4375C28.1235 7.19475 27.6292 6.00334 26.7504 5.12458C25.8717 4.24583 24.6802 3.75149 23.4375 3.75H17.8125C16.5698 3.75149 15.3783 4.24583 14.4996 5.12458C13.6208 6.00334 13.1265 7.19475 13.125 8.4375V13.125H10.3125C10.0639 13.125 9.8254 13.2238 9.64959 13.3996C9.47377 13.5754 9.375 13.8139 9.375 14.0625C9.375 14.3111 9.47377 14.5496 9.64959 14.7254C9.8254 14.9012 10.0639 15 10.3125 15ZM15 8.4375C15 7.69158 15.2963 6.97621 15.8238 6.44876C16.3512 5.92132 17.0666 5.625 17.8125 5.625H23.4375C24.1834 5.625 24.8988 5.92132 25.4262 6.44876C25.9537 6.97621 26.25 7.69158 26.25 8.4375V13.125H15V8.4375Z" fill="#357CDB"/>
<path d="M44.5312 41.2008C43.2891 40.485 42.2501 39.4642 41.5126 38.2349C40.775 37.0056 40.3633 35.6085 40.3164 34.1757C40.2694 32.7429 40.5889 31.3218 41.2444 30.0468C41.8999 28.7719 42.8698 27.6853 44.0625 26.8898V29.9995C44.0625 30.2482 44.1612 30.4866 44.3371 30.6624C44.5129 30.8382 44.7513 30.937 45 30.937C45.2486 30.937 45.4871 30.8382 45.6629 30.6624C45.8387 30.4866 45.9375 30.2482 45.9375 29.9995V25.312C45.9374 25.1564 45.8986 25.0032 45.8245 24.8664C45.7505 24.7295 45.6435 24.6132 45.5133 24.528C45.383 24.4428 45.2336 24.3913 45.0786 24.3783C44.9235 24.3653 44.7676 24.391 44.625 24.4533C42.919 25.1965 41.4463 26.3878 40.363 27.9008C39.2798 29.4138 38.6266 31.192 38.4728 33.0464C38.3189 34.9008 38.6702 36.7623 39.4894 38.4331C40.3085 40.1039 41.5648 41.5216 43.125 42.5358V59.062C43.125 59.3107 43.2237 59.5491 43.3996 59.7249C43.5754 59.9007 43.8138 59.9995 44.0625 59.9995C44.3111 59.9995 44.5496 59.9007 44.7254 59.7249C44.9012 59.5491 45 59.3107 45 59.062V42.0117C44.9998 41.8473 44.9564 41.6858 44.8741 41.5435C44.7919 41.4012 44.6736 41.283 44.5312 41.2008Z" fill="#357CDB"/>
<path d="M52.8749 24.4533C52.7323 24.391 52.5764 24.3653 52.4213 24.3783C52.2663 24.3913 52.1169 24.4428 51.9867 24.528C51.8564 24.6132 51.7495 24.7295 51.6754 24.8664C51.6013 25.0032 51.5625 25.1564 51.5624 25.312V33.322L48.7499 34.7283L45.419 33.0633C45.3088 33.0071 45.1885 32.9733 45.0651 32.9638C44.9418 32.9544 44.8177 32.9694 44.7002 33.0081C44.5827 33.0468 44.474 33.1084 44.3804 33.1893C44.2868 33.2702 44.2101 33.3688 44.1548 33.4795C44.0995 33.5902 44.0666 33.7107 44.0581 33.8342C44.0496 33.9576 44.0656 34.0815 44.1052 34.1987C44.1449 34.3159 44.2073 34.4242 44.2889 34.5171C44.3705 34.6101 44.4698 34.686 44.5809 34.7405L48.3309 36.6155C48.461 36.6805 48.6045 36.7143 48.7499 36.7143C48.8954 36.7143 49.0389 36.6805 49.169 36.6155L52.919 34.7405C53.0756 34.6622 53.2071 34.5417 53.2987 34.3926C53.3903 34.2435 53.4384 34.0717 53.4374 33.8967V26.8898C54.6301 27.6853 55.6 28.7719 56.2555 30.0468C56.9111 31.3218 57.2305 32.7429 57.1835 34.1757C57.1366 35.6085 56.7249 37.0056 55.9873 38.2349C55.2498 39.4642 54.2108 40.485 52.9687 41.2008C52.8263 41.283 52.7081 41.4012 52.6258 41.5435C52.5435 41.6858 52.5001 41.8473 52.4999 42.0117V45.937C52.4999 46.1857 52.5987 46.4241 52.7745 46.5999C52.9503 46.7757 53.1888 46.8745 53.4374 46.8745C53.6861 46.8745 53.9245 46.7757 54.1004 46.5999C54.2762 46.4241 54.3749 46.1857 54.3749 45.937V42.5358C55.9351 41.5216 57.1914 40.1039 58.0106 38.4331C58.8297 36.7623 59.181 34.9008 59.0271 33.0464C58.8733 31.192 58.2201 29.4138 57.1369 27.9008C56.0537 26.3878 54.5809 25.1965 52.8749 24.4533Z" fill="#357CDB"/>
<path d="M53.4375 48.75C53.1889 48.75 52.9504 48.8488 52.7746 49.0246C52.5988 49.2004 52.5 49.4389 52.5 49.6875V59.0625C52.5 59.3111 52.5988 59.5496 52.7746 59.7254C52.9504 59.9012 53.1889 60 53.4375 60C53.6861 60 53.9246 59.9012 54.1004 59.7254C54.2762 59.5496 54.375 59.3111 54.375 59.0625V49.6875C54.375 49.4389 54.2762 49.2004 54.1004 49.0246C53.9246 48.8488 53.6861 48.75 53.4375 48.75Z" fill="#357CDB"/>
<path d="M48.75 7.5C48.0083 7.5 47.2833 7.71993 46.6666 8.13199C46.0499 8.54404 45.5693 9.12971 45.2855 9.81494C45.0016 10.5002 44.9274 11.2542 45.0721 11.9816C45.2168 12.709 45.5739 13.3772 46.0984 13.9017C46.6228 14.4261 47.291 14.7833 48.0184 14.9279C48.7458 15.0726 49.4998 14.9984 50.1851 14.7145C50.8703 14.4307 51.456 13.9501 51.868 13.3334C52.2801 12.7167 52.5 11.9917 52.5 11.25C52.5 10.2554 52.1049 9.30161 51.4017 8.59835C50.6984 7.89509 49.7446 7.5 48.75 7.5ZM48.75 13.125C48.3792 13.125 48.0166 13.015 47.7083 12.809C47.4 12.603 47.1596 12.3101 47.0177 11.9675C46.8758 11.6249 46.8387 11.2479 46.911 10.8842C46.9834 10.5205 47.162 10.1864 47.4242 9.92418C47.6864 9.66195 48.0205 9.48337 48.3842 9.41103C48.7479 9.33868 49.1249 9.37581 49.4675 9.51773C49.8101 9.65964 50.103 9.89996 50.309 10.2083C50.515 10.5166 50.625 10.8792 50.625 11.25C50.625 11.7473 50.4275 12.2242 50.0758 12.5758C49.7242 12.9275 49.2473 13.125 48.75 13.125Z" fill="#357CDB"/>
<path d="M41.0006 14.5809L39.3938 16.6434C39.2531 16.8237 39.1831 17.0492 39.1971 17.2775C39.2111 17.5058 39.308 17.721 39.4697 17.8828L42.1209 20.5312C42.2978 20.702 42.5346 20.7965 42.7804 20.7944C43.0262 20.7922 43.2613 20.6936 43.4351 20.5198C43.609 20.346 43.7076 20.1109 43.7097 19.8651C43.7118 19.6193 43.6173 19.3824 43.4466 19.2056L41.3841 17.1431L42.8344 15.2812C42.945 15.1397 43.0126 14.9695 43.0292 14.7906C43.0459 14.6118 43.0108 14.432 42.9281 14.2725C42.7538 13.9393 42.6083 13.5918 42.4931 13.2337C42.4388 13.0627 42.3365 12.9108 42.1984 12.7961C42.0603 12.6814 41.8922 12.6088 41.7141 12.5869L39.375 12.2953V10.2047L41.7141 9.91594C41.8922 9.89401 42.0603 9.8214 42.1984 9.70673C42.3365 9.59206 42.4388 9.44015 42.4931 9.26906C42.6083 8.91105 42.7538 8.56354 42.9281 8.23031C43.0108 8.07085 43.0459 7.89101 43.0292 7.71218C43.0126 7.53335 42.945 7.36306 42.8344 7.22156L41.3822 5.36062L42.8606 3.88219L44.7188 5.33437C44.8599 5.44563 45.0303 5.51367 45.2093 5.53031C45.3883 5.54694 45.5682 5.51145 45.7275 5.42812C46.0607 5.2538 46.4082 5.10827 46.7662 4.99312C46.9373 4.93882 47.0892 4.83654 47.2039 4.69844C47.3186 4.56034 47.3912 4.39222 47.4131 4.21406L47.7047 1.875H49.7953L50.0841 4.21875C50.1216 4.45921 50.2512 4.67566 50.4454 4.82233C50.6396 4.969 50.8832 5.03439 51.1248 5.00468C51.3663 4.97498 51.5869 4.8525 51.7398 4.66314C51.8927 4.47378 51.9659 4.23239 51.9441 3.99L51.555 0.823125C51.5271 0.596086 51.4171 0.387084 51.2458 0.235478C51.0746 0.083871 50.8537 0.000121263 50.625 0L46.875 0C46.6463 0.000121263 46.4254 0.083871 46.2542 0.235478C46.0829 0.387084 45.9729 0.596086 45.945 0.823125L45.6253 3.41437C45.5569 3.44156 45.4884 3.47062 45.4191 3.50062L43.3566 1.89375C43.1763 1.75307 42.9508 1.68313 42.7225 1.69712C42.4942 1.71111 42.279 1.80804 42.1172 1.96969L39.4687 4.62094C39.3071 4.78271 39.2102 4.99799 39.1962 5.22625C39.1822 5.45451 39.2521 5.68002 39.3928 5.86031L40.9997 7.92281C40.9697 7.99219 40.9406 8.06062 40.9134 8.12906L38.3222 8.44875C38.096 8.47679 37.8877 8.58629 37.7364 8.75677C37.585 8.92726 37.501 9.14704 37.5 9.375V13.125C37.5001 13.3537 37.5839 13.5746 37.7355 13.7458C37.8871 13.9171 38.0961 14.0271 38.3231 14.055L40.9144 14.3747C40.9416 14.4431 40.9688 14.5116 41.0006 14.5809Z" fill="#357CDB"/>
<path d="M59.1768 8.44508L56.5856 8.12539C56.5584 8.05695 56.5293 7.98851 56.4993 7.91914L58.1062 5.85664C58.246 5.67673 58.3155 5.45209 58.3017 5.22469C58.2879 4.99729 58.1917 4.78269 58.0312 4.62101L55.379 1.96882C55.2925 1.87928 55.1891 1.80786 55.0747 1.75873C54.9603 1.7096 54.8373 1.68373 54.7128 1.68265C54.5884 1.68157 54.4649 1.70529 54.3497 1.75243C54.2345 1.79957 54.1298 1.86918 54.0418 1.9572C53.9538 2.04523 53.8841 2.1499 53.837 2.26512C53.7899 2.38033 53.7662 2.50378 53.7672 2.62826C53.7683 2.75274 53.7942 2.87576 53.8433 2.99014C53.8924 3.10452 53.9639 3.20797 54.0534 3.29445L56.1159 5.35695L54.6656 7.21882C54.555 7.36032 54.4873 7.53062 54.4707 7.70945C54.4541 7.88828 54.4892 8.06812 54.5718 8.22758C54.7462 8.5608 54.8917 8.90832 55.0068 9.26632C55.0611 9.43742 55.1634 9.58932 55.3015 9.70399C55.4396 9.81866 55.6077 9.89127 55.7859 9.9132L58.125 10.2048V12.2954L55.7859 12.5841C55.6077 12.6061 55.4396 12.6787 55.3015 12.7933C55.1634 12.908 55.0611 13.0599 55.0068 13.231C54.8917 13.589 54.7462 13.9365 54.5718 14.2698C54.4892 14.4292 54.4541 14.6091 54.4707 14.7879C54.4873 14.9667 54.555 15.137 54.6656 15.2785L56.1178 17.1394L54.6393 18.6179L52.7812 17.1657C52.6397 17.0551 52.4694 16.9875 52.2906 16.9708C52.1118 16.9542 51.9319 16.9893 51.7725 17.0719C51.4392 17.2463 51.0917 17.3918 50.7337 17.5069C50.5626 17.5613 50.4107 17.6635 50.2961 17.8016C50.1814 17.9397 50.1088 18.1079 50.0868 18.286L49.7953 20.6251H47.7047L47.4159 18.2813C47.4024 18.1586 47.3644 18.0398 47.3043 17.9319C47.2441 17.8241 47.163 17.7293 47.0657 17.6533C46.9684 17.5773 46.8568 17.5215 46.7376 17.4893C46.6184 17.4571 46.4939 17.4491 46.3715 17.4657C46.1249 17.4962 45.9005 17.6233 45.7476 17.8191C45.5946 18.0149 45.5257 18.2634 45.5559 18.5101L45.945 21.6723C45.9718 21.9002 46.0813 22.1103 46.2527 22.2628C46.4241 22.4154 46.6455 22.4998 46.875 22.5001H50.625C50.8537 22.5 51.0745 22.4162 51.2458 22.2646C51.4171 22.113 51.5271 21.904 51.555 21.6769L51.8747 19.0857C51.9431 19.0585 52.0115 19.0294 52.0809 18.9995L54.1434 20.6063C54.3237 20.747 54.5492 20.8169 54.7775 20.803C55.0057 20.789 55.221 20.692 55.3828 20.5304L58.0312 17.8791C58.1929 17.7174 58.2898 17.5021 58.3038 17.2738C58.3178 17.0456 58.2478 16.8201 58.1072 16.6398L56.5003 14.5773C56.5303 14.5079 56.5593 14.4395 56.5865 14.371L59.1778 14.0513C59.404 14.0233 59.6123 13.9138 59.7636 13.7433C59.9149 13.5728 59.999 13.353 60 13.1251V9.37507C59.9998 9.14633 59.9161 8.92552 59.7645 8.75423C59.6129 8.58293 59.4039 8.47298 59.1768 8.44508Z" fill="#357CDB"/>
<path d="M28.125 30H23.4375C23.2524 30.0003 23.0714 30.0551 22.9172 30.1575L20.625 31.6875L18.3328 30.1594C18.1788 30.0563 17.9978 30.0008 17.8125 30H13.0828C11.5064 30.003 9.98366 30.5729 8.79262 31.6056C7.60157 32.6383 6.82167 34.0649 6.59531 35.625H5.58469C4.84969 35.6257 4.145 35.9181 3.62528 36.4378C3.10555 36.9575 2.81324 37.6622 2.8125 38.3972V52.5H0.9375C0.68886 52.5 0.450403 52.5988 0.274587 52.7746C0.0987721 52.9504 0 53.1889 0 53.4375L0 55.3125C0 56.0584 0.296316 56.7738 0.823762 57.3012C1.35121 57.8287 2.06658 58.125 2.8125 58.125H9.5475C9.7407 58.6715 10.098 59.1449 10.5706 59.4805C11.0432 59.8162 11.6079 59.9976 12.1875 60H15.9375C16.5171 59.9976 17.0818 59.8162 17.5544 59.4805C18.027 59.1449 18.3843 58.6715 18.5775 58.125H25.3125C26.0584 58.125 26.7738 57.8287 27.3012 57.3012C27.8287 56.7738 28.125 56.0584 28.125 55.3125V53.4375C28.125 53.1889 28.0262 52.9504 27.8504 52.7746C27.6746 52.5988 27.4361 52.5 27.1875 52.5H21.5625C21.3139 52.5 21.0754 52.5988 20.8996 52.7746C20.7238 52.9504 20.625 53.1889 20.625 53.4375C20.625 53.6861 20.7238 53.9246 20.8996 54.1004C21.0754 54.2762 21.3139 54.375 21.5625 54.375H26.25V55.3125C26.25 55.5611 26.1512 55.7996 25.9754 55.9754C25.7996 56.1512 25.5611 56.25 25.3125 56.25H18.75V55.3125C18.7532 54.3301 18.4467 53.3717 17.8739 52.5735C17.3011 51.7754 16.4913 51.1781 15.5596 50.8666C14.6279 50.5551 13.6217 50.5453 12.684 50.8386C11.7464 51.1318 10.9251 51.7132 10.3369 52.5H4.6875V38.3972C4.688 38.1594 4.78268 37.9315 4.95083 37.7633C5.11898 37.5952 5.34689 37.5005 5.58469 37.5H22.5C22.7486 37.5 22.9871 37.5988 23.1629 37.7746C23.3387 37.9504 23.4375 38.1889 23.4375 38.4375V49.6875C23.4375 49.9361 23.5363 50.1746 23.7121 50.3504C23.8879 50.5262 24.1264 50.625 24.375 50.625C24.6236 50.625 24.8621 50.5262 25.0379 50.3504C25.2137 50.1746 25.3125 49.9361 25.3125 49.6875V38.4375C25.311 37.692 25.0142 36.9775 24.4871 36.4504C23.96 35.9233 23.2455 35.6265 22.5 35.625H8.49C8.70759 34.5669 9.28329 33.6163 10.1201 32.9332C10.9569 32.2501 12.0036 31.8764 13.0838 31.875H17.5312L20.1075 33.5925C20.2616 33.6953 20.4426 33.7501 20.6278 33.7501C20.813 33.7501 20.9941 33.6953 21.1481 33.5925L23.7188 31.875H28.125C29.3677 31.8765 30.5592 32.3708 31.4379 33.2496C32.3167 34.1283 32.811 35.3198 32.8125 36.5625V59.0625C32.8125 59.3111 32.9113 59.5496 33.0871 59.7254C33.2629 59.9012 33.5014 60 33.75 60C33.9986 60 34.2371 59.9012 34.4129 59.7254C34.5887 59.5496 34.6875 59.3111 34.6875 59.0625V36.5625C34.6853 34.8227 33.9931 33.1548 32.7629 31.9246C31.5327 30.6944 29.8648 30.0022 28.125 30ZM14.0625 52.5C14.8084 52.5 15.5238 52.7963 16.0512 53.3238C16.5787 53.8512 16.875 54.5666 16.875 55.3125V57.1875C16.875 57.4361 16.7762 57.6746 16.6004 57.8504C16.4246 58.0262 16.1861 58.125 15.9375 58.125H12.1875C11.9389 58.125 11.7004 58.0262 11.5246 57.8504C11.3488 57.6746 11.25 57.4361 11.25 57.1875V55.3125C11.25 54.5666 11.5463 53.8512 12.0738 53.3238C12.6012 52.7963 13.3166 52.5 14.0625 52.5ZM9.375 55.3125V56.25H2.8125C2.56386 56.25 2.3254 56.1512 2.14959 55.9754C1.97377 55.7996 1.875 55.5611 1.875 55.3125V54.375H9.46875C9.40609 54.6836 9.37469 54.9976 9.375 55.3125Z" fill="#357CDB"/>
</svg>
