<svg width="58" height="58" viewBox="0 0 58 58" fill="none" xmlns="http://www.w3.org/2000/svg">
<path d="M26.1875 30.4866L21.2253 25.5244L19.8997 26.85L25.5247 32.475C25.7005 32.6508 25.9389 32.7495 26.1875 32.7495C26.4361 32.7495 26.6745 32.6508 26.8503 32.475L38.1003 21.225L36.7747 19.8994L26.1875 30.4866Z" fill="#357CDB"/>
<path d="M51.8881 44.9375L56.8503 39.9753C56.9814 39.8442 57.0706 39.6772 57.1068 39.4953C57.1429 39.3135 57.1244 39.125 57.0534 38.9538C56.9825 38.7825 56.8624 38.6361 56.7082 38.5331C56.5541 38.43 56.3729 38.375 56.1875 38.375H46.7909C50.4442 32.112 52.3911 25.0005 52.4375 17.75V12.125C52.4375 11.9383 52.3817 11.7558 52.2773 11.6009C52.1729 11.4461 52.0247 11.326 51.8515 11.2559C49.821 10.3696 48.0149 9.03959 46.5659 7.36352C45.117 5.68745 44.0621 3.70799 43.4787 1.57063C43.4255 1.37113 43.3078 1.1948 43.1441 1.06901C42.9803 0.943231 42.7796 0.87503 42.5731 0.875H15.4269C15.2204 0.87503 15.0197 0.943231 14.8559 1.06901C14.6922 1.1948 14.5745 1.37113 14.5212 1.57063C13.9379 3.70799 12.883 5.68745 11.434 7.36352C9.98509 9.03959 8.17897 10.3696 6.14842 11.2559C5.97531 11.326 5.82705 11.4461 5.72266 11.6009C5.61826 11.7558 5.56249 11.9383 5.56248 12.125V17.75C5.60886 25.0005 7.55581 32.112 11.209 38.375H1.81248C1.62709 38.375 1.44588 38.43 1.29174 38.5331C1.13761 38.6361 1.01748 38.7825 0.946535 38.9538C0.875595 39.125 0.857029 39.3135 0.893186 39.4953C0.929343 39.6772 1.0186 39.8442 1.14967 39.9753L6.11186 44.9375L1.14967 49.8997C1.0186 50.0308 0.929343 50.1978 0.893186 50.3797C0.857029 50.5615 0.875595 50.75 0.946535 50.9212C1.01748 51.0925 1.13761 51.2389 1.29174 51.3419C1.44588 51.445 1.62709 51.5 1.81248 51.5H21.6819C23.796 53.5177 26.0779 55.3518 28.5031 56.9825C28.6521 57.0756 28.8243 57.125 29 57.125C29.1757 57.125 29.3479 57.0756 29.4969 56.9825C31.922 55.3518 34.204 53.5177 36.3181 51.5H56.1875C56.3729 51.5 56.5541 51.445 56.7082 51.3419C56.8624 51.2389 56.9825 51.0925 57.0534 50.9212C57.1244 50.75 57.1429 50.5615 57.1068 50.3797C57.0706 50.1978 56.9814 50.0308 56.8503 49.8997L51.8881 44.9375ZM8.1003 45.6003C8.27605 45.4245 8.37478 45.1861 8.37478 44.9375C8.37478 44.6889 8.27605 44.4505 8.1003 44.2747L4.07561 40.25H12.3256C14.465 43.6301 16.9581 46.7728 19.7628 49.625H4.07561L8.1003 45.6003ZM29 55.0625C25.7253 52.8209 7.43748 39.3312 7.43748 17.75V12.74C9.48548 11.7477 11.3114 10.351 12.8051 8.63405C14.2989 6.91714 15.4296 4.91559 16.129 2.75H41.8709C42.5704 4.91559 43.7011 6.91714 45.1948 8.63405C46.6886 10.351 48.5145 11.7477 50.5625 12.74V17.75C50.5625 39.305 32.2737 52.8125 29 55.0625ZM38.2334 49.625C41.0381 46.7728 43.5312 43.6301 45.6706 40.25H53.9206L49.8959 44.2747C49.7202 44.4505 49.6214 44.6889 49.6214 44.9375C49.6214 45.1861 49.7202 45.4245 49.8959 45.6003L53.9244 49.625H38.2334Z" fill="#357CDB"/>
<path d="M44.9375 26.1875C44.9375 23.0354 44.0028 19.954 42.2516 17.3331C40.5003 14.7122 38.0112 12.6694 35.099 11.4632C32.1868 10.2569 28.9823 9.94129 25.8908 10.5562C22.7992 11.1712 19.9594 12.6891 17.7305 14.918C15.5016 17.1469 13.9837 19.9867 13.3687 23.0783C12.7538 26.1698 13.0694 29.3743 14.2757 32.2865C15.4819 35.1987 17.5247 37.6878 20.1456 39.4391C22.7665 41.1903 25.8479 42.125 29 42.125C33.2254 42.1203 37.2765 40.4397 40.2643 37.4518C43.2522 34.464 44.9328 30.4129 44.9375 26.1875ZM29 40.25C26.2187 40.25 23.4999 39.4253 21.1873 37.8801C18.8747 36.3348 17.0723 34.1386 16.008 31.569C14.9436 28.9994 14.6651 26.1719 15.2077 23.444C15.7503 20.7162 17.0896 18.2105 19.0563 16.2438C21.023 14.2771 23.5287 12.9378 26.2565 12.3952C28.9844 11.8526 31.8119 12.1311 34.3815 13.1955C36.9511 14.2598 39.1473 16.0622 40.6926 18.3748C42.2378 20.6874 43.0625 23.4062 43.0625 26.1875C43.0583 29.9158 41.5754 33.4902 38.939 36.1265C36.3027 38.7629 32.7283 40.2458 29 40.25Z" fill="#357CDB"/>
</svg>
