<svg width="60" height="60" viewBox="0 0 60 60" fill="none" xmlns="http://www.w3.org/2000/svg">
<g clip-path="url(#clip0_2002_1294)">
<path d="M17.8512 59.1197L53.4387 59.1209C56.577 59.1209 59.1211 56.5768 59.1211 53.4385" stroke="#357CDB" stroke-width="2" stroke-miterlimit="10" stroke-linecap="round" stroke-linejoin="round"/>
<path d="M0.878906 24.6689V57.6982C0.878906 58.4834 1.51523 59.1186 2.29922 59.1186H13.7379" stroke="#357CDB" stroke-width="2" stroke-miterlimit="10" stroke-linecap="round" stroke-linejoin="round"/>
<path d="M0.878906 20.5558V9.63857C0.878906 8.85459 1.51523 8.21826 2.29922 8.21826H38.9789" stroke="#357CDB" stroke-width="2" stroke-miterlimit="10" stroke-linecap="round" stroke-linejoin="round"/>
<path d="M49.4215 8.21826H43.0922" stroke="#357CDB" stroke-width="2" stroke-miterlimit="10" stroke-linecap="round" stroke-linejoin="round"/>
<path d="M30.5263 30.5738L27.4104 28.0613C27.5317 27.4452 27.596 26.8088 27.596 26.1571C27.596 25.5054 27.5318 24.869 27.4104 24.2529L30.5263 21.7404C30.9437 21.4037 31.0539 20.8132 30.7857 20.3488L29.3227 17.8146C29.0545 17.3502 28.488 17.1503 27.9878 17.3435L24.2522 18.7863C23.2986 17.9509 22.1818 17.2972 20.9556 16.8802L20.3379 12.9269C20.2552 12.3969 19.7987 12.0063 19.2625 12.0063H16.3363C15.8 12.0063 15.3436 12.3969 15.2609 12.9269L14.6432 16.8802C13.4169 17.2972 12.3001 17.9509 11.3466 18.7863L7.61097 17.3435C7.1107 17.1503 6.54422 17.3502 6.27609 17.8146L4.81289 20.3489C4.54476 20.8133 4.6548 21.404 5.07234 21.7405L8.18824 24.253C8.06683 24.8691 8.00261 25.5055 8.00261 26.1572C8.00261 26.8089 8.06683 27.4453 8.18824 28.0614L5.07234 30.5739C4.65492 30.9106 4.54476 31.5011 4.81289 31.9655L6.27597 34.4997C6.5441 34.9641 7.11058 35.164 7.61086 34.9708L11.3464 33.5279C12.3 34.3634 13.4168 35.017 14.643 35.4341L15.2607 39.3874C15.3435 39.9174 15.7999 40.3079 16.3362 40.3079H19.2623C19.7986 40.3079 20.255 39.9174 20.3378 39.3874L20.9555 35.4341C22.1817 35.017 23.2985 34.3634 24.2521 33.5279L27.9877 34.9708C28.4879 35.164 29.0544 34.9641 29.3225 34.4997L30.7856 31.9655C31.0537 31.501 30.9437 30.9104 30.5263 30.5738ZM17.7993 30.489C15.4069 30.489 13.4674 28.5496 13.4674 26.1572C13.4674 23.7648 15.4069 21.8254 17.7993 21.8254C20.1916 21.8254 22.1311 23.7648 22.1311 26.1572C22.1311 28.5496 20.1918 30.489 17.7993 30.489Z" stroke="#357CDB" stroke-width="2" stroke-miterlimit="10" stroke-linecap="round" stroke-linejoin="round"/>
<path d="M7.50809 47.7656H5.61411C5.0911 47.7656 4.66711 47.3416 4.66711 46.8186V44.9245C4.66711 44.4015 5.0911 43.9775 5.61411 43.9775H7.50821C8.03122 43.9775 8.4552 44.4015 8.4552 44.9245V46.8186C8.45508 47.3416 8.0311 47.7656 7.50809 47.7656Z" stroke="#357CDB" stroke-width="2" stroke-miterlimit="10" stroke-linecap="round" stroke-linejoin="round"/>
<path d="M12.2433 43.9775H26.3927" stroke="#357CDB" stroke-width="2" stroke-miterlimit="10" stroke-linecap="round" stroke-linejoin="round"/>
<path d="M20.9278 47.7656H12.2433" stroke="#357CDB" stroke-width="2" stroke-miterlimit="10" stroke-linecap="round" stroke-linejoin="round"/>
<path d="M7.50809 55.333H5.61411C5.0911 55.333 4.66711 54.909 4.66711 54.386V52.4919C4.66711 51.9689 5.0911 51.5449 5.61411 51.5449H7.50821C8.03122 51.5449 8.4552 51.9689 8.4552 52.4919V54.386C8.45508 54.909 8.0311 55.333 7.50809 55.333Z" stroke="#357CDB" stroke-width="2" stroke-miterlimit="10" stroke-linecap="round" stroke-linejoin="round"/>
<path d="M12.2433 51.5449H26.3927" stroke="#357CDB" stroke-width="2" stroke-miterlimit="10" stroke-linecap="round" stroke-linejoin="round"/>
<path d="M20.9278 55.333H12.2433" stroke="#357CDB" stroke-width="2" stroke-miterlimit="10" stroke-linecap="round" stroke-linejoin="round"/>
<path d="M44.2124 19.5904H36.1402C35.3556 19.5904 34.7196 18.9545 34.7196 18.1699V13.4347C34.7196 12.6501 35.3556 12.0142 36.1402 12.0142H44.2124C44.9969 12.0142 45.6329 12.6501 45.6329 13.4347V18.1699C45.6329 18.9545 44.9969 19.5904 44.2124 19.5904Z" stroke="#357CDB" stroke-width="2" stroke-miterlimit="10" stroke-linecap="round" stroke-linejoin="round"/>
<path d="M44.2124 37.4619H36.1402C35.3556 37.4619 34.7196 36.8259 34.7196 36.0414V31.3063C34.7196 30.5217 35.3556 29.8857 36.1402 29.8857H44.2124C44.9969 29.8857 45.6329 30.5217 45.6329 31.3063V36.0414C45.6329 36.8259 44.9969 37.4619 44.2124 37.4619Z" stroke="#357CDB" stroke-width="2" stroke-miterlimit="10" stroke-linecap="round" stroke-linejoin="round"/>
<path d="M44.2124 55.3331H36.1402C35.3556 55.3331 34.7196 54.6972 34.7196 53.9126V49.1774C34.7196 48.3928 35.3556 47.7568 36.1402 47.7568H44.2124C44.9969 47.7568 45.6329 48.3928 45.6329 49.1774V53.9126C45.6329 54.6972 44.9969 55.3331 44.2124 55.3331Z" stroke="#357CDB" stroke-width="2" stroke-miterlimit="10" stroke-linecap="round" stroke-linejoin="round"/>
<path d="M42.5439 23.73L40.1764 26.0975L37.8087 23.73" stroke="#357CDB" stroke-width="2" stroke-miterlimit="10" stroke-linecap="round" stroke-linejoin="round"/>
<path d="M40.1764 26.0977V19.5908" stroke="#357CDB" stroke-width="2" stroke-miterlimit="10" stroke-linecap="round" stroke-linejoin="round"/>
<path d="M42.5439 41.6011L40.1764 43.9686L37.8087 41.6011" stroke="#357CDB" stroke-width="2" stroke-miterlimit="10" stroke-linecap="round" stroke-linejoin="round"/>
<path d="M40.1764 43.9687V37.4619" stroke="#357CDB" stroke-width="2" stroke-miterlimit="10" stroke-linecap="round" stroke-linejoin="round"/>
<path d="M59.1211 53.4389C59.1211 50.3008 56.5771 47.7567 53.4389 47.7567C52.8864 47.7567 52.3523 47.8356 51.8473 47.9827C50.634 48.336 49.421 47.4293 49.421 46.1657V3.42471C49.421 2.79682 49.7318 2.20924 50.2513 1.8565C51.1498 1.24654 52.2322 0.887247 53.3981 0.879044C56.5458 0.856895 59.121 3.51389 59.121 6.66154V53.4389H59.1211Z" stroke="#357CDB" stroke-width="2" stroke-miterlimit="10" stroke-linecap="round" stroke-linejoin="round"/>
</g>
<defs>
<clipPath id="clip0_2002_1294">
<rect width="60" height="60" fill="white"/>
</clipPath>
</defs>
</svg>
