<svg width="61" height="60" viewBox="0 0 61 60" fill="none" xmlns="http://www.w3.org/2000/svg">
<path d="M29.2665 9.26579H4.34867C3.87986 9.26579 3.5 8.88593 3.5 8.41712V4.28251C3.5 3.8137 3.87986 3.43384 4.34867 3.43384H29.2665C29.7352 3.43384 30.1152 3.8137 30.1152 4.28251V8.41714C30.1152 8.88593 29.7352 9.26579 29.2665 9.26579ZM5.19732 7.56845H28.4177V5.13116H5.19732V7.56845Z" fill="#357CDB"/>
<path d="M24.3051 45.3748H9.31013C8.84132 45.3748 8.46146 44.995 8.46146 44.5262V40.7225C8.46146 40.2536 8.84133 39.8738 9.31013 39.8738H24.3051C24.7739 39.8738 25.1537 40.2536 25.1537 40.7225V44.5262C25.1537 44.995 24.7739 45.3748 24.3051 45.3748ZM10.1588 43.6775H23.4564V41.5711H10.1588V43.6775Z" fill="#357CDB"/>
<path d="M24.3051 52.5415H9.31013C8.84132 52.5415 8.46146 52.1616 8.46146 51.6928V47.889C8.46146 47.4203 8.84133 47.0403 9.31013 47.0403H24.3051C24.7739 47.0403 25.1537 47.4203 25.1537 47.889V51.6928C25.1537 52.1616 24.7739 52.5415 24.3051 52.5415ZM10.1588 50.8441H23.4564V48.7376H10.1588V50.8441Z" fill="#357CDB"/>
<path d="M46.1083 56.566H35.9647C35.4959 56.566 35.116 56.1861 35.116 55.7173V47.889C35.116 47.4203 35.4959 47.0403 35.9647 47.0403H46.1083C46.577 47.0403 46.957 47.4203 46.957 47.889V55.7173C46.957 56.1861 46.577 56.566 46.1083 56.566ZM36.8133 54.8687H45.2596V48.7376H36.8133V54.8687Z" fill="#357CDB"/>
<path d="M56.6513 56.566H4.34867C3.87986 56.566 3.5 56.1861 3.5 55.7173C3.5 55.2485 3.87986 54.8687 4.34867 54.8687H56.6513C57.1201 54.8687 57.5 55.2485 57.5 55.7173C57.5 56.1861 57.1201 56.566 56.6513 56.566Z" fill="#357CDB"/>
<path d="M41.0365 56.566C40.5677 56.566 40.1878 56.1861 40.1878 55.7173V47.889C40.1878 47.4203 40.5677 47.0403 41.0365 47.0403C41.5052 47.0403 41.8851 47.4203 41.8851 47.889V55.7173C41.8851 56.1861 41.5052 56.566 41.0365 56.566Z" fill="#357CDB"/>
<path d="M22.9074 34.8612C19.9865 34.8612 17.2402 33.7242 15.1748 31.6581C13.1093 29.5929 11.9718 26.8466 11.9718 23.9259C11.9718 21.0046 13.1093 18.2584 15.1748 16.1931C17.2402 14.1271 19.9865 12.99 22.9074 12.99C25.8287 12.99 28.5749 14.1271 30.6403 16.1931C32.7059 18.2584 33.8433 21.0046 33.8433 23.9259C33.8433 26.8466 32.7059 29.5928 30.6403 31.6581C28.5749 33.7242 25.8287 34.8612 22.9074 34.8612ZM22.9074 14.6873C20.4396 14.6873 18.1197 15.648 16.375 17.3932C14.6302 19.1383 13.6692 21.4582 13.6692 23.9259C13.6692 26.3931 14.6302 28.7129 16.375 30.4581C18.1197 32.2031 20.4396 33.1639 22.9074 33.1639C25.3752 33.1639 27.6951 32.2031 29.4402 30.4581C31.1849 28.7129 32.146 26.3931 32.146 23.9259C32.146 21.4582 31.185 19.1383 29.4402 17.3932C27.6951 15.648 25.3752 14.6873 22.9074 14.6873Z" fill="#357CDB"/>
<path d="M22.9077 31.7914C20.8925 31.7914 18.8772 31.0243 17.3433 29.49C15.8568 28.0042 15.0383 26.0277 15.0383 23.9259C15.0383 21.8235 15.8568 19.847 17.3433 18.3612C20.4115 15.2921 25.4036 15.2933 28.4718 18.3612C31.5403 21.4297 31.5403 26.4216 28.4718 29.49C26.9379 31.0243 24.9227 31.7914 22.9077 31.7914ZM22.9077 17.7565C21.327 17.7565 19.7468 18.3579 18.5434 19.5612C17.3774 20.7268 16.7357 22.277 16.7357 23.9259C16.7357 25.5742 17.3774 27.1244 18.5434 28.29C20.9498 30.6967 24.8646 30.6967 27.2717 28.29C29.6782 25.8831 29.6782 21.968 27.2717 19.5612C26.0683 18.3579 24.4881 17.7565 22.9077 17.7565Z" fill="#357CDB"/>
<path d="M20.3524 27.3299C20.1353 27.3299 19.9181 27.247 19.7524 27.0812C19.4209 26.7497 19.4209 26.2127 19.7524 25.8812L24.8627 20.7706C25.1942 20.4391 25.7312 20.4391 26.0627 20.7706C26.3942 21.1021 26.3942 21.6391 26.0627 21.9707L20.9524 27.0812C20.7868 27.247 20.5696 27.3299 20.3524 27.3299Z" fill="#357CDB"/>
<path d="M41.0305 44.8816C40.3048 44.8816 39.5795 44.6052 39.0269 44.0528L30.3671 35.3925C30.0356 35.061 30.0356 34.5239 30.3671 34.1923L33.1743 31.3851C33.3335 31.226 33.5493 31.1365 33.7744 31.1365C33.9995 31.1365 34.2153 31.226 34.3744 31.3851L43.0342 40.0455C44.1388 41.1502 44.1388 42.9476 43.0345 44.0528C42.4822 44.6052 41.7562 44.8816 41.0305 44.8816ZM32.1672 34.7924L40.2269 42.8528C40.6705 43.2956 41.3912 43.2956 41.8341 42.8528C42.2767 42.4098 42.277 41.6885 41.8341 41.2457L33.7744 33.1852L32.1672 34.7924Z" fill="#357CDB"/>
<path d="M30.0753 36.5329C29.8502 36.5329 29.6344 36.4434 29.4753 36.2843L26.7605 33.5691C26.567 33.3755 26.4784 33.1004 26.5232 32.8305C26.5679 32.5607 26.7403 32.3286 26.9859 32.2073C27.9069 31.7545 28.7327 31.1657 29.4398 30.4583C30.1467 29.7521 30.7354 28.9261 31.1899 28.0037C31.3109 27.7584 31.5426 27.5861 31.8129 27.5416C32.0823 27.4999 32.3575 27.5854 32.5511 27.779L35.2659 30.494C35.5974 30.8256 35.5974 31.3627 35.2659 31.6942L30.6755 36.2843C30.5163 36.4434 30.3004 36.5329 30.0753 36.5329ZM28.7536 33.162L30.0753 34.4841L33.4657 31.0941L32.1437 29.7721C31.7114 30.4589 31.2081 31.0908 30.6406 31.6583C30.0721 32.2272 29.4401 32.7305 28.7536 33.162Z" fill="#357CDB"/>
<path d="M27.6125 56.5661H6.00257C5.53388 56.5661 5.1539 56.1863 5.1539 55.7174V8.41727C5.1539 7.94848 5.53388 7.5686 6.00257 7.5686H27.6125C28.0813 7.5686 28.4612 7.94848 28.4612 8.41727V12.04C28.4612 12.5088 28.0813 12.8887 27.6125 12.8887C27.1438 12.8887 26.7638 12.5088 26.7638 12.04V9.26594H6.85123V54.8688H26.7638V37.042C26.7638 36.5733 27.1438 36.1933 27.6125 36.1933C28.0813 36.1933 28.4612 36.5733 28.4612 37.042V55.7174C28.4612 56.1863 28.0813 56.5661 27.6125 56.5661Z" fill="#357CDB"/>
<path d="M12.9832 16.7083H9.31013C8.84132 16.7083 8.46146 16.3284 8.46146 15.8597V12.0559C8.46146 11.5871 8.84133 11.2073 9.31013 11.2073H18.1569C18.6256 11.2073 19.0056 11.5872 19.0056 12.0559C19.0056 12.5246 18.6256 12.9046 18.1569 12.9046H10.1588V15.011H12.9832C13.452 15.011 13.8319 15.391 13.8319 15.8597C13.8319 16.3284 13.452 16.7083 12.9832 16.7083Z" fill="#357CDB"/>
<path d="M10.1681 23.875H9.31013C8.84132 23.875 8.46146 23.4951 8.46146 23.0263V19.2224C8.46146 18.7538 8.84133 18.3738 9.31013 18.3738H11.0214C11.4902 18.3738 11.87 18.7538 11.87 19.2224C11.87 19.6913 11.4902 20.0712 11.0214 20.0712H10.1588L10.1681 22.1776C10.6368 22.1776 11.0168 22.5575 11.0168 23.0263C11.0168 23.4951 10.6368 23.875 10.1681 23.875Z" fill="#357CDB"/>
<path d="M11.7733 31.0417H9.31013C8.84132 31.0417 8.46146 30.6617 8.46146 30.193V26.3892C8.46146 25.9205 8.84133 25.5405 9.31013 25.5405H10.3637C10.8323 25.5405 11.2123 25.9205 11.2123 26.3892C11.2123 26.858 10.8323 27.2379 10.3637 27.2379H10.1588V29.3444H11.7733C12.242 29.3444 12.6219 29.7242 12.6219 30.193C12.6219 30.6617 12.242 31.0417 11.7733 31.0417Z" fill="#357CDB"/>
<path d="M24.3051 38.2084H9.31013C8.84132 38.2084 8.46146 37.8284 8.46146 37.3597V33.5559C8.46146 33.0871 8.84133 32.7073 9.31013 32.7073H14.5141C14.9829 32.7073 15.3628 33.0871 15.3628 33.5559C15.3628 34.0247 14.9829 34.4046 14.5141 34.4046H10.1588V36.511H23.4636C23.5178 36.0947 23.8737 35.7731 24.3051 35.7731C24.7739 35.7731 25.1537 36.153 25.1537 36.6218V37.3597C25.1537 37.8284 24.7739 38.2084 24.3051 38.2084Z" fill="#357CDB"/>
<path d="M56.6513 31.0417H37.1929C36.7242 31.0417 36.3443 30.6617 36.3443 30.193C36.3443 29.7242 36.7242 29.3444 37.1929 29.3444H55.8027V27.2379H35.4386C34.9698 27.2379 34.5899 26.858 34.5899 26.3892C34.5899 25.9205 34.9698 25.5405 35.4386 25.5405H56.6513C57.1201 25.5405 57.5 25.9205 57.5 26.3892V30.193C57.5 30.6617 57.1201 31.0417 56.6513 31.0417Z" fill="#357CDB"/>
<path d="M50.5459 38.2082H42.9685C42.4998 38.2082 42.1199 37.8282 42.1199 37.3594C42.1199 36.8907 42.4998 36.5108 42.9685 36.5108H49.6973V34.4044H39.1648C38.696 34.4044 38.3161 34.0245 38.3161 33.5557C38.3161 33.0869 38.696 32.707 39.1648 32.707H50.5459C51.0147 32.707 51.3946 33.0869 51.3946 33.5557V37.3594C51.3946 37.8282 51.0147 38.2082 50.5459 38.2082Z" fill="#357CDB"/>
<path d="M36.8807 45.3748H31.5268C31.058 45.3748 30.6781 44.995 30.6781 44.5262V40.7225C30.6781 40.2536 31.058 39.8738 31.5268 39.8738H33.0769C33.5456 39.8738 33.9255 40.2536 33.9255 40.7225C33.9255 41.1911 33.5456 41.5711 33.0769 41.5711H32.3754V43.6775H36.8806C37.3494 43.6775 37.7293 44.0575 37.7293 44.5262C37.7293 44.995 37.3494 45.3748 36.8807 45.3748Z" fill="#357CDB"/>
<path d="M50.5459 45.3748H45.0047C44.5359 45.3748 44.156 44.9949 44.156 44.5262C44.156 44.0575 44.5359 43.6775 45.0047 43.6775H49.6973V41.5711H45.5258C45.0571 41.5711 44.6772 41.1911 44.6772 40.7225C44.6772 40.2536 45.0571 39.8738 45.5258 39.8738H50.5459C51.0147 39.8738 51.3946 40.2536 51.3946 40.7225V44.5262C51.3946 44.995 51.0147 45.3748 50.5459 45.3748Z" fill="#357CDB"/>
<path d="M54.4601 56.566H27.6125C27.1438 56.566 26.7639 56.1861 26.7639 55.7173V37.0419C26.7639 36.5732 27.1438 36.1932 27.6125 36.1932C28.0813 36.1932 28.4612 36.5732 28.4612 37.0419V54.8687H53.6114V31.0416H37.1929C36.7242 31.0416 36.3443 30.6616 36.3443 30.1929C36.3443 29.7241 36.7242 29.3442 37.1929 29.3442H54.4601C54.9289 29.3442 55.3087 29.7241 55.3087 30.1929V55.7173C55.3087 56.1861 54.9289 56.566 54.4601 56.566Z" fill="#357CDB"/>
</svg>
