<svg width="60" height="60" viewBox="0 0 60 60" fill="none" xmlns="http://www.w3.org/2000/svg">
<g clip-path="url(#clip0_2002_1225)">
<path d="M46.6313 27C43.1531 27 39.6563 25.6688 36.9938 23.0063C31.7063 17.7188 31.6594 9.15004 36.9 3.91879C40.4625 0.35629 45.675 -0.890585 50.5031 0.665664C50.8031 0.759414 51.0375 1.01254 51.1031 1.32191C51.1781 1.63129 51.0844 1.95004 50.8594 2.17504L44.6625 8.37191L46.3125 13.6782L51.6188 15.3282L57.8156 9.13129C58.0406 8.90629 58.3594 8.81254 58.6688 8.88754C58.9781 8.96254 59.2219 9.18754 59.325 9.48754C60.8813 14.3157 59.6438 19.5282 56.0719 23.1C53.4844 25.6969 50.0625 27 46.6313 27ZM46.3406 1.81879C43.3219 1.81879 40.3969 3.00004 38.1938 5.19379C33.6656 9.72191 33.7125 17.1282 38.2875 21.7125C42.8719 26.2969 50.2781 26.3344 54.8063 21.8063C57.525 19.0875 58.6781 15.2625 57.9938 11.5407L52.5375 16.9969C52.3031 17.2407 51.9469 17.325 51.6281 17.2219L45.3469 15.2625C45.0656 15.1782 44.8406 14.9532 44.7469 14.6625L42.7875 8.38129C42.6844 8.06254 42.7781 7.70629 43.0125 7.47191L48.4688 2.01566C47.7469 1.88441 47.0438 1.81879 46.3406 1.81879Z" fill="#357CDB"/>
<path d="M7.99688 59.9999C5.85938 59.9999 3.86251 59.1749 2.35313 57.6562C0.778131 56.0812 -0.0468695 53.9999 0.00938045 51.778C0.0656304 49.5562 1.01251 47.5218 2.67188 46.0405L34.4063 17.8124C34.7813 17.4749 35.3531 17.5124 35.6906 17.8874C36.0281 18.2624 35.9906 18.8343 35.6156 19.1718L3.87188 47.3999C2.59688 48.5437 1.86563 50.1187 1.81876 51.8249C1.77188 53.5405 2.41876 55.153 3.62813 56.3624C4.84688 57.5718 6.45001 58.2187 8.16563 58.1718C9.88126 58.1249 11.4563 57.3937 12.6 56.1187L40.8188 24.3843C41.1469 24.0093 41.7281 23.9718 42.1031 24.3093C42.4781 24.6468 42.5156 25.2187 42.1781 25.5937L13.9594 57.328C12.4781 58.9874 10.4344 59.9249 8.22188 59.9905C8.14688 59.9999 8.07188 59.9999 7.99688 59.9999Z" fill="#357CDB"/>
<path d="M8.90626 54.4785C7.99689 54.4785 7.14376 54.1223 6.50626 53.4848C5.86876 52.8473 5.51251 51.9941 5.51251 51.0848C5.51251 50.1754 5.86876 49.3223 6.50626 48.6848C7.82814 47.3629 9.98439 47.3629 11.3063 48.6848C12.6281 50.0066 12.6281 52.1629 11.3063 53.4848C10.6688 54.1316 9.81564 54.4785 8.90626 54.4785ZM8.90626 49.5191C8.48439 49.5191 8.09064 49.6785 7.79064 49.9785C7.50001 50.2785 7.33126 50.6723 7.33126 51.0941C7.33126 51.516 7.50001 51.9098 7.79064 52.2098C8.38126 52.8004 9.42189 52.8004 10.0219 52.2098C10.3219 51.9098 10.4813 51.516 10.4813 51.0941C10.4813 50.6723 10.3219 50.2785 10.0219 49.9785C9.72189 49.6785 9.32814 49.5191 8.90626 49.5191Z" fill="#357CDB"/>
<path d="M52.5094 59.2506H44.7188C44.475 59.2506 44.25 59.1568 44.0719 58.9881L38.5594 53.4756C38.3906 53.3068 38.2969 53.0725 38.2969 52.8287V45.0381C38.2969 44.7943 38.3906 44.5693 38.5594 44.3912L44.0719 38.8787C44.2406 38.71 44.475 38.6162 44.7188 38.6162H52.5094C52.7531 38.6162 52.9781 38.71 53.1563 38.8787L58.6688 44.3912C58.8375 44.56 58.9313 44.7943 58.9313 45.0381V52.8287C58.9313 53.0725 58.8375 53.2975 58.6688 53.4756L53.1563 58.9881C52.9875 59.1568 52.7531 59.2506 52.5094 59.2506ZM45.0938 57.4318H52.1344L57.1125 52.4537V45.4131L52.1344 40.435H45.0938L40.1156 45.4131V52.4537L45.0938 57.4318Z" fill="#357CDB"/>
<path d="M48.6187 53.7479C45.9656 53.7479 43.8 51.5822 43.8 48.9291C43.8 46.276 45.9656 44.1104 48.6187 44.1104C51.2719 44.1104 53.4375 46.276 53.4375 48.9291C53.4375 51.5822 51.2719 53.7479 48.6187 53.7479ZM48.6187 45.9385C46.9687 45.9385 45.6187 47.2885 45.6187 48.9385C45.6187 50.5885 46.9687 51.9385 48.6187 51.9385C50.2687 51.9385 51.6187 50.5885 51.6187 48.9385C51.6187 47.2885 50.2687 45.9385 48.6187 45.9385Z" fill="#357CDB"/>
<path d="M14.9625 21.7033H7.17188C6.92812 21.7033 6.70312 21.6096 6.525 21.4408L1.0125 15.9283C0.84375 15.7502 0.75 15.5252 0.75 15.2814V7.48145C0.75 7.2377 0.84375 7.0127 1.0125 6.83457L6.525 1.32207C6.69375 1.15332 6.92812 1.05957 7.17188 1.05957H14.9625C15.2063 1.05957 15.4312 1.15332 15.6094 1.32207L21.1219 6.83457C21.2906 7.00332 21.3844 7.2377 21.3844 7.48145V15.2721C21.3844 15.5158 21.2906 15.7408 21.1219 15.9189L15.6094 21.4314C15.4406 21.6002 15.2063 21.7033 14.9625 21.7033ZM7.54688 19.8846H14.5875L19.5656 14.9064V7.86582L14.5875 2.8877H7.54688L2.56875 7.86582V14.9064L7.54688 19.8846Z" fill="#357CDB"/>
<path d="M11.0719 16.2C8.41874 16.2 6.25311 14.0344 6.25311 11.3813C6.25311 8.72813 8.40936 6.5625 11.0719 6.5625C13.7344 6.5625 15.8906 8.72813 15.8906 11.3813C15.8906 14.0344 13.725 16.2 11.0719 16.2ZM11.0719 8.38125C9.42186 8.38125 8.07186 9.72188 8.07186 11.3813C8.07186 13.0313 9.41249 14.3813 11.0719 14.3813C12.7312 14.3813 14.0719 13.0313 14.0719 11.3813C14.0625 9.73125 12.7219 8.38125 11.0719 8.38125Z" fill="#357CDB"/>
</g>
<defs>
<clipPath id="clip0_2002_1225">
<rect width="60" height="60" fill="white"/>
</clipPath>
</defs>
</svg>
