<svg width="61" height="60" viewBox="0 0 61 60" fill="none" xmlns="http://www.w3.org/2000/svg">
<g clip-path="url(#clip0_2002_1322)">
<mask id="mask0_2002_1322" style="mask-type:luminance" maskUnits="userSpaceOnUse" x="0" y="0" width="60" height="60">
<path d="M0 3.8147e-06H60V60H0V3.8147e-06Z" fill="white"/>
</mask>
<g mask="url(#mask0_2002_1322)">
<path d="M0.878906 13.3595V6.14132C0.878906 5.49409 1.40367 4.96944 2.05078 4.96944H57.9492C58.5963 4.96944 59.1211 5.49409 59.1211 6.14132V49.0015C59.1211 49.6486 58.5963 50.1733 57.9492 50.1733H45.9375" stroke="#357CDB" stroke-width="2" stroke-miterlimit="10" stroke-linecap="round" stroke-linejoin="round"/>
<path d="M40.7227 50.1733H2.05078C1.40367 50.1733 0.878906 49.6487 0.878906 49.0015V17.8126" stroke="#357CDB" stroke-width="2" stroke-miterlimit="10" stroke-linecap="round" stroke-linejoin="round"/>
<path d="M55.5259 32.6956V8.55629H4.474V46.5869H40.5469" stroke="#357CDB" stroke-width="2" stroke-miterlimit="10" stroke-linecap="round" stroke-linejoin="round"/>
<path d="M45.9961 46.5869H55.5259V37.3831" stroke="#357CDB" stroke-width="2" stroke-miterlimit="10" stroke-linecap="round" stroke-linejoin="round"/>
<path d="M11.3979 15.9131H41.6964" stroke="#357CDB" stroke-width="2" stroke-miterlimit="10" stroke-linecap="round" stroke-linejoin="round"/>
<path d="M11.3979 21.2588H48.602" stroke="#357CDB" stroke-width="2" stroke-miterlimit="10" stroke-linecap="round" stroke-linejoin="round"/>
<path d="M11.3979 26.6045H32.5355" stroke="#357CDB" stroke-width="2" stroke-miterlimit="10" stroke-linecap="round" stroke-linejoin="round"/>
<path d="M12.6404 41.4694C13.7763 38.4789 14.2807 35.2937 14.3631 32.1041C13.7877 32.1821 13.2122 32.2599 12.6368 32.3378C13.0272 34.679 13.0581 37.1625 14.151 39.3225C14.6643 40.3369 15.7111 40.937 16.8312 40.4857C17.7761 40.1051 18.5292 39.0549 18.8177 38.1025H17.1227C17.2449 38.7367 17.5869 39.3904 18.0401 39.8479C18.8926 40.7083 20.0138 40.6163 21.1289 40.6149C22.8687 40.6126 24.6087 40.6085 26.3486 40.6036C27.4795 40.6005 27.4817 38.8426 26.3486 38.8458C24.8568 38.85 23.365 38.8535 21.8732 38.8559C21.3939 38.8567 20.9146 38.8574 20.4355 38.8578C20.0687 38.858 19.6731 38.9228 19.3631 38.6861C19.0164 38.4211 18.8971 38.0472 18.8177 37.6351C18.6458 36.7428 17.3586 36.8564 17.1227 37.6351C17.0182 37.98 16.4909 38.9672 16.0303 38.8866C15.7862 38.8438 15.6796 38.4672 15.5894 38.2723C15.4137 37.8927 15.2857 37.4904 15.1763 37.0873C14.7135 35.3841 14.621 33.6058 14.3318 31.8705C14.164 30.8642 12.63 31.1487 12.6053 32.1041C12.5267 35.1476 12.029 38.1494 10.9454 41.0021C10.5434 42.0606 12.2421 42.5183 12.6404 41.4694Z" fill="#357CDB"/>
<path d="M45.8071 41.0855V55.0308L43.2876 53.8589L40.7681 55.0308V41.0855" stroke="#357CDB" stroke-width="2" stroke-miterlimit="10" stroke-linecap="round" stroke-linejoin="round"/>
<path d="M43.2876 42.8359C42.3986 42.8359 41.8165 41.3226 41.0434 41.0014C40.2419 40.6684 38.7649 41.3136 38.1609 40.7085C37.557 40.1035 38.2009 38.6238 37.8685 37.8209C37.5479 37.0463 36.0374 36.463 36.0374 35.5724C36.0374 34.6817 37.5479 34.0984 37.8685 33.3239C38.2009 32.5211 37.557 31.0414 38.1609 30.4363C38.7649 29.8312 40.2419 30.4763 41.0434 30.1434C41.8165 29.8223 42.3986 28.3089 43.2876 28.3089C44.1767 28.3089 44.7589 29.8223 45.532 30.1434C46.3334 30.4763 47.8105 29.8313 48.4145 30.4363C49.0183 31.0415 48.3745 32.5211 48.7068 33.3239C49.0274 34.0984 50.538 34.6817 50.538 35.5724C50.538 36.463 49.0274 37.0463 48.7067 37.8209C48.3745 38.6238 49.0183 40.1035 48.4143 40.7085C47.8105 41.3136 46.3334 40.6684 45.532 41.0015C44.7589 41.3226 44.1767 42.8359 43.2876 42.8359Z" stroke="#357CDB" stroke-width="2" stroke-miterlimit="10" stroke-linecap="round" stroke-linejoin="round"/>
<path d="M45.8417 35.5725C45.8417 36.9831 44.6982 38.1265 43.2876 38.1265C41.8772 38.1265 40.7336 36.9831 40.7336 35.5725C40.7336 34.1619 41.8772 33.0185 43.2876 33.0185C44.6982 33.0185 45.8417 34.1619 45.8417 35.5725Z" stroke="#357CDB" stroke-width="2" stroke-miterlimit="10" stroke-linecap="round" stroke-linejoin="round"/>
</g>
</g>
<defs>
<clipPath id="clip0_2002_1322">
<rect width="60" height="60" fill="white" transform="translate(0.5)"/>
</clipPath>
</defs>
</svg>
