<svg width="60" height="60" viewBox="0 0 60 60" fill="none" xmlns="http://www.w3.org/2000/svg">
<g clip-path="url(#clip0_2002_1150)">
<path d="M32.2846 48.7788H14.1808C13.8562 48.7788 13.5949 49.0413 13.5949 49.3647V52.1819C13.5949 52.5054 13.8562 52.7679 14.1808 52.7679H35.3809" stroke="#357CDB" stroke-width="2" stroke-miterlimit="10" stroke-linecap="round" stroke-linejoin="round"/>
<path d="M30.736 42.2158H12.2742" stroke="#357CDB" stroke-width="2" stroke-miterlimit="10" stroke-linecap="round" stroke-linejoin="round"/>
<path d="M47.0684 3.54395H57.9492C58.5961 3.54395 59.1211 4.06895 59.1211 4.71582V42.3939" stroke="#357CDB" stroke-width="2" stroke-miterlimit="10" stroke-linecap="round" stroke-linejoin="round"/>
<path d="M8.17266 42.2158H2.05078C1.40391 42.2158 0.878906 41.692 0.878906 41.0439V4.71582C0.878906 4.06895 1.40391 3.54395 2.05078 3.54395H42.9668" stroke="#357CDB" stroke-width="2" stroke-miterlimit="10" stroke-linecap="round" stroke-linejoin="round"/>
<path d="M21.8412 48.7316C24.0584 46.3957 27.0292 45.229 30 45.229C30.3324 45.229 30.6648 45.2437 30.9961 45.2728" stroke="#357CDB" stroke-width="2" stroke-miterlimit="10" stroke-linecap="round" stroke-linejoin="round"/>
<path d="M21.7016 42.394L18.3251 48.6971" stroke="#357CDB" stroke-width="2" stroke-miterlimit="10" stroke-linecap="round" stroke-linejoin="round"/>
<path d="M15.2156 9.71875H29.1492C29.9438 9.71875 30.5883 10.3633 30.5883 11.1578V24.5875C30.5883 25.382 29.9438 26.0266 29.1492 26.0266H6.9387C6.14416 26.0266 5.49963 25.382 5.49963 24.5875V11.1578C5.49963 10.3633 6.14416 9.71875 6.9387 9.71875H11.1141" stroke="#357CDB" stroke-width="2" stroke-miterlimit="10" stroke-linecap="round" stroke-linejoin="round"/>
<path d="M5.81543 21.5103H30.272" stroke="#357CDB" stroke-width="2" stroke-miterlimit="10" stroke-linecap="round" stroke-linejoin="round"/>
<path d="M5.81543 17.7471H30.272" stroke="#357CDB" stroke-width="2" stroke-miterlimit="10" stroke-linecap="round" stroke-linejoin="round"/>
<path d="M53.1035 53.9288C50.8242 55.5226 48.0504 56.4565 45.0586 56.4565C37.2926 56.4565 30.9961 50.1601 30.9961 42.394C30.9961 34.628 37.2926 28.3315 45.0586 28.3315C52.8246 28.3315 59.1211 34.628 59.1211 42.394C59.1211 45.6882 57.9891 48.7163 56.0918 51.1128" stroke="#357CDB" stroke-width="2" stroke-miterlimit="10" stroke-linecap="round" stroke-linejoin="round"/>
<path d="M39.2846 40.937L36.7721 43.0903L34.6189 40.937" stroke="#357CDB" stroke-width="2" stroke-miterlimit="10" stroke-linecap="round" stroke-linejoin="round"/>
<path d="M45.0171 50.6468C49.5749 50.6468 53.2697 46.952 53.2697 42.3942C53.2697 37.8364 49.5749 34.1416 45.0171 34.1416C40.4593 34.1416 36.7645 37.8364 36.7645 42.3942" stroke="#357CDB" stroke-width="2" stroke-miterlimit="10" stroke-linecap="round" stroke-linejoin="round"/>
<path d="M14.0973 31.5669H17.9025" stroke="#357CDB" stroke-width="2" stroke-miterlimit="10" stroke-linecap="round" stroke-linejoin="round"/>
<path d="M14.0973 35.498H27.7949" stroke="#357CDB" stroke-width="2" stroke-miterlimit="10" stroke-linecap="round" stroke-linejoin="round"/>
<path d="M5.49963 33.6937L7.49944 35.4984L10.8455 31.5669" stroke="#357CDB" stroke-width="2" stroke-miterlimit="10" stroke-linecap="round" stroke-linejoin="round"/>
<path d="M22.0045 31.5669H30.5878" stroke="#357CDB" stroke-width="2" stroke-miterlimit="10" stroke-linecap="round" stroke-linejoin="round"/>
<path d="M40.7386 9.71875H54.8105" stroke="#357CDB" stroke-width="2" stroke-miterlimit="10" stroke-linecap="round" stroke-linejoin="round"/>
<path d="M40.7386 14.9219H54.8105" stroke="#357CDB" stroke-width="2" stroke-miterlimit="10" stroke-linecap="round" stroke-linejoin="round"/>
<path d="M40.7386 20.1255H54.8105" stroke="#357CDB" stroke-width="2" stroke-miterlimit="10" stroke-linecap="round" stroke-linejoin="round"/>
<path d="M35.1217 9.71875H36.6367" stroke="#357CDB" stroke-width="2" stroke-miterlimit="10" stroke-linecap="round" stroke-linejoin="round"/>
<path d="M35.1217 14.9219H36.6367" stroke="#357CDB" stroke-width="2" stroke-miterlimit="10" stroke-linecap="round" stroke-linejoin="round"/>
<path d="M35.1217 20.1255H36.6367" stroke="#357CDB" stroke-width="2" stroke-miterlimit="10" stroke-linecap="round" stroke-linejoin="round"/>
</g>
<defs>
<clipPath id="clip0_2002_1150">
<rect width="60" height="60" fill="white"/>
</clipPath>
</defs>
</svg>
