<svg width="61" height="60" viewBox="0 0 61 60" fill="none" xmlns="http://www.w3.org/2000/svg">
<g clip-path="url(#clip0_2002_1025)">
<g clip-path="url(#clip1_2002_1025)">
<path d="M41.4969 9.28359C41.8332 9.46172 42.1648 9.64922 42.4906 9.84375C42.9008 10.0887 43.4164 10.0664 43.7984 9.78164L46.5664 7.71914C47.4992 7.02305 48.8012 7.11797 49.6238 7.94063L52.5594 10.8762C53.382 11.6988 53.477 13.0008 52.7809 13.9336L50.7184 16.7016C50.4336 17.0836 50.4113 17.5992 50.6562 18.0094C51.8 19.9242 52.6777 22.0148 53.2402 24.2297C53.3574 24.6914 53.7371 25.0395 54.2082 25.1086L57.616 25.6055C58.7668 25.7742 59.6211 26.7609 59.6211 27.9246V32.0754C59.6211 33.2391 58.7668 34.2258 57.616 34.3945L54.2082 34.8914C53.7371 34.9605 53.3574 35.3086 53.2402 35.7703C52.6777 37.9852 51.8 40.0758 50.6562 41.9906C50.4113 42.4008 50.4336 42.9164 50.7184 43.2984L52.7809 46.0664C53.477 46.9992 53.382 48.3012 52.5594 49.1238L49.6238 52.0594C48.8012 52.882 47.4992 52.977 46.5664 52.2809L43.7984 50.2184C43.4164 49.9336 42.9008 49.9113 42.4906 50.1562C40.5758 51.3 38.4852 52.1777 36.2703 52.7402C35.8086 52.8574 35.4605 53.2371 35.3914 53.7082L34.8945 57.116C34.7258 58.2668 33.7391 59.1211 32.5754 59.1211H28.4246C27.2609 59.1211 26.2742 58.2668 26.1055 57.116L25.6086 53.7082C25.5395 53.2371 25.1914 52.8574 24.7297 52.7402C22.5148 52.1777 20.4242 51.3 18.5094 50.1562C18.0992 49.9113 17.5836 49.9336 17.2016 50.2184L14.4336 52.2809C13.5008 52.977 12.1988 52.882 11.3762 52.0594L8.44063 49.1238C7.61797 48.3012 7.52305 46.9992 8.21914 46.0664L10.2816 43.2984C10.5664 42.9164 10.5887 42.4008 10.3438 41.9906C9.2 40.0758 8.32227 37.9852 7.75977 35.7703C7.64258 35.3086 7.26289 34.9605 6.7918 34.8914L3.38398 34.3945C2.2332 34.2258 1.37891 33.2391 1.37891 32.0754V27.9246C1.37891 26.7609 2.2332 25.7742 3.38398 25.6055L6.7918 25.1086C7.26289 25.0395 7.64258 24.6914 7.75977 24.2297C8.32227 22.0148 9.2 19.9242 10.3438 18.0094C10.5887 17.5992 10.5664 17.0836 10.2816 16.7016L8.21914 13.9336C7.52305 13.0008 7.61797 11.6988 8.44063 10.8762L11.3762 7.94063C12.1988 7.11797 13.5008 7.02305 14.4336 7.71914L17.2016 9.78164C17.5836 10.0664 18.0992 10.0887 18.5094 9.84375C20.4242 8.7 22.5148 7.82227 24.7297 7.25977C25.1914 7.14258 25.5395 6.76289 25.6086 6.2918L26.1055 2.88398C26.2742 1.7332 27.2609 0.878906 28.4246 0.878906H32.5754C33.7391 0.878906 34.7258 1.7332 34.8945 2.88398L35.3914 6.2918C35.4605 6.76289 35.8086 7.14258 36.2703 7.25977C36.7602 7.38398 37.2441 7.52344 37.7211 7.6793" stroke="#357CDB" stroke-width="2" stroke-miterlimit="10" stroke-linecap="round" stroke-linejoin="round"/>
<path d="M46.5904 30.0002C46.5904 21.1245 39.3862 13.9287 30.5 13.9287C26.0569 13.9287 22.0343 15.7277 19.123 18.6366" stroke="#357CDB" stroke-width="2" stroke-miterlimit="10" stroke-linecap="round" stroke-linejoin="round"/>
<path d="M43.439 27.131L46.5904 30.0003L49.25 26.6709" stroke="#357CDB" stroke-width="2" stroke-miterlimit="10" stroke-linecap="round" stroke-linejoin="round"/>
<path d="M14.4095 30C14.4095 38.8757 21.6138 46.0714 30.5 46.0714C34.9431 46.0714 38.9657 44.2725 41.877 41.3636" stroke="#357CDB" stroke-width="2" stroke-miterlimit="10" stroke-linecap="round" stroke-linejoin="round"/>
<path d="M17.561 32.8693L14.4096 30L11.75 33.3294" stroke="#357CDB" stroke-width="2" stroke-miterlimit="10" stroke-linecap="round" stroke-linejoin="round"/>
<path d="M33.3734 26.7928L36.057 24.108C36.4578 23.7072 36.9816 23.5068 37.5066 23.5068C38.0316 23.5068 38.5554 23.7072 38.9562 24.1068C39.7566 24.9084 39.7566 26.2068 38.9562 27.0072L30.5 35.4635C29.1265 36.8369 26.9011 36.8369 25.5277 35.4635L22.0437 31.9795C21.6429 31.5799 21.4437 31.0549 21.4437 30.5299C21.4437 30.0049 21.6429 29.4799 22.0437 29.0791C22.8441 28.2787 24.1437 28.2787 24.9441 29.0791L27.6008 31.7357C27.8293 31.9643 28.2008 31.9643 28.4293 31.7357L30.473 29.6932" stroke="#357CDB" stroke-width="2" stroke-miterlimit="10" stroke-linecap="round" stroke-linejoin="round"/>
</g>
</g>
<defs>
<clipPath id="clip0_2002_1025">
<rect width="60" height="60" fill="white" transform="translate(0.5)"/>
</clipPath>
<clipPath id="clip1_2002_1025">
<rect width="60" height="60" fill="white" transform="translate(0.5)"/>
</clipPath>
</defs>
</svg>
