<svg width="61" height="60" viewBox="0 0 61 60" fill="none" xmlns="http://www.w3.org/2000/svg">
<path d="M59.1096 38.146C57.9689 36.1705 55.4337 35.4912 53.458 36.6317L44.633 41.7268C43.5669 42.3424 42.4706 42.4867 41.2817 42.168L41.0157 42.0968C41.7063 41.5649 42.1927 40.7938 42.4168 39.9574C42.91 38.1165 42.145 35.914 39.7285 35.2665L27.2155 31.9137C25.6694 31.4992 24.1829 31.695 22.7969 32.4953L11.4042 39.0729L10.6883 37.8329C10.32 37.1951 9.72324 36.7381 9.00793 36.5464C8.29262 36.3547 7.54742 36.452 6.90957 36.8203L3.38644 38.8543C2.06551 39.617 1.61129 41.3121 2.37383 42.6331L10.9268 57.4472C11.2951 58.085 11.8918 58.5419 12.6071 58.7337C12.8469 58.7979 13.0899 58.8296 13.3312 58.8296C13.8098 58.8296 14.2814 58.7046 14.7056 58.4597L18.2287 56.4256C18.8666 56.0573 19.3235 55.4606 19.5152 54.7453C19.7068 54.03 19.6095 53.2848 19.2413 52.6469L18.5254 51.407L22.951 48.8518L37.7084 52.8061C38.3687 52.983 39.0201 53.0713 39.6611 53.0713C40.905 53.0713 42.1088 52.7387 43.2574 52.0754L57.5952 43.7975C59.5707 42.6568 60.25 40.1216 59.1096 38.1459V38.146ZM18.1569 54.3813C18.0624 54.7338 17.8382 55.0272 17.5256 55.2077L14.0025 57.2417C13.6898 57.4223 13.3236 57.4694 12.9711 57.3752C12.6186 57.2808 12.3252 57.0566 12.1447 56.7439L3.59176 41.9299C3.21687 41.2804 3.44023 40.447 4.08957 40.0721L7.61269 38.0381C7.92523 37.8576 8.29156 37.8103 8.64406 37.9046C8.99644 37.9991 9.29 38.2233 9.47047 38.5359L18.0234 53.3501C18.204 53.6626 18.2513 54.0288 18.1569 54.3813ZM56.892 42.5797L42.5543 50.8576C41.1482 51.6694 39.6405 51.868 38.0723 51.4478L23.0335 47.418C22.8535 47.3695 22.6614 47.3951 22.5 47.4882L17.8222 50.189L12.1073 40.2906L23.5 33.713C24.5661 33.0974 25.6621 32.9531 26.8515 33.2717L39.3646 36.6246C40.9691 37.0544 41.3715 38.4254 41.0586 39.5933C40.7457 40.7611 39.7119 41.7469 38.1079 41.3174C38.1077 41.3174 38.1075 41.3172 38.1072 41.3171L29.2767 38.951C28.9018 38.8506 28.5161 39.0731 28.4156 39.4482C28.315 39.8233 28.5377 40.2089 28.9128 40.3093L37.7423 42.6752C37.7423 42.6752 37.743 42.6754 37.7434 42.6756L40.9178 43.5261C42.4636 43.9403 43.9503 43.7446 45.3363 42.9445L54.1612 37.8494C55.4654 37.0965 57.1389 37.5449 57.8918 38.849C58.6447 40.1531 58.1962 41.8267 56.8921 42.5796L56.892 42.5797ZM8.94254 43.0032C9.13672 43.3396 9.0214 43.7695 8.68519 43.9637C8.57445 44.0276 8.45352 44.058 8.33422 44.058C8.09129 44.058 7.85492 43.9319 7.72461 43.7063L6.82437 42.1471C6.63019 41.8107 6.74551 41.3808 7.08172 41.1866C7.41805 40.9926 7.84801 41.1077 8.04219 41.4439L8.94254 43.0032ZM18.6412 14.906L21.173 16.3678C21.1727 17.0883 21.2239 17.8099 21.3275 18.5196C21.4227 19.1705 21.9246 19.6667 22.5767 19.7544L24.3676 19.995C24.5797 20.6697 24.8516 21.3254 25.1795 21.9529L24.0832 23.3895C23.6841 23.9123 23.6799 24.618 24.0726 25.1456C24.9309 26.2986 25.9504 27.3181 27.1028 28.1758C27.6304 28.5685 28.336 28.5641 28.8588 28.1653L30.2964 27.0682C30.9246 27.3964 31.5799 27.6682 32.2534 27.8799L32.4941 29.6715C32.5816 30.3234 33.0778 30.8256 33.7289 30.9208C34.4397 31.0248 35.1555 31.0767 35.8713 31.0767C36.5871 31.0767 37.3025 31.0248 38.013 30.9208C38.6639 30.8257 39.1602 30.3238 39.2478 29.6716L39.4884 27.8798C40.1622 27.6679 40.8175 27.3962 41.4454 27.0682L42.5844 27.9374V28.3235C42.5844 28.5747 42.7184 28.8069 42.9359 28.9324L45.7602 30.563C46.9399 31.244 48.2062 31.5845 49.4725 31.5845C50.739 31.5845 52.0053 31.2439 53.1849 30.5628L53.3165 30.4869C53.534 30.3613 53.668 30.1291 53.668 29.878C53.668 29.6267 53.5339 29.3947 53.3164 29.2691L48.2657 26.3531V23.5336L50.7075 22.1238L55.7582 25.0399C55.9759 25.1655 56.2441 25.1655 56.4616 25.0398C56.6791 24.914 56.8132 24.6818 56.8129 24.4305V24.2792C56.8129 21.555 55.4599 19.2113 53.1004 17.8493L50.5687 16.3876C50.5691 15.6669 50.518 14.9451 50.4141 14.2353C50.3189 13.5845 49.8169 13.0883 49.1649 13.0006L47.3739 12.7601C47.1618 12.0852 46.89 11.4296 46.5621 10.8021L47.6585 9.36549C48.0575 8.84272 48.0617 8.13701 47.669 7.60932C46.8107 6.45643 45.7912 5.43689 44.6389 4.5792C44.1113 4.1865 43.4057 4.19072 42.8828 4.58975L41.4452 5.68686C40.8172 5.35873 40.162 5.08686 39.4883 4.8751L39.2476 3.0833C39.1598 2.4315 38.6637 1.92947 38.0129 1.8342C36.5918 1.62643 35.1503 1.62643 33.7286 1.8342C33.0777 1.92947 32.5815 2.4315 32.4941 3.08342L32.2532 4.8751C31.5792 5.08709 30.9239 5.35885 30.2962 5.68686L29.1573 4.81779V4.43178C29.1573 4.18053 29.0232 3.94838 28.8057 3.82287L25.9815 2.19232C23.6221 0.830254 20.9159 0.830019 18.5573 2.19209L18.4257 2.26791C18.208 2.39342 18.0738 2.62557 18.0737 2.87682C18.0737 3.12818 18.2076 3.36033 18.4252 3.48607L23.476 6.40217V9.22182L21.0343 10.6315L15.9835 7.71549C15.766 7.58998 15.4979 7.58998 15.2804 7.71549C15.0629 7.84111 14.9288 8.07326 14.9288 8.32439V8.47627C14.9288 11.2004 16.2819 13.544 18.6412 14.9062V14.906ZM41.9353 25.6732C41.7103 25.5014 41.4043 25.4813 41.1589 25.6221C40.3746 26.0717 39.5364 26.4193 38.668 26.6551C38.395 26.7293 38.193 26.9598 38.1553 27.2401L37.8539 29.4844C37.85 29.5126 37.8376 29.5253 37.8093 29.5294C36.5233 29.7173 35.2188 29.7173 33.9322 29.5294C33.9039 29.5251 33.8915 29.5126 33.8877 29.4844L33.5861 27.2401C33.5485 26.9597 33.3465 26.7293 33.0734 26.6551C32.2055 26.4195 31.3675 26.0719 30.5826 25.622C30.3371 25.4812 30.0312 25.5014 29.8064 25.6731L28.0055 27.0473C27.9829 27.0647 27.9652 27.0647 27.9423 27.0477C26.8995 26.2715 25.977 25.3492 25.2005 24.3058C25.1836 24.283 25.1837 24.2653 25.2009 24.2426L26.5746 22.4426C26.7462 22.2176 26.7664 21.9116 26.6255 21.6662C26.1761 20.8828 25.8286 20.0444 25.5923 19.1745C25.5181 18.9016 25.2876 18.6996 25.0073 18.6619L22.7639 18.3604C22.7356 18.3566 22.723 18.3442 22.7189 18.316C22.6216 17.6511 22.5753 16.9744 22.5791 16.2992L25.5127 14.6054L28.3166 16.2242C28.1643 18.9951 29.5326 21.5373 31.965 22.9383C33.1392 23.6145 34.4136 23.9495 35.6775 23.9495C37.0573 23.9495 38.4241 23.5486 39.6328 22.7577L42.5841 24.4617V26.1684L41.935 25.6731L41.9353 25.6732ZM38.2256 21.9452C36.4796 22.8017 34.4336 22.7373 32.667 21.7197C30.9219 20.7145 29.8546 18.9814 29.7247 17.0372L38.2257 21.9452H38.2256ZM29.8064 7.08197C30.0314 7.25377 30.3375 7.27381 30.5827 7.13295C31.3666 6.68342 32.2046 6.33584 33.0736 6.09994C33.3465 6.02576 33.5485 5.79537 33.5861 5.51494L33.8878 3.27068C33.8915 3.24244 33.9041 3.2299 33.9322 3.2258C35.2187 3.03771 36.5232 3.03771 37.8093 3.2258C37.8376 3.23002 37.8501 3.24268 37.8539 3.2708L38.1553 5.51506C38.193 5.79549 38.3949 6.02588 38.668 6.10006C39.5361 6.33572 40.3741 6.6833 41.1587 7.13318C41.4039 7.27381 41.7099 7.25389 41.935 7.08209L43.736 5.70772C43.7586 5.69049 43.7764 5.69037 43.7993 5.70736C44.8419 6.4835 45.7644 7.406 46.541 8.4492C46.558 8.47205 46.5578 8.48986 46.5406 8.51248L45.1669 10.3124C44.9953 10.5374 44.9751 10.8433 45.116 11.0888C45.5653 11.872 45.9128 12.7103 46.1492 13.5804C46.2233 13.8534 46.4538 14.0553 46.7341 14.0929L48.9776 14.3944C49.0059 14.3982 49.0186 14.4106 49.0227 14.4389C49.1199 15.1038 49.1663 15.7804 49.1625 16.4557L46.2287 18.1495L42.9608 16.2628C42.8461 13.7443 41.4884 11.5172 39.278 10.2566C37.073 8.99904 34.4857 8.94678 32.276 10.0939L29.1573 8.29334V6.58662L29.8064 7.08197ZM41.4373 15.3833L33.8012 10.9746C35.369 10.4583 37.0834 10.624 38.5814 11.4783C40.0841 12.3353 41.0981 13.7456 41.4372 15.3833H41.4373ZM20.6827 12.052C20.9001 12.1774 21.1682 12.1775 21.3859 12.052L24.5307 10.2364C24.7482 10.1108 24.8823 9.87865 24.8823 9.62752V5.996C24.8823 5.74475 24.7482 5.51271 24.5307 5.38709L20.2814 2.93365C21.9274 2.33939 23.6988 2.49807 25.2784 3.41002L27.751 4.8376V8.69928C27.751 8.95053 27.8851 9.18268 28.1026 9.30818L45.8771 19.5703C46.0945 19.6957 46.3626 19.6958 46.5802 19.5703L49.9246 17.6394L52.3973 19.0671C53.9769 19.9789 54.9999 21.4332 55.3082 23.1563L51.0589 20.703C50.8414 20.5775 50.5733 20.5776 50.3558 20.703L47.2108 22.5188C46.9933 22.6445 46.8593 22.8766 46.8593 23.1278V26.7592C46.8593 27.0104 46.9934 27.2426 47.2109 27.3681L51.4603 29.8214C49.8141 30.4159 48.0427 30.2571 46.4632 29.3451L43.9905 27.9176V24.0558C43.9905 23.8045 43.8566 23.5724 43.6389 23.4469L25.8644 13.1847C25.6468 13.0592 25.3788 13.0594 25.1613 13.1847L21.8169 15.1156L19.3442 13.6881C17.7646 12.7761 16.7415 11.3216 16.4332 9.59869L20.6826 12.0521L20.6827 12.052Z" fill="#357CDB" stroke="#357CDB" stroke-width="0.5"/>
</svg>
