<svg width="60" height="60" viewBox="0 0 60 60" fill="none" xmlns="http://www.w3.org/2000/svg">
<g clip-path="url(#clip0_2002_1249)">
<g clip-path="url(#clip1_2002_1249)">
<path d="M51.182 50.7549H36.1983" stroke="#357CDB" stroke-width="2" stroke-miterlimit="10" stroke-linecap="round" stroke-linejoin="round"/>
<path d="M54.375 57.6891H59.1211V50.7549H54.1292" stroke="#357CDB" stroke-width="2" stroke-miterlimit="10" stroke-linecap="round" stroke-linejoin="round"/>
<path d="M36.4453 57.6895H50.8643" stroke="#357CDB" stroke-width="2" stroke-miterlimit="10" stroke-linecap="round" stroke-linejoin="round"/>
<path d="M33.2511 50.7549H13.4834V49.1504C13.4834 48.5032 12.9587 47.9785 12.3115 47.9785H7.7209C7.07367 47.9785 6.54902 48.5032 6.54902 49.1504V50.7549H0.878906V57.6891H32.9883" stroke="#357CDB" stroke-width="2" stroke-miterlimit="10" stroke-linecap="round" stroke-linejoin="round"/>
<path d="M30.174 36.1123H40.2116" stroke="#357CDB" stroke-width="2" stroke-miterlimit="10" stroke-linecap="round" stroke-linejoin="round"/>
<path d="M21.9322 31.0942C21.9322 33.8656 24.1765 36.1122 26.945 36.1122" stroke="#357CDB" stroke-width="2" stroke-miterlimit="10" stroke-linecap="round" stroke-linejoin="round"/>
<path d="M21.9322 18.3057V28.0441" stroke="#357CDB" stroke-width="2" stroke-miterlimit="10" stroke-linecap="round" stroke-linejoin="round"/>
<path d="M10.0938 2.354C16.632 2.354 21.9322 7.65967 21.9322 14.2046V15.3555" stroke="#357CDB" stroke-width="2" stroke-miterlimit="10" stroke-linecap="round" stroke-linejoin="round"/>
<path d="M6.43547 9.28834H0.878906V2.354H6.43547" stroke="#357CDB" stroke-width="2" stroke-miterlimit="10" stroke-linecap="round" stroke-linejoin="round"/>
<path d="M14.9952 15.3552V14.3061C14.9952 11.5347 12.7509 9.28809 9.98239 9.28809" stroke="#357CDB" stroke-width="2" stroke-miterlimit="10" stroke-linecap="round" stroke-linejoin="round"/>
<path d="M14.9952 28.0441V18.3057" stroke="#357CDB" stroke-width="2" stroke-miterlimit="10" stroke-linecap="round" stroke-linejoin="round"/>
<path d="M26.8336 43.0464C20.2955 43.0464 14.9952 37.7407 14.9952 31.1958" stroke="#357CDB" stroke-width="2" stroke-miterlimit="10" stroke-linecap="round" stroke-linejoin="round"/>
<path d="M40.2116 43.0464H30.174" stroke="#357CDB" stroke-width="2" stroke-miterlimit="10" stroke-linecap="round" stroke-linejoin="round"/>
<path d="M47.1387 36.1123H59.1211V43.0465H47.1387" stroke="#357CDB" stroke-width="2" stroke-miterlimit="10" stroke-linecap="round" stroke-linejoin="round"/>
<path d="M7.90956 10.6845H7.9085C7.09499 10.6845 6.43546 10.025 6.43546 9.21148V2.35977C6.43546 1.54625 7.09499 0.886719 7.9085 0.886719H7.90956C8.72307 0.886719 9.3826 1.54625 9.3826 2.35977V9.21148C9.3826 10.025 8.72307 10.6845 7.90956 10.6845Z" stroke="#357CDB" stroke-width="2" stroke-miterlimit="10" stroke-linecap="round" stroke-linejoin="round"/>
<path d="M13.6204 16.8313V16.8298C13.6204 16.0156 14.2805 15.3555 15.0947 15.3555H21.9338C22.748 15.3555 23.4081 16.0156 23.4081 16.8298V16.8313C23.4081 17.6455 22.748 18.3057 21.9338 18.3057H15.0947C14.2805 18.3057 13.6204 17.6455 13.6204 16.8313Z" stroke="#357CDB" stroke-width="2" stroke-miterlimit="10" stroke-linecap="round" stroke-linejoin="round"/>
<path d="M13.6204 29.5198V29.5183C13.6204 28.7041 14.2805 28.0439 15.0947 28.0439H21.9338C22.748 28.0439 23.4081 28.7041 23.4081 29.5183V29.5198C23.4081 30.334 22.748 30.9941 21.9338 30.9941H15.0947C14.2805 30.9941 13.6204 30.334 13.6204 29.5198Z" stroke="#357CDB" stroke-width="2" stroke-miterlimit="10" stroke-linecap="round" stroke-linejoin="round"/>
<path d="M28.6999 34.6392H28.701C29.5145 34.6392 30.174 35.2987 30.174 36.1122V42.9639C30.174 43.7774 29.5145 44.437 28.701 44.437H28.6999C27.8864 44.437 27.2269 43.7774 27.2269 42.9639V36.1122C27.2269 35.2987 27.8864 34.6392 28.6999 34.6392Z" stroke="#357CDB" stroke-width="2" stroke-miterlimit="10" stroke-linecap="round" stroke-linejoin="round"/>
<path d="M34.7242 49.3232H34.7252C35.5387 49.3232 36.1983 49.9828 36.1983 50.7963V57.648C36.1983 58.4615 35.5387 59.1211 34.7252 59.1211H34.7242C33.9107 59.1211 33.2511 58.4615 33.2511 57.648V50.7963C33.2511 49.9828 33.9107 49.3232 34.7242 49.3232Z" stroke="#357CDB" stroke-width="2" stroke-miterlimit="10" stroke-linecap="round" stroke-linejoin="round"/>
<path d="M52.655 49.3232H52.6561C53.4696 49.3232 54.1291 49.9828 54.1291 50.7963V57.648C54.1291 58.4615 53.4696 59.1211 52.6561 59.1211H52.655C51.8415 59.1211 51.182 58.4615 51.182 57.648V50.7963C51.182 49.9828 51.8415 49.3232 52.655 49.3232Z" stroke="#357CDB" stroke-width="2" stroke-miterlimit="10" stroke-linecap="round" stroke-linejoin="round"/>
<path d="M40.2116 47.8049V3.8291" stroke="#357CDB" stroke-width="2" stroke-miterlimit="10" stroke-linecap="round" stroke-linejoin="round"/>
<path d="M47.1387 12.2227V47.8047" stroke="#357CDB" stroke-width="2" stroke-miterlimit="10" stroke-linecap="round" stroke-linejoin="round"/>
<path d="M47.1387 3.8291V8.85469" stroke="#357CDB" stroke-width="2" stroke-miterlimit="10" stroke-linecap="round" stroke-linejoin="round"/>
<path d="M38.7963 2.35477V2.35324C38.7963 1.53902 39.4564 0.878906 40.2707 0.878906H47.1097C47.9239 0.878906 48.5841 1.53902 48.5841 2.35324V2.35477C48.5841 3.16898 47.9239 3.8291 47.1097 3.8291H40.2707C39.4563 3.8291 38.7963 3.16898 38.7963 2.35477Z" stroke="#357CDB" stroke-width="2" stroke-miterlimit="10" stroke-linecap="round" stroke-linejoin="round"/>
<path d="M38.7963 49.2805V49.279C38.7963 48.4648 39.4564 47.8047 40.2707 47.8047H47.1097C47.9239 47.8047 48.5841 48.4648 48.5841 49.279V49.2805C48.5841 50.0948 47.9239 50.7549 47.1097 50.7549H40.2707C39.4563 50.7549 38.7963 50.0948 38.7963 49.2805Z" stroke="#357CDB" stroke-width="2" stroke-miterlimit="10" stroke-linecap="round" stroke-linejoin="round"/>
<path d="M11.7116 44.9805H8.32077V47.9787H11.7116V44.9805Z" stroke="#357CDB" stroke-width="2" stroke-miterlimit="10" stroke-linecap="round" stroke-linejoin="round"/>
<path d="M6.12551 41.9824H4.15277C3.32485 41.9824 2.65359 42.6536 2.65359 43.4816C2.65359 44.3096 3.32473 44.9808 4.15277 44.9808H15.8797C16.7077 44.9808 17.3789 44.3096 17.3789 43.4816C17.3789 42.6536 16.7078 41.9824 15.8797 41.9824H9.59508" stroke="#357CDB" stroke-width="2" stroke-miterlimit="10" stroke-linecap="round" stroke-linejoin="round"/>
</g>
</g>
<defs>
<clipPath id="clip0_2002_1249">
<rect width="60" height="60" fill="white"/>
</clipPath>
<clipPath id="clip1_2002_1249">
<rect width="60" height="60" fill="white"/>
</clipPath>
</defs>
</svg>
