<svg width="61" height="60" viewBox="0 0 61 60" fill="none" xmlns="http://www.w3.org/2000/svg">
<path d="M20.5209 4.6875H33.6459V6.5625H20.5209V4.6875Z" fill="#357CDB"/>
<path d="M20.5209 8.4375H33.6459V10.3125H20.5209V8.4375Z" fill="#357CDB"/>
<path d="M15.8334 49.6875H17.7084V51.5625H15.8334V49.6875Z" fill="#357CDB"/>
<path d="M19.5834 49.6875H21.4584V51.5625H19.5834V49.6875Z" fill="#357CDB"/>
<path d="M23.3334 49.6875H25.2084V51.5625H23.3334V49.6875Z" fill="#357CDB"/>
<path d="M24.2709 15.9375H26.1459V17.8125H24.2709V15.9375Z" fill="#357CDB"/>
<path d="M28.0209 15.9375H29.8959V17.8125H28.0209V15.9375Z" fill="#357CDB"/>
<path d="M31.7709 15.9375H33.6459V17.8125H31.7709V15.9375Z" fill="#357CDB"/>
<path d="M14.8959 34.6875H16.7709V36.5625H14.8959V34.6875Z" fill="#357CDB"/>
<path d="M18.6459 34.6875H20.5209V36.5625H18.6459V34.6875Z" fill="#357CDB"/>
<path d="M22.3959 34.6875H24.2709V36.5625H22.3959V34.6875Z" fill="#357CDB"/>
<path d="M26.1459 34.6875H28.0209V36.5625H26.1459V34.6875Z" fill="#357CDB"/>
<path d="M59.8959 13.1053C59.8959 6.40219 54.4481 0.94875 47.7084 0.938438V0.9375H17.3203L7.3959 10.8619V42.6806C5.49934 43.3397 3.85871 44.6372 2.83496 46.4053L2.17871 47.5378L7.76902 48.6562L9.08152 50.625L7.76902 52.5947L2.17871 53.7131L2.83496 54.8456C4.34152 57.4462 7.16715 59.0625 10.2084 59.0625C13.02 59.0625 15.6571 57.6384 17.2162 55.3125H38.8265C40.3846 57.6384 43.0228 59.0625 45.8343 59.0625C48.8756 59.0625 51.7012 57.4463 53.2078 54.8447L53.864 53.7122L48.2737 52.5938L46.9603 50.625L48.2728 48.6553L53.8631 47.5369L53.2068 46.4044C52.1821 44.6362 50.5425 43.3397 48.6459 42.6797V37.4344C52.0321 37.0097 54.7181 34.3228 55.1437 30.9366H55.2084C56.759 30.9366 58.0209 29.6747 58.0209 28.1241C58.0209 26.5734 56.759 25.3116 55.2084 25.3116H54.9881L58.4418 18.8738C59.3934 17.1075 59.8959 15.1125 59.8959 13.1053ZM16.7709 4.13812V10.3125H10.5965L16.7709 4.13812ZM47.1431 46.9697L44.7065 50.625L47.144 54.2803L50.7796 55.0069C49.5375 56.3756 47.7403 57.1875 45.8334 57.1875C43.5046 57.1875 41.3287 55.9294 40.1559 53.9053L39.885 53.4375H16.1568L15.8859 53.9053C14.7131 55.9294 12.5371 57.1875 10.2084 57.1875C8.30152 57.1875 6.50434 56.3756 5.26309 55.0078L8.89871 54.2812L11.3362 50.6259L8.89871 46.9706L5.26309 46.2441C6.50434 44.8744 8.30152 44.0625 10.2084 44.0625C12.5371 44.0625 14.7131 45.3206 15.8859 47.3447L16.1568 47.8125H39.8859L40.1568 47.3447C41.3287 45.3206 43.5046 44.0625 45.8334 44.0625C47.7403 44.0625 49.5375 44.8744 50.7787 46.2422L47.1431 46.9697ZM45.8334 42.1875C43.0218 42.1875 40.3846 43.6116 38.8256 45.9375H17.2162C15.6581 43.6116 13.02 42.1875 10.2084 42.1875C9.89246 42.1875 9.58121 42.2156 9.2709 42.2494V12.1875H18.6459V2.8125H41.2293C38.0512 4.81406 35.865 8.23687 35.5678 12.1875H20.5209V23.4375H11.1459V40.3125H31.7709V29.0625H37.5684C37.9565 30.1509 38.9878 30.9375 40.2084 30.9375H40.2731C40.6978 34.3237 43.3846 37.0097 46.7709 37.4353V42.2494C46.4606 42.2156 46.1493 42.1875 45.8334 42.1875ZM37.5684 27.1875H22.3959V14.0625H35.5809C35.715 15.7416 36.1753 17.3888 36.975 18.8747L40.4381 25.3125H40.2084C38.9878 25.3125 37.9565 26.0991 37.5684 27.1875ZM29.8959 29.0625V38.4375H13.0209V25.3125H20.5209V29.0625H29.8959ZM47.7084 35.625C44.9268 35.625 42.6168 33.5934 42.1678 30.9375H53.249C52.8 33.5934 50.49 35.625 47.7084 35.625ZM56.1459 28.125C56.1459 28.6416 55.7259 29.0625 55.2084 29.0625H40.2084C39.6909 29.0625 39.2709 28.6416 39.2709 28.125C39.2709 27.6084 39.6909 27.1875 40.2084 27.1875H55.2084C55.7259 27.1875 56.1459 27.6084 56.1459 28.125ZM47.0193 15H48.3984L47.8556 25.3125H47.5621L47.0193 15ZM56.7909 17.9859L52.8459 25.3125H49.7334L50.2753 15H51.4584C53.009 15 54.2709 13.7381 54.2709 12.1875C54.2709 10.6369 53.009 9.375 51.4584 9.375H51.3618C49.8646 9.375 48.6318 10.5459 48.5531 12.0394L48.4968 13.125H46.92L46.8628 12.0403C46.785 10.5459 45.5512 9.375 44.055 9.375H43.9584C42.4078 9.375 41.1459 10.6369 41.1459 12.1875C41.1459 13.7381 42.4078 15 43.9584 15H45.1415L45.6834 25.3125H42.5718L38.6268 17.9859C37.8215 16.4906 37.3959 14.8031 37.3959 13.1053C37.3959 7.42969 42.014 2.8125 47.7281 2.8125C53.4028 2.8125 58.0209 7.42969 58.0209 13.1053C58.0209 14.8031 57.5953 16.4906 56.7909 17.9859ZM50.3746 13.125L50.4271 12.1378C50.4525 11.64 50.8631 11.25 51.3618 11.25H51.4584C51.9759 11.25 52.3959 11.6709 52.3959 12.1875C52.3959 12.7041 51.9759 13.125 51.4584 13.125H50.3746ZM45.0421 13.125H43.9584C43.4409 13.125 43.0209 12.7041 43.0209 12.1875C43.0209 11.6709 43.4409 11.25 43.9584 11.25H44.055C44.5537 11.25 44.9653 11.64 44.9906 12.1388L45.0421 13.125Z" fill="#357CDB"/>
</svg>
