<svg width="60" height="60" viewBox="0 0 60 60" fill="none" xmlns="http://www.w3.org/2000/svg">
<g clip-path="url(#clip0_2002_1409)">
<mask id="mask0_2002_1409" style="mask-type:luminance" maskUnits="userSpaceOnUse" x="-1" y="0" width="61" height="60">
<path d="M-0.5 3.8147e-06H59.5V60H-0.5V3.8147e-06Z" fill="white"/>
</mask>
<g mask="url(#mask0_2002_1409)">
<path d="M6.37015 51.9922H10.5485C11.1928 51.9922 11.7151 51.4699 11.7151 50.8255V34.9709C11.7151 34.3266 11.1928 33.8042 10.5485 33.8042H6.37015C5.72573 33.8042 5.20343 34.3266 5.20343 34.9709V50.8255C5.20343 51.4699 5.72573 51.9922 6.37015 51.9922Z" stroke="#357CDB" stroke-width="2" stroke-miterlimit="10" stroke-linecap="round" stroke-linejoin="round"/>
<path d="M8.45923 33.2076V52.5894" stroke="#357CDB" stroke-width="2" stroke-miterlimit="10" stroke-linecap="round" stroke-linejoin="round"/>
<path d="M24.0148 55.1422C25.6893 55.8936 27.5459 56.3115 29.5001 56.3115C34.4565 56.3115 38.7851 53.6231 41.107 49.6249C41.1606 49.5327 41.2583 49.4754 41.3648 49.4754H47.2849" stroke="#357CDB" stroke-width="2" stroke-miterlimit="10" stroke-linecap="round" stroke-linejoin="round"/>
<path d="M11.7151 49.4754H17.6353C17.7418 49.4754 17.8394 49.5328 17.893 49.625C18.605 50.8511 19.5059 51.9541 20.5557 52.894" stroke="#357CDB" stroke-width="2" stroke-miterlimit="10" stroke-linecap="round" stroke-linejoin="round"/>
<path d="M47.285 36.3213H41.3648C41.2582 36.3213 41.1606 36.264 41.1071 36.1719C38.785 32.1737 34.4566 29.4853 29.5 29.4853C24.5435 29.4853 20.215 32.1737 17.8929 36.1719C17.8395 36.264 17.7417 36.3213 17.6352 36.3213H11.7151" stroke="#357CDB" stroke-width="2" stroke-miterlimit="10" stroke-linecap="round" stroke-linejoin="round"/>
<path d="M47.2849 38.13V34.9709C47.2849 34.3266 47.8073 33.8042 48.4516 33.8042H52.6298C53.2742 33.8042 53.7966 34.3266 53.7966 34.9709V50.8255C53.7966 51.4699 53.2742 51.9922 52.6298 51.9922H48.4516C47.8073 51.9922 47.2849 51.4699 47.2849 50.8255V42.2315" stroke="#357CDB" stroke-width="2" stroke-miterlimit="10" stroke-linecap="round" stroke-linejoin="round"/>
<path d="M50.5408 33.2076V52.5894" stroke="#357CDB" stroke-width="2" stroke-miterlimit="10" stroke-linecap="round" stroke-linejoin="round"/>
<path d="M42.4113 46.5459C42.7382 45.3862 42.9132 44.1628 42.9132 42.8984C42.9132 41.6342 42.7382 40.4108 42.4113 39.2511" stroke="#357CDB" stroke-width="2" stroke-miterlimit="10" stroke-linecap="round" stroke-linejoin="round"/>
<path d="M16.5888 39.2511C16.2618 40.4108 16.0869 41.6342 16.0869 42.8986C16.0869 44.1628 16.2618 45.3862 16.5888 46.5459" stroke="#357CDB" stroke-width="2" stroke-miterlimit="10" stroke-linecap="round" stroke-linejoin="round"/>
<path d="M34.6503 44.9156C34.6503 47.76 32.3444 50.0659 29.5 50.0659C26.6555 50.0659 24.3497 47.76 24.3497 44.9156C24.3497 42.0713 28.4556 35.731 29.5 35.731C30.5444 35.731 34.6503 42.0713 34.6503 44.9156Z" stroke="#357CDB" stroke-width="2" stroke-miterlimit="10" stroke-linecap="round" stroke-linejoin="round"/>
<path d="M27.2794 44.9155C27.2794 44.6612 27.5355 43.4718 28.6728 41.4131" stroke="#357CDB" stroke-width="2" stroke-miterlimit="10" stroke-linecap="round" stroke-linejoin="round"/>
<path d="M56.9898 19.5512L52.8142 16.4644C52.7358 16.4063 52.6247 16.4624 52.6247 16.5599V17.5426C52.6247 17.6082 52.5716 17.6614 52.5059 17.6614H44.2231C44.1575 17.6614 44.1043 17.7146 44.1043 17.7801V21.5133C44.1043 21.5788 44.1575 21.632 44.2231 21.632H52.5059C52.5716 21.632 52.6247 21.6852 52.6247 21.7508V22.7335C52.6247 22.831 52.7358 22.887 52.8142 22.829L56.9898 19.7422C57.054 19.6947 57.054 19.5986 56.9898 19.5512Z" stroke="#357CDB" stroke-width="2" stroke-miterlimit="10" stroke-linecap="round" stroke-linejoin="round"/>
<path d="M44.1525 11.2748L48.3282 8.18798C48.4066 8.12998 48.5175 8.18599 48.5175 8.28349V9.26623C48.5175 9.33185 48.5707 9.38505 48.6364 9.38505H56.9192C56.9847 9.38505 57.038 9.43826 57.038 9.50376V13.2369C57.038 13.3024 56.9847 13.3556 56.9192 13.3556H48.6364C48.5707 13.3556 48.5175 13.4088 48.5175 13.4744V14.4572C48.5175 14.5547 48.4066 14.6107 48.3282 14.5527L44.1525 11.4658C44.0883 11.4184 44.0883 11.3223 44.1525 11.2748Z" stroke="#357CDB" stroke-width="2" stroke-miterlimit="10" stroke-linecap="round" stroke-linejoin="round"/>
<path d="M2.01026 19.5512L6.18589 16.4644C6.26428 16.4063 6.37538 16.4624 6.37538 16.5599V17.5426C6.37538 17.6082 6.42846 17.6614 6.49409 17.6614H14.7769C14.8425 17.6614 14.8957 17.7146 14.8957 17.7801V21.5133C14.8957 21.5788 14.8425 21.632 14.7769 21.632H6.49409C6.42846 21.632 6.37538 21.6852 6.37538 21.7508V22.7335C6.37538 22.831 6.26428 22.887 6.18589 22.829L2.01026 19.7422C1.94604 19.6947 1.94604 19.5986 2.01026 19.5512Z" stroke="#357CDB" stroke-width="2" stroke-miterlimit="10" stroke-linecap="round" stroke-linejoin="round"/>
<path d="M4.13926 9.38505H2.08086C2.01524 9.38505 1.96204 9.43826 1.96204 9.50376V13.2369C1.96204 13.3024 2.01524 13.3556 2.08086 13.3556H10.3637C10.4293 13.3556 10.4825 13.4088 10.4825 13.4744V14.4572C10.4825 14.5547 10.5935 14.6107 10.6719 14.5527L14.8475 11.4658C14.9117 11.4184 14.9117 11.3223 14.8475 11.2748L10.6719 8.18798C10.5935 8.12998 10.4825 8.18599 10.4825 8.28349V9.26623C10.4825 9.33185 10.4293 9.38505 10.3637 9.38505H8.24083" stroke="#357CDB" stroke-width="2" stroke-miterlimit="10" stroke-linecap="round" stroke-linejoin="round"/>
<path d="M29.5 18.8309C27.2899 18.8309 25.4984 17.0393 25.4984 14.8293C25.4984 12.6193 27.2899 10.8277 29.5 10.8277C31.71 10.8277 33.5016 12.6193 33.5016 14.8293C33.5016 17.0393 31.71 18.8309 29.5 18.8309ZM40.3926 12.8542L37.5551 12.0939C37.5306 12.0875 37.511 12.0691 37.5027 12.0452C37.3948 11.7346 37.2692 11.4324 37.1273 11.1395C37.1162 11.1167 37.1172 11.09 37.1298 11.0679L38.5988 8.52367C38.6745 8.39254 38.6527 8.22684 38.5456 8.11984L36.2094 5.78371C36.1024 5.6766 35.9367 5.65481 35.8056 5.73051L33.2614 7.19945C33.2393 7.21223 33.2126 7.21305 33.1898 7.20203C32.8969 7.06012 32.5947 6.93449 32.2841 6.82645C32.2602 6.81813 32.2418 6.79867 32.2353 6.77418L31.4751 3.93672C31.4359 3.79047 31.3033 3.68875 31.1519 3.68875H27.8481C27.6967 3.68875 27.5642 3.79047 27.5249 3.93672L26.7647 6.77418C26.7582 6.79867 26.7398 6.81813 26.7158 6.82645C26.4054 6.93449 26.1031 7.06012 25.8102 7.20203C25.7874 7.21305 25.7607 7.21223 25.7386 7.19945L23.1944 5.73051C23.0632 5.65481 22.8976 5.6766 22.7905 5.78371L20.4544 8.11984C20.3473 8.22684 20.3255 8.39254 20.4012 8.52367L21.8703 11.0679C21.8829 11.09 21.8837 11.1167 21.8727 11.1395C21.7308 11.4324 21.6052 11.7346 21.4973 12.0452C21.4889 12.0691 21.4694 12.0875 21.4449 12.0939L18.6074 12.8542C18.4612 12.8934 18.3596 13.0259 18.3596 13.1774V16.4812C18.3596 16.6326 18.4612 16.7651 18.6074 16.8044L21.4449 17.5646C21.4694 17.5711 21.4889 17.5894 21.4973 17.6134C21.6052 17.9239 21.7308 18.2262 21.8727 18.5189C21.8837 18.5419 21.8829 18.5686 21.8703 18.5905L20.4012 21.1349C20.3255 21.2661 20.3473 21.4316 20.4544 21.5388L22.7905 23.8749C22.8976 23.982 23.0632 24.0038 23.1944 23.9281L25.7386 22.459C25.7607 22.4464 25.7874 22.4455 25.8102 22.4566C26.1031 22.5985 26.4054 22.724 26.7158 22.832C26.7398 22.8404 26.7582 22.8599 26.7647 22.8844L27.5249 25.7218C27.5642 25.8681 27.6967 25.9697 27.8481 25.9697H31.1519C31.3033 25.9697 31.4359 25.8681 31.4751 25.7218L32.2353 22.8844C32.2418 22.8599 32.2602 22.8404 32.2841 22.832C32.5947 22.724 32.8969 22.5985 33.1898 22.4566C33.2126 22.4455 33.2393 22.4464 33.2614 22.459L35.8056 23.9281C35.9367 24.0038 36.1024 23.982 36.2094 23.8749L38.5456 21.5388C38.6527 21.4316 38.6745 21.2661 38.5988 21.1349L37.1298 18.5905C37.1172 18.5686 37.1162 18.5419 37.1273 18.5189C37.2692 18.2262 37.3948 17.9239 37.5027 17.6134C37.511 17.5894 37.5306 17.5711 37.5551 17.5646L40.3926 16.8044C40.5388 16.7651 40.6405 16.6326 40.6405 16.4812V13.1774C40.6405 13.0259 40.5388 12.8934 40.3926 12.8542Z" stroke="#357CDB" stroke-width="2" stroke-miterlimit="10" stroke-linecap="round" stroke-linejoin="round"/>
<path d="M5.20346 49.4756H0.657991C0.503889 49.4756 0.378967 49.3507 0.378967 49.1966V36.6005C0.378967 36.4464 0.503889 36.3214 0.657991 36.3214H5.20346" stroke="#357CDB" stroke-width="2" stroke-miterlimit="10" stroke-linecap="round" stroke-linejoin="round"/>
<path d="M53.7966 49.4756H58.342C58.4961 49.4756 58.6211 49.3507 58.6211 49.1966V36.6005C58.6211 36.4464 58.4961 36.3214 58.342 36.3214H53.7966" stroke="#357CDB" stroke-width="2" stroke-miterlimit="10" stroke-linecap="round" stroke-linejoin="round"/>
</g>
</g>
<defs>
<clipPath id="clip0_2002_1409">
<rect width="60" height="60" fill="white" transform="translate(-0.5)"/>
</clipPath>
</defs>
</svg>
