<svg width="61" height="60" viewBox="0 0 61 60" fill="none" xmlns="http://www.w3.org/2000/svg">
<g clip-path="url(#clip0_2002_634)">
<path d="M17.4634 18.2194L44.1631 44.9192L45.407 43.6753L18.7072 16.9756L17.4634 18.2194Z" fill="#357CDB"/>
<path d="M52.8304 47.7732C51.6101 47.7732 50.4628 48.2484 49.5998 49.1114C47.8184 50.8927 47.8184 53.7914 49.5998 55.5727C50.4628 56.4357 51.6101 56.9109 52.8304 56.9109C54.0507 56.9109 55.1981 56.4357 56.0611 55.5727C57.8424 53.7914 57.8424 50.8927 56.0611 49.1114C55.1982 48.2484 54.0508 47.7732 52.8304 47.7732ZM54.8171 54.3288C54.2864 54.8595 53.5809 55.1518 52.8303 55.1518C52.0797 55.1518 51.3742 54.8595 50.8435 54.3288C49.7479 53.2332 49.7479 51.4508 50.8435 50.3553C51.3742 49.8246 52.0797 49.5323 52.8303 49.5323C53.5809 49.5323 54.2864 49.8246 54.8171 50.3553C55.9126 51.4508 55.9126 53.2332 54.8171 54.3288Z" fill="#357CDB"/>
<path d="M52.8046 44.6422C52.5234 44.6422 52.241 44.6577 51.9606 44.6885L35.2538 27.9817L46.1047 17.1309L46.882 17.9082L47.6704 17.1197L49.3168 18.7661L47.6429 20.44L51.8525 24.6496L60.4999 16.0022L56.2903 11.7926L54.6131 13.4698L52.9667 11.8234L53.7584 11.0317L46.882 4.15524L46.051 4.98622C44.4743 3.75516 42.2918 3.06188 39.9214 3.06188C39.4483 3.06188 38.9771 3.09083 38.5209 3.14801C37.7186 3.24856 36.914 3.4343 36.1295 3.70009C36.0575 3.72458 35.9747 3.74942 35.8861 3.77637C35.2083 3.98204 33.9468 4.36501 33.8435 5.5288C33.8078 5.93157 33.8438 7.27771 35.8083 7.6908C36.9243 7.92552 38.0799 8.19892 38.9716 8.60674C40.1273 9.1356 40.6927 9.49162 41.1482 9.88936L40.0055 11.0321L40.7828 11.8094L29.9319 22.6602L18.444 11.1723L19.1392 6.6879L12.4635 0.0117188L4.89044 1.37133L10.9755 7.45642L10.4815 9.99307L7.9447 10.4872L1.85961 4.40216L0.5 11.9752L7.17583 18.651L11.6604 17.9559L23.1484 29.4438L1.60778 50.9844C0.676836 51.9155 0.676836 53.4305 1.60778 54.3614L3.55262 56.3061C4.00368 56.7572 4.60333 57.0056 5.24118 57.0056C5.87903 57.0056 6.47868 56.7572 6.92962 56.3061L28.4701 34.7657L45.1769 51.4726C44.9239 53.7787 45.7284 56.0926 47.3765 57.7407C48.8259 59.1902 50.7529 59.9884 52.8028 59.9884C54.8525 59.9884 56.7795 59.1901 58.229 57.7407C59.6785 56.2912 60.4767 54.3642 60.4767 52.3145C60.4767 50.2647 59.6783 48.3376 58.229 46.8882C56.7807 45.4399 54.8544 44.6422 52.8046 44.6422ZM55.8573 14.7139L56.2905 14.2805L58.0122 16.0022L51.8527 22.1617L50.131 20.44L53.1989 17.3721L55.8573 14.7139ZM53.3695 14.7139L51.9644 16.1189L50.561 17.5224L48.9146 15.876L51.723 13.0676L53.3695 14.7139ZM46.8822 6.64314L51.2708 11.0317L46.8822 15.4203L42.4936 11.0317L44.8571 8.66826L46.8822 6.64314ZM39.7035 7.00677C38.6553 6.52724 37.3859 6.22466 36.1704 5.96907C35.8422 5.90005 35.6842 5.80325 35.6247 5.75087C35.8097 5.6379 36.2104 5.51626 36.3972 5.45966C36.5055 5.42696 36.6061 5.39614 36.6941 5.36626C37.3667 5.13833 38.0548 4.97931 38.7396 4.89364C39.1236 4.8456 39.5211 4.82122 39.9215 4.82122C41.815 4.82122 43.5415 5.33099 44.7961 6.2413L42.3923 8.64506C41.7514 8.06767 41.0454 7.62072 39.7035 7.00677ZM42.027 13.0531L44.8608 15.8869L34.0099 26.7378L31.1761 23.904L42.027 13.0531ZM5.68556 55.0622C5.56673 55.1809 5.40899 55.2463 5.24106 55.2463C5.07313 55.2463 4.91528 55.1809 4.79645 55.0622L2.85172 53.1174C2.60657 52.8723 2.60657 52.4735 2.85172 52.2283L9.53916 45.5409L12.373 48.3747L5.68556 55.0622ZM13.6169 47.1308L10.7831 44.297L11.5781 43.502L14.4119 46.3358L13.6169 47.1308ZM15.6558 45.0918L12.8219 42.258L24.3922 30.6878L27.2261 33.5217L15.6558 45.0918ZM56.9852 56.4967C55.868 57.6138 54.3827 58.2291 52.8029 58.2291C51.2228 58.2291 49.7376 57.6138 48.6204 56.4967C47.2658 55.142 46.6506 53.2025 46.9756 51.3089L47.0526 50.8602L12.2731 16.0807L7.78861 16.7759L2.39411 11.3812L2.99633 8.02666L7.36251 12.3928L11.9816 11.4932L12.8812 6.87412L8.51494 2.50793L11.8694 1.90571L17.2641 7.30033L16.569 11.7847L28.6881 23.9038L34.0099 29.2257L51.3483 46.5641L51.7971 46.4871C52.1287 46.4302 52.4678 46.4013 52.8046 46.4013C54.3843 46.4013 55.8689 47.0158 56.985 48.1319C58.1021 49.2492 58.7173 50.7344 58.7173 52.3144C58.7175 53.8943 58.1021 55.3796 56.9852 56.4967Z" fill="#357CDB"/>
</g>
<defs>
<clipPath id="clip0_2002_634">
<rect width="60" height="60" fill="white" transform="translate(0.5)"/>
</clipPath>
</defs>
</svg>
