<svg width="61" height="60" viewBox="0 0 61 60" fill="none" xmlns="http://www.w3.org/2000/svg">
<path d="M18.3599 1.875C17.5093 1.87599 16.6937 2.21428 16.0922 2.81568C15.4906 3.41708 15.1521 4.2325 15.1508 5.08312V7.19531H10.3283C9.56365 7.19631 8.8306 7.50058 8.28998 8.04137C7.74936 8.58217 7.44532 9.31532 7.44458 10.08V47.1947C7.44532 47.9593 7.74939 48.6923 8.29003 49.233C8.83068 49.7736 9.56374 50.0777 10.3283 50.0784H13.1708V54.9816C13.1851 55.806 13.5226 56.5918 14.1106 57.1698C14.6987 57.7478 15.4902 58.0716 16.3147 58.0716C17.1393 58.0716 17.9308 57.7478 18.5189 57.1698C19.1069 56.5918 19.4444 55.806 19.4586 54.9816V50.0784H20.0971V54.9816C20.1113 55.806 20.4488 56.5918 21.0369 57.1698C21.6249 57.7478 22.4164 58.0716 23.241 58.0716C24.0655 58.0716 24.8571 57.7478 25.4451 57.1698C26.0332 56.5918 26.3707 55.806 26.3849 54.9816V50.0784H27.0224V54.9816C27.0224 55.8155 27.3537 56.6153 27.9434 57.205C28.533 57.7947 29.3328 58.1259 30.1668 58.1259C31.0007 58.1259 31.8005 57.7947 32.3902 57.205C32.9799 56.6153 33.3111 55.8155 33.3111 54.9816V50.0784H36.1536C36.9182 50.0777 37.6513 49.7736 38.1919 49.233C38.7326 48.6923 39.0366 47.9593 39.0374 47.1947V42.9375H40.8186C41.0603 42.9377 41.2927 42.8446 41.4674 42.6777C41.6421 42.5107 41.7455 42.2827 41.7561 42.0413C41.7827 41.4874 42.0215 40.9651 42.423 40.5828C42.8246 40.2005 43.3579 39.9875 43.9124 39.9881C44.4417 39.9916 44.9499 40.1964 45.3336 40.5609C45.5116 40.7237 45.7455 40.8116 45.9866 40.8063C46.2277 40.8011 46.4576 40.7031 46.6283 40.5328L50.4871 36.6891C50.6594 36.5171 50.7581 36.285 50.7623 36.0416C50.7665 35.7982 50.6758 35.5628 50.5096 35.385C50.1429 35.0019 49.9409 34.4903 49.9471 33.96C49.943 33.4071 50.1542 32.8743 50.536 32.4743C50.9178 32.0743 51.4402 31.8385 51.9927 31.8169C52.2354 31.8081 52.4653 31.7055 52.6339 31.5306C52.8025 31.3558 52.8966 31.1223 52.8965 30.8794V25.4222C52.8966 25.1793 52.8025 24.9458 52.6339 24.7709C52.4653 24.5961 52.2354 24.4934 51.9927 24.4847C51.4402 24.463 50.9178 24.2273 50.536 23.8273C50.1542 23.4273 49.943 22.8945 49.9471 22.3416C49.9449 21.8156 50.1465 21.3093 50.5096 20.9287C50.6757 20.7512 50.7663 20.516 50.7623 20.2728C50.7583 20.0297 50.6599 19.7976 50.488 19.6256L46.6293 15.7659C46.4585 15.5953 46.2284 15.4972 45.9871 15.492C45.7458 15.4867 45.5117 15.5748 45.3336 15.7378C44.9498 16.1022 44.4417 16.307 43.9124 16.3106C43.3578 16.3112 42.8243 16.0982 42.4227 15.7156C42.0212 15.3331 41.7824 14.8105 41.7561 14.2566C41.7455 14.0151 41.6421 13.7871 41.4674 13.6202C41.2927 13.4532 41.0603 13.3601 40.8186 13.3603H39.0374V10.0791C39.0366 9.31439 38.7326 8.58123 38.192 8.04043C37.6514 7.49964 36.9183 7.19537 36.1536 7.19438H31.3302V5.08312C31.3158 4.24165 30.9714 3.4395 30.3713 2.84951C29.7711 2.25952 28.9632 1.92891 28.1216 1.92891C27.28 1.92891 26.4721 2.25952 25.8719 2.84951C25.2718 3.4395 24.9274 4.24165 24.913 5.08312V7.19531H21.569V5.08312C21.568 4.23242 21.2295 3.41686 20.6279 2.8154C20.0263 2.21395 19.2106 1.87574 18.3599 1.875ZM17.5836 54.9816C17.5747 55.3121 17.437 55.6261 17.2 55.8568C16.9631 56.0874 16.6454 56.2164 16.3147 56.2164C15.9841 56.2164 15.6664 56.0874 15.4294 55.8568C15.1924 55.6261 15.0548 55.3121 15.0458 54.9816V50.0784H17.5836V54.9816ZM27.823 48.2034H18.6627V39.2466C18.663 39.0909 18.7248 38.9417 18.8348 38.8315C18.9448 38.7214 19.0939 38.6592 19.2496 38.6587H27.2315C27.3871 38.6592 27.5362 38.7214 27.6462 38.8315C27.7562 38.9417 27.8181 39.0909 27.8183 39.2466L27.823 48.2034ZM24.5146 54.9816C24.5056 55.3121 24.368 55.6261 24.131 55.8568C23.894 56.0874 23.5764 56.2164 23.2457 56.2164C22.915 56.2164 22.5974 56.0874 22.3604 55.8568C22.1234 55.6261 21.9858 55.3121 21.9768 54.9816V50.0784H24.5146V54.9816ZM31.4408 54.9816C31.4408 55.3182 31.3071 55.6411 31.069 55.8791C30.831 56.1172 30.5081 56.2509 30.1715 56.2509C29.8348 56.2509 29.5119 56.1172 29.2739 55.8791C29.0358 55.6411 28.9021 55.3182 28.9021 54.9816V50.0784H31.4408V54.9816ZM39.0421 22.3284C40.4259 22.5513 41.6852 23.2597 42.5942 24.3267C43.5031 25.3937 44.0023 26.7496 44.0023 28.1512C44.0023 29.5529 43.5031 30.9088 42.5942 31.9758C41.6852 33.0428 40.4259 33.7512 39.0421 33.9741V22.3284ZM40.0246 15.2363C40.2594 16.0855 40.7665 16.8341 41.468 17.3673C42.1695 17.9004 43.0266 18.1886 43.9077 18.1875C44.5947 18.1861 45.2692 18.0037 45.8633 17.6588L48.5877 20.3841C48.2415 20.9788 48.0609 21.6553 48.0646 22.3434C48.064 23.2245 48.3521 24.0814 48.8847 24.7832C49.4174 25.485 50.1653 25.9929 51.014 26.2294V30.0731C50.1653 30.3096 49.4174 30.8175 48.8847 31.5193C48.3521 32.2211 48.064 33.078 48.0646 33.9591C48.0609 34.65 48.2411 35.3295 48.5868 35.9278L45.868 38.6466C45.2736 38.3013 44.5988 38.1187 43.9115 38.1169C43.0296 38.1136 42.1712 38.4001 41.4681 38.9323C40.765 39.4645 40.2562 40.2129 40.0199 41.0625H39.0374V35.8612C40.9218 35.6332 42.6575 34.7229 43.9165 33.3024C45.1755 31.8819 45.8706 30.0494 45.8706 28.1512C45.8706 26.2531 45.1755 24.4207 43.9165 23.0001C42.6575 21.5796 40.9218 20.6693 39.0374 20.4412V15.2363H40.0246ZM37.1671 10.08V47.1947C37.1668 47.4621 37.0605 47.7186 36.8713 47.9077C36.6822 48.0968 36.4258 48.2032 36.1583 48.2034H29.698V39.2466C29.6973 38.5938 29.4377 37.9679 28.9762 37.5062C28.5147 37.0446 27.8889 36.7847 27.2361 36.7837H19.2496C18.5968 36.7847 17.971 37.0446 17.5095 37.5062C17.048 37.9679 16.7884 38.5938 16.7877 39.2466V48.2034H10.3283C10.0608 48.2034 9.80421 48.0972 9.61504 47.908C9.42586 47.7188 9.31958 47.4622 9.31958 47.1947V10.08C9.31958 9.81238 9.42583 9.5557 9.61498 9.36637C9.80413 9.17705 10.0607 9.07056 10.3283 9.07031H36.1536C36.4212 9.07081 36.6776 9.17737 36.8667 9.36665C37.0558 9.55592 37.1621 9.81245 37.1624 10.08H37.1671ZM26.7918 5.08312C26.801 4.73556 26.9455 4.40532 27.1946 4.16274C27.4437 3.92017 27.7777 3.78442 28.1254 3.78442C28.4731 3.78442 28.807 3.92017 29.0561 4.16274C29.3052 4.40532 29.4497 4.73556 29.459 5.08312V7.19531H26.7918V5.08312ZM17.0258 7.19531V5.08312C17.0258 4.72931 17.1664 4.38999 17.4166 4.1398C17.6668 3.88962 18.0061 3.74906 18.3599 3.74906C18.7137 3.74906 19.053 3.88962 19.3032 4.1398C19.5534 4.38999 19.694 4.72931 19.694 5.08312V7.19531H17.0258Z" fill="#357CDB"/>
<path d="M23.2405 40.23C22.6073 40.23 21.9883 40.4177 21.4618 40.7695C20.9353 41.1213 20.525 41.6214 20.2826 42.2064C20.0403 42.7914 19.9769 43.4351 20.1005 44.0561C20.224 44.6772 20.5289 45.2476 20.9767 45.6954C21.4244 46.1431 21.9949 46.4481 22.6159 46.5716C23.237 46.6951 23.8807 46.6317 24.4657 46.3894C25.0507 46.1471 25.5507 45.7367 25.9025 45.2102C26.2543 44.6837 26.4421 44.0648 26.4421 43.4315C26.4411 42.5827 26.1034 41.769 25.5033 41.1688C24.9031 40.5686 24.0893 40.231 23.2405 40.23ZM23.2405 44.7581C22.9781 44.7581 22.7217 44.6803 22.5035 44.5345C22.2854 44.3888 22.1153 44.1816 22.0149 43.9392C21.9145 43.6968 21.8882 43.4301 21.9394 43.1727C21.9906 42.9154 22.117 42.679 22.3025 42.4935C22.488 42.308 22.7244 42.1817 22.9817 42.1305C23.239 42.0793 23.5058 42.1056 23.7482 42.206C23.9906 42.3064 24.1977 42.4764 24.3435 42.6945C24.4893 42.9127 24.5671 43.1692 24.5671 43.4315C24.5666 43.7832 24.4266 44.1203 24.178 44.369C23.9293 44.6177 23.5922 44.7576 23.2405 44.7581Z" fill="#357CDB"/>
<path d="M12.1415 14.7273V24.526C12.1415 24.7747 12.2403 25.0131 12.4161 25.189C12.5919 25.3648 12.8303 25.4635 13.079 25.4635H33.4021C33.6507 25.4635 33.8892 25.3648 34.065 25.189C34.2408 25.0131 34.3396 24.7747 34.3396 24.526V14.7273C34.3396 14.4787 34.2408 14.2402 34.065 14.0644C33.8892 13.8886 33.6507 13.7898 33.4021 13.7898H13.079C12.8303 13.7898 12.5919 13.8886 12.4161 14.0644C12.2403 14.2402 12.1415 14.4787 12.1415 14.7273ZM14.0165 15.6648H32.4646V23.5885H14.0165V15.6648Z" fill="#357CDB"/>
</svg>
