<svg width="59" height="60" viewBox="0 0 59 60" fill="none" xmlns="http://www.w3.org/2000/svg">
<path d="M1.68085 41.0684V3.24609C1.68085 1.93828 2.74022 0.878906 4.04921 0.878906H43.1137C44.4215 0.878906 45.4808 1.93828 45.4808 3.24609V8.76797" stroke="#357CDB" stroke-width="2" stroke-miterlimit="10" stroke-linecap="round" stroke-linejoin="round"/>
<path d="M1.68085 45.1816V56.7539C1.68085 58.0617 2.74022 59.1211 4.04921 59.1211H35.3008" stroke="#357CDB" stroke-width="2" stroke-miterlimit="10" stroke-linecap="round" stroke-linejoin="round"/>
<path d="M45.4808 27.3962V12.8813" stroke="#357CDB" stroke-width="2" stroke-miterlimit="10" stroke-linecap="round" stroke-linejoin="round"/>
<path d="M14.9395 14.1372L21.6359 20.8338" stroke="#357CDB" stroke-width="2" stroke-miterlimit="10" stroke-linecap="round" stroke-linejoin="round"/>
<path d="M14.9395 23.6075C20.1697 23.6075 24.4097 19.3676 24.4097 14.1373C24.4097 8.90698 20.1697 4.66699 14.9395 4.66699C9.70916 4.66699 5.46918 8.90698 5.46918 14.1373C5.46918 19.3676 9.70916 23.6075 14.9395 23.6075Z" stroke="#357CDB" stroke-width="2" stroke-miterlimit="10" stroke-linecap="round" stroke-linejoin="round"/>
<path d="M14.9395 4.66699V14.1373H24.4097" stroke="#357CDB" stroke-width="2" stroke-miterlimit="10" stroke-linecap="round" stroke-linejoin="round"/>
<path d="M40.7459 8.45496H28.9081C28.3851 8.45496 27.9611 8.03098 27.9611 7.50797V5.61398C27.9611 5.09098 28.3851 4.66699 28.9081 4.66699H40.7459C41.2689 4.66699 41.6929 5.09098 41.6929 5.61398V7.50809C41.693 8.03098 41.269 8.45496 40.7459 8.45496Z" stroke="#357CDB" stroke-width="2" stroke-miterlimit="10" stroke-linecap="round" stroke-linejoin="round"/>
<path d="M35.3005 16.0312H27.9611" stroke="#357CDB" stroke-width="2" stroke-miterlimit="10" stroke-linecap="round" stroke-linejoin="round"/>
<path d="M35.3005 23.6074H27.9611" stroke="#357CDB" stroke-width="2" stroke-miterlimit="10" stroke-linecap="round" stroke-linejoin="round"/>
<path d="M41.693 12.2432H27.9611" stroke="#357CDB" stroke-width="2" stroke-miterlimit="10" stroke-linecap="round" stroke-linejoin="round"/>
<path d="M41.693 19.8193H27.9611" stroke="#357CDB" stroke-width="2" stroke-miterlimit="10" stroke-linecap="round" stroke-linejoin="round"/>
<path d="M14.2292 33.5513H9.25726" stroke="#357CDB" stroke-width="2" stroke-miterlimit="10" stroke-linecap="round" stroke-linejoin="round"/>
<path d="M18.0846 29.7632H9.25726" stroke="#357CDB" stroke-width="2" stroke-miterlimit="10" stroke-linecap="round" stroke-linejoin="round"/>
<path d="M5.46918 55.3328L10.8999 45.0357H16.0332L19.5323 36.903H23.2259L26.5405 30.6035" stroke="#357CDB" stroke-width="2" stroke-miterlimit="10" stroke-linecap="round" stroke-linejoin="round"/>
<path d="M26.5405 55.3329H5.46918V27.3955" stroke="#357CDB" stroke-width="2" stroke-miterlimit="10" stroke-linecap="round" stroke-linejoin="round"/>
<path d="M5.46918 55.3331L13.1664 49.4024H19.6746L23.5811 44.5028L26.5405 43.9688" stroke="#357CDB" stroke-width="2" stroke-miterlimit="10" stroke-linecap="round" stroke-linejoin="round"/>
<path d="M37.4313 54.3859V40.1804C37.4313 39.6574 37.8553 39.2334 38.3783 39.2334H52.5838C53.1068 39.2334 53.5308 39.6574 53.5308 40.1804V54.3859C53.5308 54.9089 53.1068 55.3328 52.5838 55.3328H38.3783C37.8553 55.3328 37.4313 54.9089 37.4313 54.3859Z" stroke="#357CDB" stroke-width="2" stroke-miterlimit="10" stroke-linecap="round" stroke-linejoin="round"/>
<path d="M37.4313 34.4981V32.1306C37.4313 31.6076 37.8553 31.1836 38.3783 31.1836H52.5838C53.1068 31.1836 53.5308 31.6076 53.5308 32.1306V34.4981C53.5308 35.0211 53.1068 35.4451 52.5838 35.4451H38.3783C37.8553 35.4451 37.4313 35.0211 37.4313 34.4981Z" stroke="#357CDB" stroke-width="2" stroke-miterlimit="10" stroke-linecap="round" stroke-linejoin="round"/>
<path d="M57.3191 44.1315V57.464C57.3191 58.3792 56.5773 59.121 55.6621 59.121H35.3008C34.3855 59.121 33.6437 58.3792 33.6437 57.464V29.053C33.6437 28.1378 34.3855 27.396 35.3008 27.396H55.6621C56.5773 27.396 57.3191 28.1378 57.3191 29.053V40.0183" stroke="#357CDB" stroke-width="2" stroke-miterlimit="10" stroke-linecap="round" stroke-linejoin="round"/>
<path d="M45.4811 39.2334V55.3328" stroke="#357CDB" stroke-width="2" stroke-miterlimit="10" stroke-linecap="round" stroke-linejoin="round"/>
<path d="M53.5308 47.2832H37.4313" stroke="#357CDB" stroke-width="2" stroke-miterlimit="10" stroke-linecap="round" stroke-linejoin="round"/>
</svg>
