<svg width="61" height="60" viewBox="0 0 61 60" fill="none" xmlns="http://www.w3.org/2000/svg">
<path d="M14.866 5.28205V1.73385C14.866 1.22361 15.2795 0.810059 15.7897 0.810059H42.164C42.6742 0.810059 43.0878 1.22361 43.0878 1.73385V16.7334L45.0429 14.1696C45.3524 13.7637 45.932 13.6856 46.3377 13.9952C46.7434 14.3046 46.8215 14.8842 46.5121 15.2899L42.9114 20.0115C42.8831 20.0503 42.8516 20.0872 42.8169 20.1217C42.7402 20.1987 42.6522 20.2597 42.5576 20.3041C42.4326 20.3631 42.2981 20.392 42.1646 20.392C42.1642 20.392 42.1637 20.392 42.1631 20.392C42.0304 20.392 41.8969 20.3636 41.7724 20.3053C41.6766 20.2605 41.5874 20.1988 41.5098 20.1208C41.4754 20.0865 41.4442 20.0497 41.4162 20.0112L37.8188 15.2897C37.5095 14.8838 37.5879 14.3042 37.9937 13.9949C38.3994 13.6862 38.9793 13.7641 39.2884 14.1699L41.2401 16.7314V2.65775H16.7135V5.28205C16.7135 5.79229 16.3 6.20584 15.7897 6.20584C15.2795 6.20584 14.866 5.79229 14.866 5.28205ZM19.5306 26.9436C19.1331 27.2634 19.0701 27.845 19.39 28.2425C19.5724 28.4694 19.8402 28.5874 20.1103 28.5872C20.3135 28.5872 20.5183 28.5206 20.6889 28.3832C22.5477 26.8877 23.6138 24.6646 23.6138 22.284C23.6138 17.9716 20.104 14.4633 15.7897 14.4633C11.4755 14.4633 7.969 17.9716 7.969 22.284C7.969 23.7208 8.36041 25.1239 9.10092 26.3417C9.36611 26.7776 9.93424 26.9164 10.3703 26.651C10.8062 26.3859 10.9447 25.8176 10.6797 25.3816C10.1152 24.4532 9.8167 23.3821 9.8167 22.284C9.8167 18.9904 12.4962 16.3109 15.7897 16.3109C19.0833 16.3109 21.7661 18.9904 21.7661 22.284C21.7661 24.1022 20.9513 25.8005 19.5306 26.9436ZM26.7131 31.0052C27.1824 30.4208 27.1367 29.5806 26.6067 29.0508L26.0599 28.5039C26.6916 27.4654 27.1574 26.3397 27.4478 25.1503H28.2198C28.9642 25.1503 29.592 24.5919 29.6808 23.8448C29.7961 22.8101 29.7961 21.7608 29.6802 20.7208C29.5931 19.9797 28.9654 19.421 28.2199 19.421H27.448C27.1586 18.2334 26.6926 17.1067 26.0611 16.0661L26.6069 15.5204C27.1336 14.9937 27.1812 14.1543 26.7142 13.564C26.3843 13.1517 26.0324 12.7598 25.6746 12.4053C25.3138 12.0411 24.9218 11.6892 24.5059 11.3566C23.9209 10.8935 23.0815 10.9422 22.5533 11.4703L22.0096 12.014C20.9674 11.3815 19.842 10.9157 18.6562 10.626V9.85412C18.6562 9.10271 18.0932 8.47576 17.3507 8.39631C16.3162 8.28111 15.2669 8.28111 14.2374 8.39572C13.4902 8.47482 12.9267 9.10178 12.9267 9.85412V10.6259C11.7408 10.915 10.6153 11.3803 9.57014 12.0141L9.03143 11.4755C8.50525 10.9409 7.66361 10.8898 7.06994 11.3596C6.65791 11.6892 6.26604 12.041 5.91107 12.3994C5.54709 12.7599 5.19529 13.1519 4.86213 13.5683C4.39537 14.1584 4.44658 14.9999 4.97451 15.5192L5.51979 16.0667C4.88674 17.1074 4.42057 18.234 4.13135 19.4211H3.35955C2.60721 19.4211 1.98037 19.9845 1.90186 20.7264C1.78654 21.7611 1.78654 22.8104 1.90139 23.8409C1.98131 24.5874 2.60814 25.1504 3.35955 25.1504H4.13158C4.42209 26.3404 4.88814 27.4663 5.51943 28.504L4.97264 29.051C4.61193 29.4117 4.61193 29.9967 4.97264 30.3574C5.33346 30.7181 5.91834 30.7181 6.27916 30.3574L7.03783 29.5986C7.53107 29.1052 7.61299 28.3517 7.23623 27.7649C6.58607 26.756 6.12576 25.6435 5.86783 24.4583C5.71947 23.7779 5.1292 23.3027 4.43217 23.3027H3.70525C3.64889 22.6274 3.64889 21.9467 3.70525 21.2687H4.43205C5.12709 21.2687 5.71725 20.7945 5.86795 20.1122C6.12471 18.9294 6.58502 17.817 7.23693 16.8052C7.61311 16.2196 7.53107 15.4659 7.03912 14.974L6.52361 14.4563C6.74521 14.1947 6.97678 13.9441 7.21736 13.7056C7.45162 13.4691 7.70147 13.2384 7.96127 13.0184L8.47807 13.5352C8.97283 14.0302 9.72729 14.1094 10.3077 13.7314C11.3223 13.0795 12.436 12.6189 13.6213 12.3617C14.3001 12.2116 14.7742 11.6215 14.7742 10.9265V10.1996C15.4497 10.1433 16.1308 10.1433 16.8083 10.1996V10.9265C16.8083 11.6234 17.2834 12.2138 17.9642 12.3624C19.1446 12.6193 20.2574 13.0798 21.2665 13.7282C21.8519 14.1096 22.6062 14.0303 23.1011 13.5353L23.6179 13.0185C23.8791 13.2398 24.1296 13.4712 24.368 13.7117C24.6047 13.9463 24.836 14.1969 25.0567 14.4574L24.5417 14.9724C24.0508 15.4631 23.968 16.2141 24.3423 16.8019C24.9941 17.8167 25.4548 18.9303 25.712 20.1154C25.8619 20.7943 26.4521 21.2685 27.1472 21.2685H27.8774C27.9339 21.9462 27.9339 22.6287 27.8774 23.3026H27.1471C26.4501 23.3026 25.8597 23.7778 25.7113 24.4584C25.4535 25.6434 24.9931 26.7557 24.3368 27.7743C23.9694 28.3604 24.0536 29.1105 24.5414 29.5986L25.0551 30.1122C24.8351 30.372 24.6039 30.6235 24.3648 30.8626C24.1266 31.1007 23.8751 31.3319 23.6161 31.551L23.1067 31.0416C22.6172 30.5435 21.8626 30.4604 21.2718 30.8397C20.8424 31.1153 20.7177 31.6869 20.9932 32.1161C21.2084 32.4515 21.604 32.6007 21.9713 32.5192L22.5586 33.1067C22.8427 33.3858 23.2156 33.5281 23.5908 33.5281C23.9139 33.5281 24.2386 33.4226 24.5094 33.2085C24.9161 32.8832 25.3069 32.5334 25.6712 32.1691C26.038 31.8024 26.3888 31.4103 26.7128 31.0053L26.7131 31.0052ZM22.6392 36.0581V42.6508C22.6392 45.9258 21.1198 49.0495 18.5515 51.1001V52.1361H20.1948C20.7051 52.1361 21.1186 52.5496 21.1186 53.0599V58.266C21.1186 58.7763 20.7051 59.1898 20.1948 59.1898H3.46443C2.9542 59.1898 2.54064 58.7763 2.54064 58.266V53.0599C2.54064 52.5496 2.9542 52.1361 3.46443 52.1361H5.10775V51.1001C2.53947 49.0494 1.02002 45.9258 1.02002 42.6508V37.2452C1.02002 35.6466 2.32197 34.3462 3.9224 34.3462C4.29307 34.3462 4.64768 34.416 4.97381 34.5434V33.8833C4.97381 32.2847 6.27576 30.9843 7.87608 30.9843C8.24674 30.9843 8.60135 31.0543 8.92748 31.1815V29.7333C8.92748 28.133 10.2294 26.8311 11.8297 26.8311C12.2016 26.8311 12.5574 26.9014 12.8844 27.0294V24.5926C12.8844 22.9922 14.185 21.6903 15.7834 21.6903C17.3819 21.6903 18.6857 22.9922 18.6857 24.5926V33.3562C19.0118 33.2289 19.3664 33.159 19.7371 33.159C21.3374 33.159 22.6394 34.4594 22.6394 36.0579L22.6392 36.0581ZM19.2709 53.9837H4.38822V57.3422H19.2709V53.9837ZM20.7915 36.0581C20.7915 35.4783 20.3185 35.0067 19.737 35.0067C19.1555 35.0067 18.6856 35.4782 18.6856 36.0581V40.705C18.6856 41.2153 18.272 41.6288 17.7618 41.6288C17.2515 41.6288 16.838 41.2153 16.838 40.705V24.5927C16.838 24.0111 16.3649 23.5381 15.7834 23.5381C15.2019 23.5381 14.732 24.0112 14.732 24.5927V40.705C14.732 41.2153 14.3185 41.6288 13.8082 41.6288C13.298 41.6288 12.8844 41.2153 12.8844 40.705V29.7335C12.8844 29.1519 12.4113 28.6789 11.8297 28.6789C11.2481 28.6789 10.7752 29.152 10.7752 29.7335V40.705C10.7752 41.2153 10.3616 41.6288 9.85139 41.6288C9.34115 41.6288 8.9276 41.2153 8.9276 40.705V33.8833C8.9276 33.3036 8.45592 32.8319 7.87619 32.8319C7.29647 32.8319 6.82162 33.3035 6.82162 33.8833V40.705C6.82162 41.2153 6.40807 41.6288 5.89783 41.6288C5.3876 41.6288 4.97404 41.2153 4.97404 40.705V37.2452C4.97404 36.6654 4.50236 36.1938 3.92264 36.1938C3.34291 36.1938 2.86795 36.6653 2.86795 37.2452V42.6508C2.86795 45.4956 4.25416 48.2043 6.576 49.8966C6.81459 50.0705 6.95568 50.3479 6.95568 50.6432V52.136H16.7042V50.6432C16.7042 50.3479 16.8453 50.0705 17.0838 49.8966C19.4058 48.2043 20.7919 45.4956 20.7919 42.6508V36.0581H20.7915ZM51.6623 40.1883C51.6623 45.4258 47.4013 49.6866 42.164 49.6866C36.9266 49.6866 32.6656 45.4258 32.6656 40.1883C32.6656 34.9509 36.9265 30.6901 42.164 30.6901C47.4014 30.6901 51.6623 34.9509 51.6623 40.1883ZM49.8146 40.1883C49.8146 35.9697 46.3825 32.5378 42.164 32.5378C37.9454 32.5378 34.5133 35.9698 34.5133 40.1883C34.5133 44.4069 37.9453 47.8389 42.164 47.8389C46.3826 47.8389 49.8146 44.4069 49.8146 40.1883ZM59.2075 42.1024C59.1146 42.9148 58.4304 43.5256 57.6157 43.5256H56.4801C56.1182 45.0922 55.5025 46.5794 54.6475 47.9519L55.4512 48.7581C56.0296 49.3366 56.0806 50.2531 55.5688 50.889C55.1701 51.3847 54.7415 51.8644 54.2949 52.3143C53.8331 52.7726 53.3524 53.201 52.8612 53.5927C52.2341 54.1049 51.3155 54.0574 50.7327 53.4745L49.9305 52.6722C48.5642 53.5226 47.0767 54.1378 45.5012 54.5042V55.6402C45.5012 56.4551 44.8905 57.1393 44.0805 57.2317C43.4439 57.3028 42.8035 57.3381 42.1634 57.3381C41.5233 57.3381 40.8847 57.3028 40.2499 57.2321C39.4375 57.1393 38.8267 56.455 38.8267 55.6402V54.504C37.261 54.1427 35.773 53.5271 34.4004 52.6721L33.594 53.4758C33.0222 54.0554 32.1033 54.1068 31.4624 53.5893C30.9695 53.1964 30.489 52.7671 30.0388 52.317C29.5865 51.8646 29.1562 51.383 28.7596 50.8857C28.2497 50.2522 28.2994 49.3356 28.8777 48.7573L29.6801 47.9522C28.8312 46.5922 28.2153 45.1042 27.8481 43.5258H26.7121C25.8973 43.5258 25.213 42.9151 25.1206 42.1051C24.9788 40.8325 24.9788 39.5446 25.1203 38.2746C25.213 37.4621 25.8973 36.8513 26.7121 36.8513H27.8481C28.2147 35.2769 28.83 33.7904 29.6803 32.425L28.8767 31.6185C28.2994 31.0413 28.2497 30.1249 28.7623 29.4879C29.156 28.9939 29.5863 28.5124 30.0387 28.06C30.4883 27.6103 30.9688 27.181 31.4666 26.7841C32.1097 26.2728 33.0262 26.3258 33.5994 26.9068L34.4003 27.7047C35.7646 26.8549 37.2522 26.2393 38.8265 25.8733V24.7366C38.8265 23.9218 39.4372 23.2376 40.2471 23.1452C41.5198 23.0033 42.8077 23.0035 44.0776 23.1448C44.8901 23.2376 45.5009 23.9219 45.5009 24.7366V25.8727C47.0772 26.2393 48.5652 26.8549 49.9301 27.7046L50.7325 26.9023C51.3153 26.3199 52.2339 26.2717 52.8695 26.7911C53.3527 27.1763 53.8335 27.6047 54.2897 28.0576C54.7412 28.5125 55.1699 28.9922 55.5688 29.4882C56.0803 30.1237 56.0292 31.0402 55.4499 31.6196L54.6474 32.4249C55.5024 33.7974 56.1181 35.2846 56.4799 36.8512H57.6156C58.4303 36.8512 59.1146 37.462 59.2071 38.2717C59.3489 39.5445 59.3489 40.8324 59.2074 42.1025L59.2075 42.1024ZM57.3941 38.6988H56.2814C55.5216 38.6988 54.8787 38.1801 54.7179 37.4374C54.3959 35.951 53.8131 34.5434 52.9859 33.254C52.9855 33.2534 52.9852 33.2529 52.9848 33.2525C52.574 32.6091 52.6651 31.7871 53.2064 31.2535L53.9863 30.4708C53.6686 30.0868 53.3321 29.7153 52.9834 29.3638C52.632 29.0151 52.2607 28.6796 51.8807 28.3674L51.0974 29.1507C50.5592 29.6892 49.7372 29.7775 49.0991 29.3649C47.821 28.5447 46.4117 27.9619 44.9131 27.634C44.1715 27.4717 43.6537 26.8288 43.6537 26.0709V24.9582C42.6653 24.8624 41.6647 24.8624 40.6745 24.9582V26.0709C40.6745 26.8293 40.1581 27.4721 39.4185 27.6339C37.9212 27.9609 36.5121 28.5437 35.2299 29.3665C34.5847 29.7785 33.7628 29.6873 33.2292 29.146L32.4477 28.3672C32.0651 28.6815 31.6949 29.017 31.3455 29.3664C30.994 29.718 30.6574 30.0891 30.3429 30.472L31.1275 31.2594C31.6629 31.7872 31.7541 32.6091 31.3433 33.2525C30.5197 34.5359 29.9369 35.944 29.6097 37.4394C29.4492 38.1801 28.8063 38.6988 28.0466 38.6988H26.9339C26.8381 39.687 26.8381 40.6878 26.9339 41.678H28.0466C28.8063 41.678 29.4492 42.1967 29.6101 42.9394C29.9378 44.4373 30.5206 45.8452 31.3417 47.1219C31.7542 47.7677 31.663 48.5896 31.1216 49.1233L30.3429 49.9047C30.6587 50.2891 30.9947 50.6594 31.3455 51.0104C31.695 51.3599 32.0651 51.6953 32.4477 52.0096L33.2351 51.2249C33.7629 50.6896 34.5849 50.5986 35.228 51.0091C36.5194 51.8377 37.9279 52.4205 39.4162 52.7423C40.158 52.9047 40.6745 53.5475 40.6745 54.3059V55.4186C41.6629 55.5144 42.6634 55.5144 43.6537 55.4186V54.3059C43.6537 53.548 44.1715 52.9051 44.913 52.7429C46.4117 52.4149 47.821 51.8321 49.1016 51.0103C49.7372 50.5996 50.5589 50.6878 51.0975 51.2262L51.8807 52.0094C52.2641 51.6942 52.6341 51.3596 52.9885 51.0078C53.3328 50.6608 53.669 50.2898 53.9864 49.906L53.2007 49.1176C52.6651 48.5897 52.5741 47.7678 52.9848 47.1243C53.8132 45.8334 54.3959 44.4258 54.718 42.9393C54.8788 42.1968 55.5217 41.678 56.2815 41.678H57.3942C57.4901 40.6898 57.4901 39.6891 57.3942 38.6988H57.3941ZM45.8309 36.7716L40.9541 41.6455L38.4973 39.1885C38.1365 38.8277 37.5516 38.8279 37.1908 39.1885C36.8301 39.5492 36.8301 40.1342 37.1908 40.4949L40.3007 43.6049C40.4812 43.7854 40.7175 43.8755 40.954 43.8755C41.1905 43.8755 41.4266 43.7854 41.6071 43.6052L47.1371 38.0785C47.498 37.7179 47.4981 37.1329 47.1374 36.772C46.7768 36.4114 46.1918 36.411 45.8309 36.7716Z" fill="#357CDB"/>
</svg>
