<svg width="60" height="60" viewBox="0 0 60 60" fill="none" xmlns="http://www.w3.org/2000/svg">
<path d="M46.9512 51.7242H3.12305C2.88995 51.7242 2.66639 51.6316 2.50157 51.4668C2.33674 51.302 2.24414 51.0784 2.24414 50.8453V45.9574C2.24414 45.7243 2.33674 45.5008 2.50157 45.3359C2.66639 45.1711 2.88995 45.0785 3.12305 45.0785H46.9512C48.0528 45.073 49.1077 44.6329 49.8867 43.8539C50.6657 43.0749 51.1058 42.02 51.1113 40.9184V12.9727C51.1058 11.871 50.6657 10.8161 49.8867 10.0371C49.1077 9.25812 48.0528 8.81804 46.9512 8.8125H34.7344C34.5013 8.8125 34.2777 8.7199 34.1129 8.55507C33.9481 8.39025 33.8555 8.16669 33.8555 7.93359V3.04688C33.8555 2.81377 33.9481 2.59022 34.1129 2.42539C34.2777 2.26057 34.5013 2.16797 34.7344 2.16797H46.9512C49.8149 2.17385 52.5597 3.31409 54.5847 5.33909C56.6097 7.36409 57.75 10.1089 57.7559 12.9727V40.9184C57.7497 43.7821 56.6094 46.5269 54.5845 48.552C52.5596 50.5771 49.815 51.7177 46.9512 51.7242ZM4.00195 49.9664H46.9512C49.3489 49.9602 51.6465 49.0049 53.3419 47.3094C55.0372 45.6139 55.9922 43.316 55.998 40.9184V12.9727C55.9919 10.5752 55.0367 8.27766 53.3414 6.58238C51.6462 4.88711 49.3487 3.93197 46.9512 3.92578H35.6133V7.05469H46.9512C48.5188 7.06086 50.0205 7.68634 51.129 8.79484C52.2375 9.90334 52.863 11.405 52.8691 12.9727V40.9184C52.8633 42.4861 52.2379 43.9879 51.1293 45.0965C50.0208 46.2051 48.5189 46.8305 46.9512 46.8363H4.00195V49.9664Z" fill="#357CDB"/>
<path d="M18.1266 57.8316C14.8851 57.8316 12.2473 55.1422 12.2473 51.8375C12.2469 51.4485 12.2838 51.0604 12.3574 50.6785C12.396 50.478 12.5032 50.2971 12.6606 50.1669C12.8179 50.0367 13.0157 49.9652 13.2199 49.9648H23.0332C23.2376 49.965 23.4357 50.0363 23.5933 50.1665C23.7509 50.2967 23.8582 50.4778 23.8969 50.6785C23.9699 51.0605 24.0068 51.4486 24.007 51.8375C24.007 55.1422 21.3691 57.8316 18.1266 57.8316ZM14.0062 51.7227V51.8398C14.0062 54.1754 15.8555 56.0762 18.1277 56.0762C20.4 56.0762 22.2504 54.1754 22.2504 51.8398C22.2504 51.8012 22.2504 51.7637 22.2504 51.7227H14.0062Z" fill="#357CDB"/>
<path d="M37.8644 57.8316C34.6219 57.8316 31.984 55.1422 31.984 51.8375C31.9842 51.4486 32.0211 51.0605 32.0941 50.6785C32.1328 50.4778 32.2401 50.2967 32.3977 50.1665C32.5553 50.0363 32.7534 49.965 32.9578 49.9648H42.7734C42.9778 49.9648 43.1758 50.036 43.3332 50.1663C43.4907 50.2966 43.5977 50.4778 43.6359 50.6785C43.7119 51.0602 43.7512 51.4483 43.7531 51.8375C43.7449 55.1422 41.107 57.8316 37.8644 57.8316ZM33.743 51.7227V51.8398C33.743 54.1754 35.5922 56.0762 37.8656 56.0762C40.1391 56.0762 41.9883 54.1754 41.9883 51.8398C41.9883 51.8012 41.9883 51.7637 41.9883 51.7227H33.743Z" fill="#357CDB"/>
<path d="M42.5215 46.8379H31.3734C31.1403 46.8379 30.9168 46.7453 30.752 46.5805C30.5871 46.4156 30.4945 46.1921 30.4945 45.959V37.4043C30.4945 37.1712 30.5871 36.9476 30.752 36.7828C30.9168 36.618 31.1403 36.5254 31.3734 36.5254H42.5215C42.7546 36.5254 42.9781 36.618 43.143 36.7828C43.3078 36.9476 43.4004 37.1712 43.4004 37.4043V45.959C43.4004 46.1921 43.3078 46.4156 43.143 46.5805C42.9781 46.7453 42.7546 46.8379 42.5215 46.8379ZM32.2523 45.0801H41.6426V38.2832H32.2523V45.0801Z" fill="#357CDB"/>
<path d="M44.3543 38.2848H27.327C27.0939 38.2848 26.8703 38.1922 26.7055 38.0273C26.5407 37.8625 26.4481 37.639 26.4481 37.4059V23.3574C26.4481 23.1243 26.5407 22.9008 26.7055 22.7359C26.8703 22.5711 27.0939 22.4785 27.327 22.4785H44.3543C45.3363 22.4794 46.2777 22.8699 46.9722 23.5641C47.6667 24.2583 48.0574 25.1997 48.0586 26.1816V34.5816C48.0574 35.5636 47.6667 36.505 46.9722 37.1992C46.2777 37.8934 45.3363 38.2838 44.3543 38.2848ZM28.2059 36.527H44.3543C44.8702 36.5263 45.3647 36.3212 45.7296 35.9566C46.0945 35.5919 46.2999 35.0975 46.3008 34.5816V26.1816C46.2999 25.6658 46.0945 25.1714 45.7296 24.8067C45.3647 24.4421 44.8702 24.2369 44.3543 24.2363H28.2059V36.527Z" fill="#357CDB"/>
<path d="M41.2043 34.4868C40.4705 34.4856 39.7671 34.1934 39.2484 33.6743C38.7298 33.1552 38.4381 32.4515 38.4375 31.7177V29.0458C38.4299 28.6775 38.4959 28.3113 38.6317 27.9688C38.7674 27.6262 38.9701 27.3142 39.2279 27.051C39.4858 26.7878 39.7935 26.5787 40.1332 26.436C40.4729 26.2933 40.8376 26.2197 41.2061 26.2197C41.5745 26.2197 41.9392 26.2933 42.2789 26.436C42.6186 26.5787 42.9263 26.7878 43.1842 27.051C43.442 27.3142 43.6447 27.6262 43.7805 27.9688C43.9162 28.3113 43.9822 28.6775 43.9746 29.0458V31.7177C43.9737 32.452 43.6815 33.156 43.1621 33.6752C42.6427 34.1943 41.9386 34.4862 41.2043 34.4868ZM41.2043 28.0345C40.9364 28.0351 40.6796 28.1419 40.4903 28.3315C40.3009 28.521 40.1945 28.7779 40.1941 29.0458V31.7177C40.1895 31.8533 40.2123 31.9885 40.261 32.1152C40.3097 32.2418 40.3834 32.3574 40.4777 32.455C40.572 32.5525 40.685 32.6301 40.8099 32.6831C40.9349 32.7361 41.0692 32.7635 41.2049 32.7635C41.3406 32.7635 41.4749 32.7361 41.5998 32.6831C41.7248 32.6301 41.8378 32.5525 41.9321 32.455C42.0264 32.3574 42.1001 32.2418 42.1488 32.1152C42.1975 31.9885 42.2202 31.8533 42.2156 31.7177V29.0458C42.2153 28.7777 42.1087 28.5206 41.9191 28.3311C41.7295 28.1415 41.4724 28.0348 41.2043 28.0345Z" fill="#357CDB"/>
<path d="M36.0316 29.333H31.4121C31.179 29.333 30.9555 29.2404 30.7906 29.0756C30.6258 28.9108 30.5332 28.6872 30.5332 28.4541C30.5332 28.221 30.6258 27.9974 30.7906 27.8326C30.9555 27.6678 31.179 27.5752 31.4121 27.5752H36.0316C36.2647 27.5752 36.4883 27.6678 36.6531 27.8326C36.818 27.9974 36.9105 28.221 36.9105 28.4541C36.9105 28.6872 36.818 28.9108 36.6531 29.0756C36.4883 29.2404 36.2647 29.333 36.0316 29.333Z" fill="#357CDB"/>
<path d="M36.0316 33.1885H31.4121C31.179 33.1885 30.9555 33.0959 30.7906 32.9311C30.6258 32.7662 30.5332 32.5427 30.5332 32.3096C30.5332 32.0765 30.6258 31.8529 30.7906 31.6881C30.9555 31.5233 31.179 31.4307 31.4121 31.4307H36.0316C36.2647 31.4307 36.4883 31.5233 36.6531 31.6881C36.818 31.8529 36.9105 32.0765 36.9105 32.3096C36.9105 32.5427 36.818 32.7662 36.6531 32.9311C36.4883 33.0959 36.2647 33.1885 36.0316 33.1885Z" fill="#357CDB"/>
<path d="M44.9074 24.2363H38.6273C38.3942 24.2363 38.1707 24.1437 38.0059 23.9789C37.841 23.8141 37.7484 23.5905 37.7484 23.3574V18.8141C37.7484 18.581 37.841 18.3574 38.0059 18.1926C38.1707 18.0278 38.3942 17.9352 38.6273 17.9352H44.9074C45.3263 17.9271 45.7425 18.0026 46.1319 18.1573C46.5212 18.312 46.8757 18.5428 47.1748 18.8361C47.4739 19.1295 47.7115 19.4796 47.8737 19.8658C48.0358 20.2521 48.1194 20.6668 48.1194 21.0857C48.1194 21.5047 48.0358 21.9194 47.8737 22.3057C47.7115 22.6919 47.4739 23.042 47.1748 23.3353C46.8757 23.6287 46.5212 23.8595 46.1319 24.0142C45.7425 24.1689 45.3263 24.2444 44.9074 24.2363ZM39.5063 22.4785H44.9074C45.0937 22.4839 45.2792 22.4519 45.4529 22.3843C45.6266 22.3168 45.785 22.215 45.9187 22.0852C46.0524 21.9553 46.1587 21.7999 46.2312 21.6283C46.3038 21.4566 46.3412 21.2721 46.3412 21.0857C46.3412 20.8994 46.3038 20.7149 46.2312 20.5432C46.1587 20.3715 46.0524 20.2162 45.9187 20.0863C45.785 19.9564 45.6266 19.8547 45.4529 19.7872C45.2792 19.7196 45.0937 19.6876 44.9074 19.693H39.5063V22.4785Z" fill="#357CDB"/>
<path d="M38.6273 24.2366H32.1668C32.0383 24.2363 31.9114 24.208 31.795 24.1535C31.6786 24.0991 31.5755 24.0198 31.493 23.9213C30.8222 23.1199 30.3471 22.1735 30.105 21.1569C29.863 20.1403 29.8607 19.0813 30.0982 18.0637C30.3358 17.046 30.8068 16.0975 31.474 15.2932C32.1412 14.4888 32.9863 13.8507 33.9426 13.4291C34.8988 13.0076 35.94 12.8141 36.9838 12.8642C38.0277 12.9142 39.0456 13.2063 39.9571 13.7174C40.8687 14.2284 41.6489 14.9445 42.2361 15.8089C42.8233 16.6734 43.2014 17.6626 43.3406 18.6983C43.3571 18.8224 43.347 18.9486 43.3108 19.0684C43.2746 19.1882 43.2132 19.2989 43.1308 19.3931C43.0484 19.4873 42.9468 19.5628 42.8328 19.6146C42.7188 19.6663 42.5951 19.6931 42.4699 19.6932H39.5062V23.3577C39.5062 23.5908 39.4136 23.8143 39.2488 23.9792C39.084 24.144 38.8604 24.2366 38.6273 24.2366ZM32.598 22.4788H37.7484V18.8143C37.7484 18.5812 37.841 18.3577 38.0059 18.1928C38.1707 18.028 38.3942 17.9354 38.6273 17.9354H41.359C41.1211 17.2644 40.7421 16.6521 40.2476 16.1399C39.7531 15.6277 39.1545 15.2274 38.4922 14.9661C37.8299 14.7047 37.1193 14.5884 36.4083 14.6249C35.6973 14.6614 35.0023 14.8499 34.3703 15.1776C33.7382 15.5054 33.1838 15.9649 32.7443 16.525C32.3048 17.0852 31.9905 17.733 31.8226 18.4249C31.6547 19.1168 31.637 19.8366 31.7707 20.5359C31.9045 21.2352 32.1866 21.8977 32.598 22.4788Z" fill="#357CDB"/>
<path d="M27.327 35.5176H22.2117C21.9786 35.5176 21.7551 35.425 21.5903 35.2602C21.4254 35.0953 21.3328 34.8718 21.3328 34.6387V26.125C21.3328 25.8919 21.4254 25.6683 21.5903 25.5035C21.7551 25.3387 21.9786 25.2461 22.2117 25.2461H27.327C27.5601 25.2461 27.7836 25.3387 27.9484 25.5035C28.1133 25.6683 28.2059 25.8919 28.2059 26.125V34.6387C28.2059 34.8718 28.1133 35.0953 27.9484 35.2602C27.7836 35.425 27.5601 35.5176 27.327 35.5176ZM23.0906 33.7598H26.4481V27.0039H23.086L23.0906 33.7598Z" fill="#357CDB"/>
<path d="M20.7996 38.2848H17.707C17.0995 38.2841 16.517 38.0426 16.0873 37.6131C15.6576 37.1836 15.4158 36.6013 15.4149 35.9937V24.7695C15.4158 24.162 15.6576 23.5796 16.0873 23.1502C16.517 22.7207 17.0995 22.4791 17.707 22.4785H20.7996C21.4062 22.4804 21.9874 22.7225 22.4159 23.1519C22.8444 23.5813 23.0853 24.1629 23.086 24.7695V35.9937C23.0853 36.6004 22.8444 37.182 22.4159 37.6114C21.9874 38.0408 21.4062 38.2829 20.7996 38.2848ZM17.707 24.2363C17.5655 24.2363 17.4298 24.2925 17.3296 24.3924C17.2294 24.4924 17.173 24.628 17.1727 24.7695V35.9937C17.173 36.1353 17.2294 36.2709 17.3296 36.3709C17.4298 36.4708 17.5655 36.527 17.707 36.527H20.7996C20.941 36.527 21.0767 36.4708 21.1767 36.3708C21.2766 36.2708 21.3328 36.1352 21.3328 35.9937V24.7695C21.3328 24.6281 21.2766 24.4925 21.1767 24.3925C21.0767 24.2925 20.941 24.2363 20.7996 24.2363H17.707Z" fill="#357CDB"/>
<path d="M12.0574 46.8363H5.56757C5.4521 46.8365 5.33775 46.8139 5.23104 46.7697C5.12434 46.7256 5.02739 46.6609 4.94574 46.5792C4.8641 46.4976 4.79936 46.4007 4.75525 46.2939C4.71113 46.1872 4.68851 46.0729 4.68866 45.9574V38.5547C4.68851 38.4392 4.71113 38.3249 4.75525 38.2182C4.79936 38.1115 4.8641 38.0145 4.94574 37.9329C5.02739 37.8512 5.12434 37.7865 5.23104 37.7424C5.33775 37.6983 5.4521 37.6756 5.56757 37.6758H12.0574C12.2905 37.6758 12.5141 37.7684 12.6789 37.9332C12.8437 38.098 12.9363 38.3216 12.9363 38.5547V45.9598C12.9357 46.1925 12.8428 46.4154 12.6781 46.5797C12.5133 46.7441 12.2901 46.8363 12.0574 46.8363ZM6.4453 45.0785H11.1785V39.4313H6.4453V45.0785Z" fill="#357CDB"/>
<path d="M10.759 39.4313H6.86484C6.63174 39.4313 6.40818 39.3387 6.24336 39.1738C6.07853 39.009 5.98593 38.7855 5.98593 38.5524V18.1453C5.9858 17.9938 6.02483 17.8448 6.09924 17.7129C6.17366 17.5809 6.28092 17.4704 6.41063 17.3921C6.54034 17.3138 6.68809 17.2703 6.83954 17.266C6.99099 17.2616 7.14099 17.2965 7.27499 17.3672C7.75021 17.6151 8.27827 17.7445 8.81425 17.7445C9.35024 17.7445 9.87829 17.6151 10.3535 17.3672C10.4875 17.2965 10.6375 17.2616 10.789 17.266C10.9404 17.2703 11.0882 17.3138 11.2179 17.3921C11.3476 17.4704 11.4548 17.5809 11.5293 17.7129C11.6037 17.8448 11.6427 17.9938 11.6426 18.1453V38.5547C11.6423 38.6703 11.6192 38.7847 11.5746 38.8914C11.53 38.9981 11.4647 39.0949 11.3827 39.1763C11.3006 39.2577 11.2032 39.3222 11.0962 39.3659C10.9892 39.4097 10.8746 39.4319 10.759 39.4313ZM7.74374 37.6734H9.88007V19.3922C9.17586 19.5422 8.44795 19.5422 7.74374 19.3922V37.6734Z" fill="#357CDB"/>
<path d="M8.8125 19.5025C7.80794 19.5028 6.82587 19.2051 5.99049 18.6472C5.15512 18.0892 4.50396 17.2961 4.11937 16.3681C3.73478 15.44 3.63403 14.4188 3.82987 13.4335C4.02571 12.4482 4.50934 11.5431 5.21959 10.8327C5.92984 10.1223 6.83481 9.63847 7.82005 9.4424C8.8053 9.24634 9.82656 9.34685 10.7547 9.73123C11.6828 10.1156 12.4761 10.7666 13.0342 11.6018C13.5923 12.4371 13.8902 13.4191 13.8902 14.4236C13.8887 15.77 13.3533 17.0607 12.4014 18.0128C11.4495 18.9649 10.1588 19.5007 8.8125 19.5025ZM8.8125 11.1037C8.15555 11.1035 7.51329 11.2981 6.96696 11.6629C6.42063 12.0278 5.99478 12.5464 5.74326 13.1533C5.49175 13.7602 5.42589 14.4281 5.55399 15.0724C5.6821 15.7168 5.99843 16.3086 6.46296 16.7732C6.9275 17.2377 7.51937 17.554 8.16371 17.6821C8.80804 17.8103 9.4759 17.7444 10.0828 17.4929C10.6897 17.2414 11.2084 16.8155 11.5732 16.2692C11.938 15.7228 12.1327 15.0806 12.1324 14.4236C12.1312 13.5435 11.781 12.6998 11.1587 12.0775C10.5363 11.4551 9.69262 11.105 8.8125 11.1037Z" fill="#357CDB"/>
<path d="M16.2891 32.9789H10.759C10.5259 32.9789 10.3023 32.8863 10.1375 32.7215C9.97266 32.5567 9.88007 32.3331 9.88007 32.1V28.6641C9.88007 28.431 9.97266 28.2074 10.1375 28.0426C10.3023 27.8778 10.5259 27.7852 10.759 27.7852H16.2891C16.5222 27.7852 16.7457 27.8778 16.9105 28.0426C17.0754 28.2074 17.168 28.431 17.168 28.6641V32.1C17.168 32.3331 17.0754 32.5567 16.9105 32.7215C16.7457 32.8863 16.5222 32.9789 16.2891 32.9789ZM11.6332 31.2211H15.4101V29.543H11.6379L11.6332 31.2211Z" fill="#357CDB"/>
</svg>
