<svg width="61" height="60" viewBox="0 0 61 60" fill="none" xmlns="http://www.w3.org/2000/svg">
<g clip-path="url(#clip0_2002_42)">
<path d="M59.1121 27.1876V32.8124C59.1121 34.2834 57.9153 35.4802 56.4443 35.4802C54.2202 35.4802 52.3089 36.7593 51.456 38.8181C50.6032 40.8771 51.0503 43.1332 52.623 44.7059C53.6631 45.746 53.6631 47.4386 52.623 48.4787L48.6456 52.4562C48.1418 52.96 47.4717 53.2375 46.759 53.2375C46.0464 53.2375 45.3763 52.96 44.8725 52.4561C42.9746 50.5582 40.5627 50.6194 38.9381 51.3096C38.5216 51.4869 38.0394 51.2925 37.8623 50.8754C37.6851 50.4585 37.8794 49.9768 38.2965 49.7996C40.9977 48.6519 43.9621 49.2254 46.0326 51.2961C46.2265 51.4901 46.4844 51.597 46.7589 51.597C47.0334 51.597 47.2914 51.4901 47.4852 51.2962L51.4628 47.3188C51.8632 46.9184 51.8632 46.2666 51.4626 45.8661C49.4119 43.8153 48.8284 40.8742 49.9401 38.1905C51.0517 35.5069 53.5439 33.8398 56.4442 33.8398C57.0105 33.8398 57.4713 33.379 57.4713 32.8126V27.1879C57.4713 26.6215 57.0105 26.1607 56.4442 26.1607C53.5439 26.1607 51.0517 24.4936 49.9401 21.81C48.8285 19.1263 49.4119 16.1851 51.4626 14.1343C51.8632 13.7339 51.8632 13.0821 51.4626 12.6817L47.4852 8.70422C47.2914 8.51027 47.0334 8.40352 46.7589 8.40352C46.4844 8.40352 46.2265 8.51027 46.0326 8.70422C43.9819 10.755 41.0407 11.3385 38.3569 10.2268C35.6733 9.1152 34.0062 6.62309 34.0062 3.72281C34.0062 3.15645 33.5454 2.69566 32.979 2.69566H27.3542C26.7879 2.69566 26.3271 3.15645 26.3271 3.72281C26.3271 6.62309 24.66 9.11531 21.9764 10.2268C19.2924 11.3386 16.3514 10.755 14.3006 8.70422C14.1068 8.51027 13.8487 8.40352 13.5743 8.40352C13.2998 8.40352 13.0419 8.51027 12.8481 8.70422L8.87062 12.6817C8.47007 13.0821 8.47007 13.7339 8.87062 14.1343C10.9214 16.1851 11.5049 19.1263 10.3931 21.81C9.28159 24.4936 6.78937 26.1607 3.88909 26.1607C3.32272 26.1607 2.86194 26.6215 2.86194 27.1879V32.8126C2.86194 33.379 3.32272 33.8398 3.88909 33.8398C6.78937 33.8398 9.28159 35.5069 10.3931 38.1905C11.5048 40.8742 10.9214 43.8153 8.8705 45.8661C8.47007 46.2666 8.47007 46.9184 8.87062 47.3188L12.8481 51.2962C13.0419 51.4902 13.2998 51.5971 13.5743 51.5971C13.8487 51.5971 14.1067 51.4902 14.3006 51.2962C15.6759 49.9208 17.4791 49.1854 19.3764 49.2219C21.3175 49.2605 23.1837 50.0979 24.4965 51.5195C24.8039 51.8523 24.7832 52.3713 24.4503 52.6787C24.1175 52.9862 23.5985 52.9654 23.2911 52.6325C22.2796 51.5372 20.8408 50.892 19.3435 50.8622C18.3193 50.8423 16.815 51.1018 15.4605 52.4564C14.9566 52.9603 14.2867 53.2377 13.5739 53.2377C12.8612 53.2377 12.1912 52.9602 11.6875 52.4563L7.70999 48.4789C6.66995 47.4388 6.66995 45.7463 7.70999 44.7061C9.28276 43.1334 9.72983 40.8775 8.87706 38.8184C8.02417 36.7594 6.11272 35.4804 3.88874 35.4804C2.41815 35.4802 1.22144 34.2834 1.22144 32.8124V27.1876C1.22144 25.7167 2.41815 24.5198 3.88921 24.5198C6.11331 24.5198 8.02464 23.2407 8.87753 21.1819C9.7303 19.1229 9.28323 16.8668 7.71046 15.2941C6.67042 14.254 6.67042 12.5614 7.71046 11.5213L11.6879 7.54383C12.1918 7.04004 12.8618 6.76254 13.5744 6.76254C14.287 6.76254 14.9571 7.04004 15.4609 7.54383C17.0337 9.11648 19.2894 9.56391 21.3487 8.71078C23.4076 7.85801 24.6866 5.94656 24.6866 3.72246C24.6866 2.25141 25.8833 1.05469 27.3544 1.05469H32.9791C34.4502 1.05469 35.6469 2.25141 35.6469 3.72246C35.6469 5.94656 36.9259 7.85801 38.9848 8.71078C41.0441 9.56379 43.3 9.11648 44.8725 7.54383C45.3764 7.04004 46.0464 6.76254 46.759 6.76254C47.4717 6.76254 48.1417 7.04004 48.6456 7.54383L52.623 11.5213C53.6631 12.5614 53.6631 14.254 52.623 15.2941C51.0503 16.8668 50.6032 19.1229 51.456 21.1819C52.3089 23.2407 54.2203 24.5198 56.4443 24.5198C57.9153 24.5198 59.1121 25.7167 59.1121 27.1876ZM44.7313 30C44.7313 21.9691 38.1976 15.4355 30.1667 15.4355C22.1359 15.4355 15.6022 21.9691 15.6022 30C15.6022 35.4863 18.6358 40.4531 23.5193 42.9622C23.6392 43.0239 23.7673 43.053 23.8935 43.053C24.1911 43.053 24.4783 42.8904 24.6238 42.6075C24.8308 42.2045 24.6719 41.71 24.2691 41.503C19.9352 39.2762 17.2428 34.8684 17.2428 30C17.2428 22.8737 23.0406 17.0761 30.1667 17.0761C37.2929 17.0761 43.0907 22.8737 43.0907 30C43.0907 34.6351 40.5859 38.9413 36.5537 41.2382C36.1601 41.4625 36.0227 41.9633 36.247 42.357C36.4712 42.7506 36.9721 42.8879 37.3658 42.6637C41.9089 40.0757 44.7313 35.2233 44.7313 30ZM37.1034 44.2593C37.2649 44.4221 37.3508 44.6452 37.3403 44.8744C37.3298 45.1035 37.2239 45.3178 37.0482 45.4652L34.802 47.3504L36.7646 49.0508C36.9337 49.1973 37.0357 49.4066 37.0468 49.63C37.058 49.8533 36.9773 50.0718 36.8236 50.2343L34.916 52.252V54.1141C34.916 54.3288 34.8319 54.5348 34.6816 54.6881L30.7527 58.699C30.5985 58.8565 30.3873 58.9453 30.1667 58.9453C29.9462 58.9453 29.735 58.8565 29.5808 58.699L25.6519 54.6881C25.5016 54.5347 25.4175 54.3287 25.4175 54.1141V39.1295C22.0351 37.3666 19.8775 33.8398 19.8775 30C19.8775 24.3264 24.4934 19.7106 30.1669 19.7106C35.8404 19.7106 40.4563 24.3264 40.4563 30C40.4563 33.8398 38.2986 37.3666 34.9162 39.1295V42.0534L37.1034 44.2593ZM35.3108 44.7816L33.5132 42.9688C33.3608 42.8152 33.2754 42.6075 33.2754 42.3912V38.6176C33.2754 38.2965 33.4629 38.0048 33.7549 37.8715C36.8291 36.4676 38.8155 33.3778 38.8155 30C38.8155 25.2311 34.9358 21.3512 30.1667 21.3512C25.3977 21.3512 21.518 25.2311 21.518 30C21.518 33.3779 23.5043 36.4676 26.5785 37.8715C26.8706 38.0048 27.0581 38.2964 27.0581 38.6176V53.7793L30.1667 56.9528L33.2754 53.7793V51.9258C33.2754 51.7161 33.3557 51.5146 33.4996 51.3622L35.0429 49.7299L33.0007 47.9606C32.8191 47.8034 32.7156 47.5744 32.7174 47.3343C32.7194 47.094 32.8264 46.8668 33.0104 46.7123L35.3108 44.7816ZM32.9696 26.2725C32.9696 27.9832 31.7123 29.3749 30.1667 29.3749C28.6213 29.3749 27.364 27.9832 27.364 26.2725C27.364 24.5618 28.6213 23.1701 30.1667 23.1701C31.7122 23.1701 32.9696 24.5619 32.9696 26.2725ZM31.329 26.2725C31.329 25.4665 30.8076 24.8107 30.1667 24.8107C29.5259 24.8107 29.0046 25.4665 29.0046 26.2725C29.0046 27.0785 29.5259 27.7343 30.1667 27.7343C30.8076 27.7343 31.329 27.0786 31.329 26.2725Z" fill="#357CDB" stroke="#357CDB" stroke-width="0.5"/>
</g>
<defs>
<clipPath id="clip0_2002_42">
<rect width="60" height="60" fill="white" transform="translate(0.166748)"/>
</clipPath>
</defs>
</svg>
