<svg width="61" height="60" viewBox="0 0 61 60" fill="none" xmlns="http://www.w3.org/2000/svg">
<path fill-rule="evenodd" clip-rule="evenodd" d="M23.6661 57.5999C23.3834 57.7328 23.0932 57.849 22.7969 57.9478C20.4511 58.358 18.4406 58.4313 16.0056 58.4296C13.4437 58.4278 11.5237 57.3273 9.24568 57.1825C9.15234 57.5399 8.94329 57.8564 8.65116 58.0825C8.35903 58.3086 8.00025 58.4316 7.63084 58.4324H3.79048C3.34834 58.4316 2.92453 58.2556 2.61189 57.9429C2.29924 57.6303 2.12324 57.2065 2.12244 56.7643V40.8268C2.12324 40.3847 2.29924 39.9609 2.61188 39.6482C2.92452 39.3355 3.34833 39.1595 3.79048 39.1587H7.63084C7.96014 39.1592 8.28196 39.257 8.55589 39.4398C8.82982 39.6226 9.04365 39.8822 9.17056 40.1861C11.824 39.9947 14.2826 38.4707 15.2877 35.9556C15.6745 34.9871 15.7358 33.341 15.7846 31.8165H12.7631C12.213 31.8158 11.6857 31.597 11.2967 31.2082C10.9077 30.8193 10.6887 30.2921 10.6878 29.7421V22.2492C10.6885 21.699 10.9074 21.1716 11.2964 20.7826C11.6855 20.3936 12.2129 20.1747 12.7631 20.1739H16.6276C17.1233 20.1739 17.2193 19.8063 17.334 19.4914C15.5485 18.4695 14.2077 16.8193 13.5729 14.8625C12.9381 12.9057 13.0549 10.7826 13.9004 8.90719C13.9481 8.80301 14.0202 8.71186 14.1106 8.64146C14.201 8.57107 14.307 8.52351 14.4197 8.50281C14.5324 8.48211 14.6484 8.48889 14.7579 8.52256C14.8674 8.55623 14.9672 8.61581 15.0488 8.69625L15.0495 8.69543L19.9633 13.6093L22.7303 10.8432L17.8165 5.92957C17.7322 5.84554 17.6704 5.74167 17.6367 5.6275C17.603 5.51334 17.5986 5.39254 17.6238 5.2762C17.649 5.15986 17.703 5.05173 17.7809 4.96172C17.8588 4.87171 17.958 4.80272 18.0695 4.76109C19.9423 3.92885 22.0573 3.82121 24.0049 4.459C25.9525 5.09679 27.5941 6.43463 28.6119 8.21344C28.9265 8.09895 29.2945 8.0025 29.2945 7.50715V3.64254C29.2952 3.0924 29.5141 2.56501 29.9031 2.176C30.2921 1.787 30.8195 1.56813 31.3696 1.56738H38.8624C39.4125 1.5681 39.9399 1.78695 40.329 2.17596C40.718 2.56497 40.9369 3.09238 40.9376 3.64254V7.50703C40.9338 7.64334 40.9742 7.77723 41.0527 7.8887C41.1313 8.00016 41.2438 8.08321 41.3735 8.12543C42.0394 8.35735 42.6914 8.62732 43.3264 8.93402C43.448 8.99594 43.5863 9.01691 43.7207 8.99381C43.8552 8.9707 43.9786 8.90476 44.0725 8.80582L46.806 6.07313C47.1955 5.68458 47.7232 5.46639 48.2734 5.46639C48.8236 5.46639 49.3513 5.68458 49.7408 6.07313L55.0385 11.3713C55.427 11.7608 55.6452 12.2885 55.6452 12.8387C55.6452 13.3888 55.427 13.9165 55.0385 14.306L52.3054 17.0389C52.2065 17.1329 52.1406 17.2562 52.1175 17.3907C52.0944 17.5251 52.1153 17.6634 52.1772 17.785C52.4839 18.42 52.7539 19.0721 52.9858 19.738C53.028 19.8677 53.1111 19.9802 53.2225 20.0587C53.334 20.1373 53.4679 20.1777 53.6042 20.1738H57.4687C58.0189 20.1745 58.5465 20.3933 58.9356 20.7824C59.3247 21.1715 59.5436 21.699 59.5443 22.2492V29.7421C59.5436 30.2922 59.3247 30.8196 58.9356 31.2086C58.5466 31.5977 58.0192 31.8165 57.469 31.8172H53.6047C53.1088 31.8172 53.0127 32.1851 52.8981 32.4998C54.6836 33.5218 56.0244 35.172 56.6592 37.1288C57.294 39.0856 57.1772 41.2087 56.3317 43.0841C56.2841 43.1884 56.212 43.2796 56.1215 43.3501C56.0311 43.4206 55.9249 43.4682 55.8122 43.4889C55.6994 43.5096 55.5833 43.5028 55.4737 43.469C55.3641 43.4353 55.2643 43.3756 55.1827 43.295L55.182 43.2957L50.2682 38.382L47.5017 41.1485L52.4154 46.0624C52.4998 46.1464 52.5616 46.2503 52.5953 46.3644C52.629 46.4786 52.6334 46.5994 52.6083 46.7157C52.5831 46.832 52.5291 46.9402 52.4512 47.0302C52.3733 47.1202 52.2741 47.1892 52.1626 47.2308C50.2897 48.063 48.1747 48.1707 46.2271 47.5328C44.2794 46.895 42.6378 45.5572 41.62 43.7783C41.3051 43.8928 40.9375 43.9893 40.9375 44.4847V48.3492C40.9368 48.8994 40.7179 49.4268 40.3289 49.8158C39.9398 50.2049 39.4124 50.4237 38.8622 50.4245H33.5528C33.6091 51.3905 33.4116 52.2123 32.7186 52.9053C32.4704 53.1536 32.1789 53.3544 31.8585 53.4978C32.2288 54.0627 32.281 54.5181 32.281 55.1689C32.2796 55.8554 32.0063 56.5133 31.5209 56.9987C31.0355 57.4841 30.3776 57.7574 29.6911 57.7588H24.5548C24.2516 57.759 23.9507 57.7056 23.6661 57.6011V57.5999ZM18.4878 18.4958L18.9602 18.6995C19.8518 19.0434 20.8053 19.1975 21.7599 19.1518C22.551 19.105 23.3429 19.2286 24.0821 19.5141C24.8213 19.7997 25.4906 20.2406 26.0447 20.8071L40.3046 35.0668C40.871 35.621 41.3119 36.2902 41.5975 37.0294C41.883 37.7686 42.0066 38.5604 41.9599 39.3514C41.9089 40.4323 42.1147 41.5098 42.5605 42.4957C43.0062 43.4817 43.6791 44.348 44.5242 45.0238C45.3692 45.6996 46.3623 46.1655 47.4221 46.3835C48.482 46.6016 49.5784 46.5654 50.6215 46.278L45.9938 41.6503C45.9278 41.5843 45.8754 41.5059 45.8397 41.4197C45.804 41.3334 45.7856 41.241 45.7856 41.1476C45.7856 41.0543 45.804 40.9618 45.8397 40.8756C45.8754 40.7893 45.9278 40.711 45.9938 40.645L49.7657 36.873C49.8317 36.807 49.9101 36.7547 49.9963 36.7189C50.0826 36.6832 50.175 36.6648 50.2683 36.6648C50.3617 36.6648 50.4541 36.6832 50.5404 36.7189C50.6266 36.7547 50.705 36.807 50.771 36.873L55.3987 41.5008C55.686 40.4576 55.7222 39.3612 55.5042 38.3014C55.2862 37.2416 54.8202 36.2485 54.1444 35.4034C53.4687 34.5584 52.6023 33.8854 51.6164 33.4397C50.6304 32.994 49.5529 32.7882 48.4721 32.8391C47.6811 32.8858 46.8892 32.7622 46.1501 32.4766C45.4109 32.1911 44.7416 31.7503 44.1874 31.1839L29.9275 16.9243C29.3612 16.3701 28.9203 15.7008 28.6348 14.9616C28.3492 14.2224 28.2256 13.4305 28.2722 12.6395C28.3232 11.5587 28.1174 10.4812 27.6716 9.49521C27.2259 8.50926 26.553 7.64292 25.7079 6.96715C24.8629 6.29138 23.8698 5.82541 22.81 5.60739C21.7501 5.38938 20.6537 5.42554 19.6106 5.71289L24.2383 10.3406C24.3043 10.4066 24.3567 10.485 24.3924 10.5713C24.4281 10.6575 24.4465 10.7499 24.4465 10.8433C24.4465 10.9367 24.4281 11.0291 24.3924 11.1153C24.3567 11.2016 24.3043 11.28 24.2383 11.346L20.4664 15.1179C20.4004 15.1839 20.322 15.2363 20.2358 15.272C20.1495 15.3077 20.0571 15.3261 19.9638 15.3261C19.8704 15.3261 19.778 15.3077 19.6917 15.272C19.6055 15.2363 19.5271 15.1839 19.4611 15.1179L14.8333 10.49C14.4062 12.0412 14.5383 13.6931 15.2064 15.1567C15.8745 16.6203 17.0361 17.8023 18.4878 18.4958ZM18.6261 20.0875C18.4503 20.5763 18.254 20.9145 17.8306 21.2148C17.479 21.464 17.0585 21.5972 16.6276 21.5959H12.7631C12.59 21.5967 12.4243 21.6657 12.3019 21.7881C12.1796 21.9105 12.1105 22.0762 12.1097 22.2492V29.7421C12.1105 29.9151 12.1796 30.0808 12.3019 30.2032C12.4243 30.3255 12.59 30.3946 12.7631 30.3954H15.8404C15.9114 29.1334 16.1021 27.6623 16.8733 27.4153V27.4146C20.2607 26.3163 22.6287 29.9791 22.6782 32.9568C22.7101 34.878 22.9331 36.9813 23.0003 38.9162C23.4256 38.6774 23.9052 38.5523 24.3929 38.5529H30.2672C31.0251 38.5546 31.7514 38.8564 32.2873 39.3922C32.8232 39.9281 33.125 40.6545 33.1266 41.4123V41.7061C33.1266 42.4357 32.8467 43.1374 32.3446 43.6668C32.7192 43.9304 33.025 44.2801 33.2363 44.6866C33.4475 45.093 33.558 45.5442 33.5585 46.0023V46.296C33.5583 46.7029 33.4711 47.1052 33.3027 47.4757C33.1343 47.8462 32.8886 48.1764 32.5822 48.4441C32.7694 48.6084 32.9346 48.7963 33.0735 49.003H38.8626C39.0357 49.0023 39.2014 48.9332 39.3238 48.8108C39.4462 48.6884 39.5153 48.5226 39.516 48.3496V44.4843C39.5139 44.0535 39.6469 43.6329 39.8965 43.2818C40.146 42.9307 40.4995 42.6668 40.907 42.5272C40.945 42.514 40.984 42.5 41.0242 42.4855C40.6552 41.4607 40.492 40.3731 40.5438 39.2851C40.6 38.416 40.3769 37.5517 39.9069 36.8186C37.722 37.7856 35.2956 38.0687 32.9468 37.6307C30.598 37.1927 28.4368 36.0541 26.7473 34.3646C25.0578 32.6752 23.9192 30.5139 23.4812 28.1651C23.0431 25.8163 23.3263 23.3899 24.2933 21.2051C23.5601 20.735 22.6957 20.5118 21.8266 20.5682C20.7385 20.6199 19.651 20.4566 18.6261 20.0877V20.0875ZM29.2081 9.50543C29.577 10.5303 29.7403 11.6179 29.6886 12.7059C29.6325 13.575 29.8557 14.4393 30.3256 15.1725C32.5104 14.2056 34.9368 13.9226 37.2855 14.3606C39.6342 14.7986 41.7954 15.9372 43.4848 17.6267C45.1743 19.3162 46.3128 21.4774 46.7509 23.8261C47.1889 26.1748 46.9058 28.6011 45.9388 30.786C46.6721 31.2559 47.5364 31.4791 48.4055 31.423C49.4935 31.3713 50.5811 31.5345 51.6059 31.9035C51.7817 31.4146 51.9777 31.0767 52.4016 30.776C52.7531 30.5268 53.1737 30.3935 53.6047 30.3949H57.469C57.6421 30.3941 57.8078 30.3251 57.9302 30.2027C58.0525 30.0804 58.1216 29.9146 58.1224 29.7416V22.2492C58.1216 22.0762 58.0525 21.9105 57.9302 21.7881C57.8078 21.6657 57.6421 21.5967 57.469 21.5959H53.6045C53.1738 21.5981 52.7532 21.465 52.4021 21.2154C52.0509 20.9658 51.787 20.6123 51.6475 20.2048C51.4313 19.5905 51.1816 18.9886 50.8996 18.4016C50.71 18.0147 50.6467 17.578 50.7185 17.1532C50.7903 16.7284 50.9937 16.3368 51.2999 16.0337L54.0331 13.3007C54.1549 13.1778 54.2233 13.0117 54.2233 12.8387C54.2233 12.6656 54.1549 12.4995 54.0331 12.3766L48.7349 7.07801C48.612 6.95617 48.446 6.88781 48.2729 6.88781C48.0999 6.88781 47.9338 6.95617 47.8109 7.07801L45.0779 9.81152C44.7748 10.1178 44.3832 10.3211 43.9583 10.393C43.5335 10.4648 43.0968 10.4015 42.7099 10.212C42.1229 9.9299 41.521 9.68019 40.9068 9.46395C40.4993 9.32441 40.1458 9.06048 39.8962 8.70937C39.6466 8.35827 39.5135 7.93768 39.5157 7.50691V3.64254C39.5149 3.46951 39.4458 3.30378 39.3235 3.18142C39.2011 3.05907 39.0354 2.98999 38.8624 2.98922H31.3696C31.1966 2.98996 31.0308 3.05902 30.9084 3.18138C30.7861 3.30374 30.717 3.46949 30.7162 3.64254V7.50715C30.7184 7.93793 30.5853 8.35852 30.3357 8.70964C30.0861 9.06075 29.7326 9.32467 29.3251 9.46418C29.2872 9.47738 29.2481 9.49125 29.2079 9.50578L29.2081 9.50543ZM31.3123 16.298L44.8138 29.7996C45.5527 27.9128 45.7253 25.8516 45.3107 23.8682C44.896 21.8847 43.9121 20.0653 42.4793 18.6325C41.0464 17.1997 39.2269 16.2158 37.2435 15.8012C35.2601 15.3866 33.1988 15.5593 31.3121 16.2982L31.3123 16.298ZM38.9202 35.6925L25.4186 22.1917C24.6799 24.0784 24.5073 26.1396 24.9219 28.1229C25.3366 30.1063 26.3205 31.9257 27.7533 33.3584C29.186 34.7912 31.0054 35.7751 32.9888 36.1897C34.9721 36.6044 37.0333 36.4317 38.92 35.693L38.9202 35.6925ZM17.2272 31.0691C17.1677 32.8631 17.1542 35.1082 16.6042 36.4839C15.4004 39.4956 12.4713 41.3617 9.29888 41.602V55.7609C11.7247 55.9029 13.7403 57.0116 16.0056 57.0132C18.2524 57.0149 20.201 56.9478 22.3844 56.5772C22.0168 56.0133 21.9654 55.56 21.9654 54.9114C21.9656 54.5407 22.0455 54.1743 22.1997 53.8372C22.3539 53.5001 22.5788 53.2001 22.8591 52.9575C22.577 52.691 22.3522 52.3698 22.1985 52.0134C22.0448 51.657 21.9655 51.273 21.9654 50.8849V50.5911C21.9654 49.8616 22.2453 49.1598 22.7474 48.6305C22.3728 48.3669 22.067 48.0171 21.8558 47.6107C21.6446 47.2042 21.5341 46.753 21.5336 46.2949L21.5367 45.8709C20.7811 46.8871 19.6667 47.7108 18.0428 48.2723C17.8653 48.3335 17.6707 48.3216 17.502 48.2393C17.3332 48.1569 17.204 48.011 17.1429 47.8334C17.0818 47.6559 17.0936 47.4613 17.176 47.2925C17.2583 47.1238 17.4043 46.9946 17.5818 46.9335C20.4114 45.9545 21.3279 43.8397 21.5391 41.2339C21.7266 38.6036 21.3076 35.7466 21.2616 32.9787C21.2294 31.0366 19.7627 28.13 17.483 28.713C17.3221 29.0177 17.267 29.9541 17.2272 31.0692V31.0691ZM29.6916 53.7439H24.5548C24.2456 53.7453 23.9495 53.8688 23.7309 54.0874C23.5122 54.306 23.3888 54.6022 23.3874 54.9114C23.3874 55.3301 23.3874 55.6496 23.7309 55.9922C23.8388 56.1009 23.9672 56.1872 24.1086 56.2462C24.25 56.3051 24.4016 56.3356 24.5548 56.3358H29.6916C30.0008 56.3344 30.297 56.2109 30.5156 55.9922C30.7342 55.7736 30.8577 55.4774 30.859 55.1682C30.859 54.7495 30.859 54.43 30.5156 54.0874C30.4076 53.9788 30.2792 53.8925 30.1378 53.8335C29.9964 53.7746 29.8448 53.7441 29.6916 53.7439ZM30.6987 49.1541H24.8245C24.4438 49.1556 24.0792 49.3075 23.81 49.5767C23.5409 49.8459 23.389 50.2105 23.3874 50.5911C23.3874 51.1 23.3963 51.4855 23.8101 51.8993C23.943 52.0331 24.101 52.1393 24.2751 52.2118C24.4492 52.2844 24.6359 52.3218 24.8245 52.322H30.6987C31.0794 52.3204 31.444 52.1685 31.7132 51.8993C31.9823 51.6302 32.1343 51.2656 32.1359 50.8849C32.1359 50.5465 32.1544 50.3251 32.0078 50.0009C31.8934 49.7493 31.7093 49.5358 31.4773 49.3858C31.2453 49.2357 30.9751 49.1553 30.6987 49.1541ZM30.267 44.5641H24.3926C24.012 44.5657 23.6474 44.7176 23.3782 44.9868C23.1091 45.256 22.9572 45.6206 22.9556 46.0013C22.9556 46.5101 22.9645 46.8956 23.3783 47.3094C23.8347 47.7659 24.2689 47.7321 24.8245 47.7321H30.6987C31.0794 47.7305 31.444 47.5786 31.7132 47.3094C31.9824 47.0402 32.1343 46.6756 32.1359 46.2949C32.1359 45.7861 32.127 45.4007 31.7132 44.9868C31.2562 44.5303 30.8226 44.5641 30.267 44.5641ZM7.63084 40.5807H3.79048C3.72543 40.5814 3.66324 40.6076 3.61724 40.6536C3.57124 40.6996 3.54509 40.7618 3.54439 40.8268V56.7643C3.54509 56.8294 3.57124 56.8916 3.61724 56.9376C3.66324 56.9836 3.72543 57.0097 3.79048 57.0104H7.63084C7.69588 57.0097 7.75805 56.9835 7.80404 56.9375C7.85004 56.8915 7.8762 56.8294 7.87693 56.7643V40.8268C7.87623 40.7618 7.85007 40.6996 7.80407 40.6536C7.75807 40.6076 7.69589 40.5814 7.63084 40.5807ZM30.267 39.9742H24.3926C24.0668 39.9758 23.751 40.0875 23.4966 40.291C23.2422 40.4946 23.0639 40.7781 22.9908 41.0957L22.9557 41.705C22.9573 42.0857 23.1092 42.4503 23.3784 42.7195C23.6475 42.9886 24.0121 43.1406 24.3927 43.1422H30.2671C30.6478 43.1406 31.0124 42.9887 31.2816 42.7195C31.5507 42.4503 31.7026 42.0857 31.7042 41.705C31.7042 41.1961 31.6953 40.8107 31.2815 40.3969C31.1486 40.2631 30.9905 40.1569 30.8164 40.0843C30.6423 40.0118 30.4556 39.9744 30.267 39.9742Z" fill="#357CDB" stroke="#357CDB" stroke-width="0.5"/>
</svg>
