<svg width="60" height="60" viewBox="0 0 60 60" fill="none" xmlns="http://www.w3.org/2000/svg">
<path d="M43.75 36.2498V30.1336C43.7635 29.525 43.5625 28.9311 43.1823 28.4558C42.802 27.9804 42.2667 27.654 41.67 27.5336C41.3112 27.4724 40.9433 27.4904 40.5921 27.5862C40.241 27.6819 39.915 27.8533 39.6369 28.0881C39.3588 28.323 39.1353 28.6158 38.9822 28.946C38.829 29.2762 38.7497 29.6358 38.75 29.9998V47.4998C38.75 48.8259 39.2768 50.0977 40.2145 51.0354C41.1521 51.973 42.4239 52.4998 43.75 52.4998H53.75C55.0761 52.4998 56.3479 51.973 57.2855 51.0354C58.2232 50.0977 58.75 48.8259 58.75 47.4998V41.2498C58.75 39.9237 58.2232 38.652 57.2855 37.7143C56.3479 36.7766 55.0761 36.2498 53.75 36.2498H43.75Z" stroke="#357CDB" stroke-width="2" stroke-linejoin="round"/>
<path d="M38.75 52.5H58.75V58.75H38.75V52.5Z" stroke="#357CDB" stroke-width="2" stroke-linejoin="round"/>
<path d="M52.5 33.75V3.75C52.5 3.08696 52.2366 2.45107 51.7678 1.98223C51.2989 1.51339 50.663 1.25 50 1.25H12.5C11.837 1.25 11.2011 1.51339 10.7322 1.98223C10.2634 2.45107 10 3.08696 10 3.75V28.75" stroke="#357CDB" stroke-width="2" stroke-linejoin="round"/>
<path d="M13.75 53.75L22.5 45C22.8284 44.6717 23.0889 44.282 23.2666 43.853C23.4443 43.4241 23.5358 42.9643 23.5358 42.5C23.5358 42.0357 23.4443 41.5759 23.2666 41.147C23.0889 40.718 22.8284 40.3283 22.5 40C22.1717 39.6716 21.782 39.4111 21.353 39.2334C20.9241 39.0557 20.4643 38.9642 20 38.9642C19.5357 38.9642 19.0759 39.0557 18.647 39.2334C18.218 39.4111 17.8283 39.6716 17.5 40L10 47.5V27.5C8.01088 27.5 6.10322 28.2902 4.6967 29.6967C3.29018 31.1032 2.5 33.0109 2.5 35V53.75H13.75Z" stroke="#357CDB" stroke-width="2" stroke-linejoin="round"/>
<path d="M21.25 46.25H35" stroke="#357CDB" stroke-width="2" stroke-linejoin="round"/>
<path d="M1.25 53.75H17.5V58.75H1.25V53.75Z" stroke="#357CDB" stroke-width="2" stroke-linejoin="round"/>
<path d="M20 6.25H17.5C16.1193 6.25 15 7.36929 15 8.75V11.25C15 12.6307 16.1193 13.75 17.5 13.75H20C21.3807 13.75 22.5 12.6307 22.5 11.25V8.75C22.5 7.36929 21.3807 6.25 20 6.25Z" stroke="#357CDB" stroke-width="2" stroke-linejoin="round"/>
<path d="M32.5 6.25H30C28.6193 6.25 27.5 7.36929 27.5 8.75V11.25C27.5 12.6307 28.6193 13.75 30 13.75H32.5C33.8807 13.75 35 12.6307 35 11.25V8.75C35 7.36929 33.8807 6.25 32.5 6.25Z" stroke="#357CDB" stroke-width="2" stroke-linejoin="round"/>
<path d="M45 6.25H42.5C41.1193 6.25 40 7.36929 40 8.75V11.25C40 12.6307 41.1193 13.75 42.5 13.75H45C46.3807 13.75 47.5 12.6307 47.5 11.25V8.75C47.5 7.36929 46.3807 6.25 45 6.25Z" stroke="#357CDB" stroke-width="2" stroke-linejoin="round"/>
<path d="M18.75 30C20.1307 30 21.25 28.8807 21.25 27.5C21.25 26.1193 20.1307 25 18.75 25C17.3693 25 16.25 26.1193 16.25 27.5C16.25 28.8807 17.3693 30 18.75 30Z" stroke="#357CDB" stroke-width="2" stroke-linejoin="round"/>
<path d="M18.75 17.5V25" stroke="#357CDB" stroke-width="2" stroke-linejoin="round"/>
<path d="M18.75 30V35" stroke="#357CDB" stroke-width="2" stroke-linejoin="round"/>
<path d="M31.25 37.5C32.6307 37.5 33.75 36.3807 33.75 35C33.75 33.6193 32.6307 32.5 31.25 32.5C29.8693 32.5 28.75 33.6193 28.75 35C28.75 36.3807 29.8693 37.5 31.25 37.5Z" stroke="#357CDB" stroke-width="2" stroke-linejoin="round"/>
<path d="M31.25 17.5V32.5" stroke="#357CDB" stroke-width="2" stroke-linejoin="round"/>
<path d="M38.75 18.75H48.75" stroke="#357CDB" stroke-width="2" stroke-linejoin="round"/>
<path d="M38.75 23.75H48.75" stroke="#357CDB" stroke-width="2" stroke-linejoin="round"/>
</svg>
