<svg width="60" height="60" viewBox="0 0 60 60" fill="none" xmlns="http://www.w3.org/2000/svg">
<g clip-path="url(#clip0_2002_1115)">
<g clip-path="url(#clip1_2002_1115)">
<mask id="mask0_2002_1115" style="mask-type:luminance" maskUnits="userSpaceOnUse" x="0" y="0" width="60" height="60">
<path d="M0 3.8147e-06H60V60H0V3.8147e-06Z" fill="white"/>
</mask>
<g mask="url(#mask0_2002_1115)">
<path d="M33.1031 20.7038V25.8839C33.1031 26.054 33.0335 26.2167 32.9105 26.3343L30.3703 28.7623C30.1255 28.9964 29.7386 28.992 29.4992 28.7525L27.0794 26.3328C26.9626 26.216 26.8969 26.0574 26.8969 25.8922V20.7038C26.8969 20.1897 26.3344 19.8751 25.8949 20.1417C23.5122 21.5866 21.9515 24.2513 22.0796 27.2698C22.2564 31.4408 25.7128 34.7935 29.887 34.8518C34.3171 34.9134 37.9278 31.3407 37.9278 26.9246C37.9278 24.0488 36.3964 21.5309 34.1046 20.1413C33.6652 19.875 33.1031 20.1901 33.1031 20.7038Z" stroke="#357CDB" stroke-width="2" stroke-miterlimit="10" stroke-linecap="round" stroke-linejoin="round"/>
<path d="M26.9771 41.8588V44.4727" stroke="#357CDB" stroke-width="2" stroke-miterlimit="10" stroke-linecap="round" stroke-linejoin="round"/>
<path d="M26.9771 34.2472V37.7568" stroke="#357CDB" stroke-width="2" stroke-miterlimit="10" stroke-linecap="round" stroke-linejoin="round"/>
<path d="M33.0229 44.4727V34.2557" stroke="#357CDB" stroke-width="2" stroke-miterlimit="10" stroke-linecap="round" stroke-linejoin="round"/>
<path d="M30 38.9288V44.7822" stroke="#357CDB" stroke-width="2" stroke-miterlimit="10" stroke-linecap="round" stroke-linejoin="round"/>
<path d="M39.0697 18.3269C36.5656 16.3786 33.4185 15.2176 29.9999 15.2176C21.8358 15.2176 15.2177 21.8359 15.2177 30C15.2177 38.1639 21.8358 44.7822 29.9999 44.7822C38.164 44.7822 44.7824 38.1639 44.7824 30C44.7824 26.7336 43.7223 23.7154 41.9283 21.2688" stroke="#357CDB" stroke-width="2" stroke-miterlimit="10" stroke-linecap="round" stroke-linejoin="round"/>
<path d="M7.95817 10.8584L6.50716 12.3094C5.91313 12.9034 5.85641 13.8473 6.37497 14.5083L9.96665 19.0862C10.2709 19.4741 10.3217 20 10.1079 20.4441C9.75876 21.1689 9.44774 21.9155 9.17833 22.6816C9.01239 23.153 8.59884 23.4932 8.10278 23.553L2.34032 24.2488C1.5063 24.3495 0.878876 25.0571 0.878876 25.8971V34.1027C0.878876 34.9429 1.5063 35.6505 2.34032 35.7511L8.10278 36.4468C8.59884 36.5067 9.01239 36.8469 9.17833 37.3182C9.44774 38.0844 9.75876 38.831 10.1079 39.5558C10.3217 39.9998 10.2709 40.5259 9.96665 40.9137L6.37497 45.4916C5.85641 46.1525 5.91313 47.0966 6.50716 47.6906L12.3093 53.4928C12.9034 54.0868 13.8474 54.1436 14.5084 53.625L19.0863 50.0333C19.4741 49.7291 20.0001 49.6782 20.4441 49.8921C21.169 50.2412 21.9156 50.5521 22.6817 50.8218C23.1531 50.9876 23.4932 51.401 23.5531 51.8972L24.2489 57.6598C24.3495 58.4937 25.0572 59.1211 25.8972 59.1211H34.1028C34.9428 59.1211 35.6505 58.4937 35.7512 57.6598L36.4469 51.8972C36.5068 51.401 36.847 50.9876 37.3183 50.8218C38.0845 50.5521 38.8311 50.2412 39.5558 49.8921C39.9999 49.6782 40.526 49.7291 40.9138 50.0333L45.4917 53.625C46.1525 54.1436 47.0966 54.0868 47.6906 53.4928L53.4928 47.6906C54.0868 47.0966 54.1436 46.1525 53.6251 45.4916L50.0334 40.9137C49.7292 40.5259 49.6782 39.9998 49.8922 39.5558C50.2413 38.831 50.5522 38.0844 50.8217 37.3182C50.9877 36.8469 51.4011 36.5067 51.8972 36.4468L57.6597 35.7511C58.4936 35.6505 59.1211 34.9429 59.1211 34.1027V25.8971C59.1211 25.0571 58.4936 24.3495 57.6597 24.2488L51.8972 23.553C51.4011 23.4932 50.9877 23.153 50.8217 22.6816C50.5522 21.9155 50.2413 21.1689 49.8922 20.4441C49.6782 20 49.7292 19.4741 50.0334 19.0862L53.6251 14.5083C54.1436 13.8473 54.0868 12.9034 53.4928 12.3094L47.6906 6.50719C47.0966 5.91317 46.1525 5.85633 45.4917 6.37488L40.9138 9.96657C40.526 10.2708 39.9999 10.3218 39.5558 10.1078C38.8311 9.75867 38.0845 9.44777 37.3183 9.17824C36.847 9.01242 36.5068 8.59887 36.4469 8.10281L35.7512 2.34023C35.6505 1.50621 34.9428 0.87891 34.1028 0.87891H25.8972C25.0572 0.87891 24.3495 1.50621 24.2489 2.34023L23.5531 8.10281C23.4932 8.59887 23.1531 9.01242 22.6817 9.17824C21.9156 9.44777 21.169 9.75867 20.4441 10.1078C20.0001 10.3218 19.4741 10.2708 19.0863 9.96657L14.5084 6.37488C13.8474 5.85633 12.9034 5.91317 12.3093 6.50719L10.8584 7.95809" stroke="#357CDB" stroke-width="2" stroke-miterlimit="10" stroke-linecap="round" stroke-linejoin="round"/>
</g>
</g>
</g>
<defs>
<clipPath id="clip0_2002_1115">
<rect width="60" height="60" fill="white"/>
</clipPath>
<clipPath id="clip1_2002_1115">
<rect width="60" height="60" fill="white"/>
</clipPath>
</defs>
</svg>
