<svg width="61" height="60" viewBox="0 0 61 60" fill="none" xmlns="http://www.w3.org/2000/svg">
<g clip-path="url(#clip0_2002_1506)">
<g clip-path="url(#clip1_2002_1506)">
<path d="M36.2228 9.4707H6.86719" stroke="#357CDB" stroke-width="2" stroke-miterlimit="10" stroke-linecap="round" stroke-linejoin="round"/>
<mask id="mask0_2002_1506" style="mask-type:luminance" maskUnits="userSpaceOnUse" x="0" y="0" width="61" height="60">
<path d="M0.5 3.8147e-06H60.5V60H0.5V3.8147e-06Z" fill="white"/>
</mask>
<g mask="url(#mask0_2002_1506)">
<path d="M59.6211 41.7268V53.3103C59.6211 54.6774 58.5128 55.7856 57.1457 55.7856H3.85426C2.48715 55.7856 1.37891 54.6774 1.37891 53.3103V6.68983C1.37891 5.32272 2.48715 4.21448 3.85426 4.21448H57.1457C58.5128 4.21448 59.6211 5.32272 59.6211 6.68983V37.6178" stroke="#357CDB" stroke-width="2" stroke-miterlimit="10" stroke-linecap="round" stroke-linejoin="round"/>
<path d="M8.67651 14.7266H59.6212" stroke="#357CDB" stroke-width="2" stroke-miterlimit="10" stroke-linecap="round" stroke-linejoin="round"/>
<path d="M1.37891 14.7266H4.56758" stroke="#357CDB" stroke-width="2" stroke-miterlimit="10" stroke-linecap="round" stroke-linejoin="round"/>
<path d="M53.9518 9.47455C53.9518 10.6533 52.9962 11.6089 51.8174 11.6089C50.6388 11.6089 49.6831 10.6533 49.6831 9.47455C49.6831 8.29576 50.6388 7.34022 51.8174 7.34022C52.9962 7.34022 53.9518 8.29576 53.9518 9.47455Z" stroke="#357CDB" stroke-width="2" stroke-miterlimit="10" stroke-linecap="round" stroke-linejoin="round"/>
<path d="M45.3932 9.47455C45.3932 10.6533 44.4376 11.6089 43.2588 11.6089C42.0802 11.6089 41.1245 10.6533 41.1245 9.47455C41.1245 8.29576 42.0802 7.34022 43.2588 7.34022C44.4376 7.34022 45.3932 8.29576 45.3932 9.47455Z" stroke="#357CDB" stroke-width="2" stroke-miterlimit="10" stroke-linecap="round" stroke-linejoin="round"/>
<path d="M41.6851 26.0708H54.378H41.6851Z" fill="white"/>
<path d="M41.6851 26.0708H54.378" stroke="#357CDB" stroke-width="2" stroke-miterlimit="10" stroke-linecap="round" stroke-linejoin="round"/>
<path d="M35.7842 26.0708H38.2491H35.7842Z" fill="white"/>
<path d="M35.7842 26.0708H38.2491" stroke="#357CDB" stroke-width="2" stroke-miterlimit="10" stroke-linecap="round" stroke-linejoin="round"/>
<path d="M51.9131 35.0635H54.378H51.9131Z" fill="white"/>
<path d="M51.9131 35.0635H54.378" stroke="#357CDB" stroke-width="2" stroke-miterlimit="10" stroke-linecap="round" stroke-linejoin="round"/>
<path d="M35.7842 35.0635H48.4771H35.7842Z" fill="white"/>
<path d="M35.7842 35.0635H48.4771" stroke="#357CDB" stroke-width="2" stroke-miterlimit="10" stroke-linecap="round" stroke-linejoin="round"/>
<path d="M41.6851 44.0566H54.378H41.6851Z" fill="white"/>
<path d="M41.6851 44.0566H54.378" stroke="#357CDB" stroke-width="2" stroke-miterlimit="10" stroke-linecap="round" stroke-linejoin="round"/>
<path d="M35.7842 44.0566H38.2491H35.7842Z" fill="white"/>
<path d="M35.7842 44.0566H38.2491" stroke="#357CDB" stroke-width="2" stroke-miterlimit="10" stroke-linecap="round" stroke-linejoin="round"/>
<path d="M39.9671 28.5752C39.0182 28.5752 38.2491 27.8061 38.2491 26.8572V25.1847C38.2491 24.236 39.0182 23.4668 39.9671 23.4668C40.9159 23.4668 41.685 24.236 41.685 25.1847V26.8572C41.685 27.8061 40.9159 28.5752 39.9671 28.5752Z" stroke="#357CDB" stroke-width="2" stroke-miterlimit="10" stroke-linecap="round" stroke-linejoin="round"/>
<path d="M50.195 37.6177C49.2463 37.6177 48.4772 36.8486 48.4772 35.8997V34.2272C48.4772 33.2785 49.2463 32.5092 50.195 32.5092C51.1439 32.5092 51.913 33.2785 51.913 34.2272V35.8997C51.913 36.8486 51.1439 37.6177 50.195 37.6177Z" stroke="#357CDB" stroke-width="2" stroke-miterlimit="10" stroke-linecap="round" stroke-linejoin="round"/>
<path d="M39.9671 46.6108C39.0182 46.6108 38.2491 45.8417 38.2491 44.893V43.2204C38.2491 42.2716 39.0182 41.5025 39.9671 41.5025C40.9159 41.5025 41.685 42.2716 41.685 43.2204V44.893C41.685 45.8417 40.9159 46.6108 39.9671 46.6108Z" stroke="#357CDB" stroke-width="2" stroke-miterlimit="10" stroke-linecap="round" stroke-linejoin="round"/>
<path d="M18.1941 40.5886C15.1291 40.5886 12.6443 38.1038 12.6443 35.0388C12.6443 31.9738 15.1291 29.4892 18.1941 29.4892C21.259 29.4892 23.7437 31.9738 23.7437 35.0388C23.7437 38.1038 21.259 40.5886 18.1941 40.5886ZM29.0384 33.2389H28.3963C28.0602 33.2389 27.7702 33.0083 27.6895 32.6822C27.4519 31.7218 27.0726 30.8175 26.5749 29.9926C26.401 29.7044 26.4425 29.3359 26.6804 29.0979L27.1349 28.6433C27.4191 28.3592 27.4191 27.8986 27.1349 27.6144L25.6184 26.098C25.3343 25.8138 24.8737 25.8138 24.5895 26.098L24.1349 26.5526C23.897 26.7905 23.5285 26.8319 23.2404 26.658C22.4153 26.1603 21.5111 25.781 20.5506 25.5433C20.2245 25.4627 19.9939 25.1726 19.9939 24.8366V24.1945C19.9939 23.7926 19.6681 23.4669 19.2662 23.4669H17.1218C16.72 23.4669 16.3942 23.7926 16.3942 24.1945V24.8366C16.3942 25.1726 16.1636 25.4627 15.8375 25.5433C14.877 25.781 13.9728 26.1603 13.1478 26.658C12.8596 26.8319 12.4911 26.7905 12.2532 26.5526L11.7986 26.098C11.5144 25.8138 11.0537 25.8138 10.7697 26.098L9.25316 27.6144C8.9691 27.8986 8.9691 28.3592 9.25316 28.6433L9.70773 29.0979C9.94562 29.3359 9.98723 29.7044 9.81332 29.9926C9.31551 30.8175 8.93617 31.7218 8.69863 32.6822C8.61789 33.0083 8.32785 33.2389 7.99176 33.2389H7.34969C6.94773 33.2389 6.62207 33.5647 6.62207 33.9665V36.1111C6.62207 36.5129 6.94773 36.8387 7.34969 36.8387H7.99176C8.32785 36.8387 8.61789 37.0693 8.69863 37.3954C8.93617 38.3558 9.31551 39.2601 9.81332 40.0851C9.98723 40.3732 9.94562 40.7419 9.70773 40.9797L9.25316 41.4343C8.9691 41.7185 8.9691 42.1792 9.25316 42.4632L10.7697 43.9796C11.0537 44.2638 11.5144 44.2638 11.7986 43.9796L12.2532 43.5252C12.4911 43.2872 12.8596 43.2457 13.1478 43.4196C13.9728 43.9174 14.877 44.2967 15.8375 44.5343C16.1636 44.6149 16.3942 44.9051 16.3942 45.2412V45.8832C16.3942 46.2851 16.72 46.6108 17.1218 46.6108H19.2662C19.6681 46.6108 19.9939 46.2851 19.9939 45.8832V45.2412C19.9939 44.9051 20.2245 44.6149 20.5506 44.5343C21.5111 44.2967 22.4153 43.9174 23.2404 43.4196C23.5285 43.2457 23.897 43.2872 24.1349 43.5252L24.5895 43.9796C24.8737 44.2638 25.3343 44.2638 25.6184 43.9796L27.1349 42.4632C27.4191 42.1792 27.4191 41.7185 27.1349 41.4343L26.6804 40.9797C26.4425 40.7419 26.401 40.3732 26.5749 40.0851C27.0726 39.2601 27.4519 38.3558 27.6895 37.3954C27.7702 37.0693 28.0602 36.8387 28.3963 36.8387H29.0384C29.4404 36.8387 29.766 36.5129 29.766 36.1111V33.9665C29.766 33.5647 29.4404 33.2389 29.0384 33.2389Z" stroke="#357CDB" stroke-width="2" stroke-miterlimit="10" stroke-linecap="round" stroke-linejoin="round"/>
</g>
</g>
</g>
<defs>
<clipPath id="clip0_2002_1506">
<rect width="60" height="60" fill="white" transform="translate(0.5)"/>
</clipPath>
<clipPath id="clip1_2002_1506">
<rect width="60" height="60" fill="white" transform="translate(0.5)"/>
</clipPath>
</defs>
</svg>
