<svg width="18" height="18" viewBox="0 0 18 18" fill="none" xmlns="http://www.w3.org/2000/svg">
<g clip-path="url(#clip0_0_1163)">
<path d="M9.00001 0.0158691C6.99856 0.0182513 5.07978 0.814432 3.66461 2.22974C2.24944 3.64505 1.45345 5.56392 1.45126 7.56537C1.45126 11.5209 7.57576 16.8121 8.27626 17.4031L9.00151 18.0159L9.72676 17.4031C10.4258 16.8121 16.5518 11.5209 16.5518 7.56537C16.5496 5.5634 15.7532 3.64408 14.3374 2.22868C12.9215 0.813287 11.002 0.0174573 9.00001 0.0158691ZM9.00001 15.0481C6.70126 12.9541 3.69976 9.55212 3.69976 7.56537C3.69976 6.15966 4.25818 4.81152 5.25217 3.81753C6.24616 2.82354 7.5943 2.26512 9.00001 2.26512C10.4057 2.26512 11.7539 2.82354 12.7479 3.81753C13.7418 4.81152 14.3003 6.15966 14.3003 7.56537C14.3003 9.54837 11.298 12.9519 9.00001 15.0481Z" fill="#357CDB"/>
<path d="M8.9997 9.74916C10.2411 9.74916 11.2475 8.74281 11.2475 7.50141C11.2475 6.26001 10.2411 5.25366 8.9997 5.25366C7.7583 5.25366 6.75195 6.26001 6.75195 7.50141C6.75195 8.74281 7.7583 9.74916 8.9997 9.74916Z" fill="#357CDB"/>
</g>
<defs>
<clipPath id="clip0_0_1163">
<rect width="18" height="18" fill="white"/>
</clipPath>
</defs>
</svg>
