<svg width="18" height="18" viewBox="0 0 18 18" fill="none" xmlns="http://www.w3.org/2000/svg">
<path d="M17.3392 0.66151C17.0703 0.389356 16.7358 0.191152 16.3679 0.0860478C16 -0.0190564 15.6113 -0.0275077 15.2392 0.0615104L3.2392 2.58901C2.54813 2.68379 1.89725 2.96962 1.35985 3.41432C0.82245 3.85902 0.419881 4.44493 0.197478 5.10606C-0.0249258 5.76719 -0.0583304 6.47728 0.101026 7.15637C0.260382 7.83546 0.606169 8.45657 1.09945 8.94976L2.38795 10.2375C2.45768 10.3072 2.51299 10.39 2.5507 10.4811C2.5884 10.5722 2.60777 10.6699 2.6077 10.7685V13.1445C2.60935 13.4786 2.68626 13.808 2.8327 14.1083L2.8267 14.1135L2.8462 14.133C3.06596 14.5749 3.42488 14.9322 3.8677 15.15L3.8872 15.1695L3.89245 15.1635C4.19272 15.31 4.52212 15.3869 4.8562 15.3885H7.2322C7.43098 15.3884 7.62171 15.4671 7.76245 15.6075L9.0502 16.8953C9.39559 17.2445 9.80668 17.5219 10.2598 17.7115C10.7129 17.9011 11.199 17.9992 11.6902 18C12.0995 17.9995 12.506 17.9326 12.8939 17.802C13.549 17.5869 14.131 17.193 14.5741 16.6648C15.0173 16.1366 15.304 15.495 15.4019 14.8125L17.9332 2.78626C18.0268 2.41099 18.0213 2.01783 17.9172 1.64533C17.813 1.27284 17.6139 0.933813 17.3392 0.66151ZM3.44995 9.17851L2.1607 7.89076C1.86049 7.59778 1.65008 7.22525 1.55416 6.81688C1.45825 6.40851 1.48081 5.98126 1.6192 5.58526C1.75337 5.179 2.0014 4.81983 2.33379 4.55046C2.66619 4.28109 3.06896 4.11285 3.4942 4.06576L15.3749 1.56451L4.1062 12.8348V10.7685C4.10733 10.4733 4.04992 10.1807 3.93728 9.9078C3.82463 9.63488 3.659 9.38701 3.44995 9.17851ZM13.9282 14.556C13.8706 14.9703 13.6987 15.3603 13.4318 15.6822C13.1648 16.0042 12.8134 16.2454 12.417 16.3788C12.0206 16.5121 11.5949 16.5324 11.1876 16.4372C10.7804 16.342 10.4077 16.1352 10.1114 15.84L8.82145 14.55C8.61322 14.3406 8.36555 14.1746 8.09276 14.0616C7.81997 13.9486 7.52748 13.8908 7.2322 13.8915H5.16595L16.4362 2.62501L13.9282 14.556Z" fill="#357CDB"/>
</svg>
